<?xml version="1.0" standalone="no"?> <!DOCTYPE svg PUBLIC "-//W3C//DTD SVG 1.0//EN" "http://www.w3.org/TR/2001/REC-SVG-20010904/DTD/svg10.dtd" > <svg xmlns="http://www.w3.org/2000/svg" width="100%" height="100%">
<defs >
<font horiz-adv-x="316" ><font-face
    font-family=""
    units-per-em="1000"
    panose-1="0 0 0 0 0 0 0 0 0 0"
    ascent="812"
    descent="-188"
    alphabetic="0" />
<missing-glyph horiz-adv-x="103" />
<glyph unicode=" " glyph-name="space" horiz-adv-x="103" />
<glyph unicode="!" glyph-name="exclam" horiz-adv-x="164" d="M141 0H22V144H141V0ZM154 744L107 167H56L9 744H154Z" />
<glyph unicode="&quot;" glyph-name="quotedbl" horiz-adv-x="232" d="M106 553H15V744H106V553ZM217 553H126V744H217V553Z" />
<glyph unicode="#" glyph-name="numbersign" horiz-adv-x="372" d="M199 748L181 538H216L234 748H326L307 538H367L360 440H299L291 346H351L344 248H282L261 0H171L192 248H156L135 0H45L66 248H5L14 346H74L82 440H21L30 538H90L108 748H199ZM164 346H200L208
440H172L164 346Z" />
<glyph unicode="$" glyph-name="dollar" horiz-adv-x="356" d="M157 -11Q10 -7 10 145V278H133V143Q133 105 157 98V307L83 383Q42 426 28 471T13 578V601Q13 640 23 668T53 715T99 743T157 753V812H192V753Q267 751 297 715T328 607V506H212V608Q212 623 208
632T192 645V457L258 389Q282 363 299 343T326 300T341 250T346 185V158Q346 80 305 36T192 -11V-72H157V-11ZM220 181Q220 213 214 231T192 270V96Q220 105 220 152V181ZM136 581Q136 549 139 532T157 496V645Q143 641 140 631T136 607V581Z" />
<glyph unicode="%" glyph-name="percent" horiz-adv-x="494" d="M265 230Q265 284 292 311T364 338H384Q430 338 456 310T482 230V102Q482 51 456 23T384 -5H364Q319 -5 292 21T265 102V230ZM12 643Q12 697 39 723T111 750H131Q177 750 203 722T229 643V515Q229
464 203 436T131 407H111Q66 407 39 434T12 515V643ZM429 744L150 0H67L346 744H429ZM137 651Q137 659 134 665T120 671Q111 671 108 665T104 651V508Q104 488 120 488Q137 488 137 508V651ZM373 75Q383 75 386 81T390 95V238Q390 258 373 258Q357 258 357 238V95Q357
87 360 81T373 75Z" />
<glyph unicode="&amp;" glyph-name="ampersand" horiz-adv-x="453" d="M12 230Q12 298 38 342T108 419Q97 443 89 463T76 504T67 546T64 591V619Q64 641 69 664T89 707T128 740T192 753H214Q250 753 274 744T312 716T332 674T338 619V606Q338 576 334 552T318
507T287 464T237 418L319 238Q325 286 325 340T325 445H437Q435 336 426 258T391 116Q405 105 420 100T452 92Q448 79 445 67T440 43Q435 23 431 5T424 -18Q389 -13 364 -4T318 22Q303 8 279 -1T217 -11H204Q113 -11 63 41T12 194V230ZM225 99Q247 99 260 106L150
331Q145 317 141 298T137 255V229Q137 160 160 130T225 99ZM178 596Q178 582 179 571T183 548T190 525T202 496Q219 520 224 540T229 597V612Q229 637 224 646T204 655Q189 655 184 646T178 612V596Z" />
<glyph unicode="&apos;" glyph-name="quotesingle" horiz-adv-x="123" d="M108 553H15V744H108V553Z" />
<glyph unicode="(" glyph-name="parenleft" horiz-adv-x="214" d="M27 344Q27 423 36 490T60 614T95 719T136 808H214Q200 770 188 721T165 612T150 486T144 347Q144 199 166 76T217 -131H139Q119 -94 99 -45T63 63T37 193T27 344Z" />
<glyph unicode=")" glyph-name="parenright" horiz-adv-x="214" d="M70 347Q70 419 65 485T49 611T27 720T0 808H77Q98 767 118 719T153 613T177 490T187 344Q187 264 177 194T151 65T114 -44T74 -131H-3Q10 -89 23 -37T46 75T63 204T70 347Z" />
<glyph unicode="*" glyph-name="asterisk" horiz-adv-x="237" d="M196 718L232 657L171 632L231 605L197 546L146 587L154 521H82L91 587L41 546L5 607L65 632L4 657L40 718L90 678L82 744H154L146 678L196 718Z" />
<glyph unicode="+" glyph-name="plus" horiz-adv-x="344" d="M123 255H15V346H123V468H221V346H329V255H221V134H123V255Z" />
<glyph unicode="," glyph-name="comma" horiz-adv-x="149" d="M36 -95Q43 -79 51 -53T61 0H15V144H134V38Q134 -10 123 -43T103 -95H36Z" />
<glyph unicode="-" glyph-name="hyphen" horiz-adv-x="183" d="M168 359V238H15V359H168Z" />
<glyph unicode="." glyph-name="period" horiz-adv-x="149" d="M134 0H15V144H134V0Z" />
<glyph unicode="/" glyph-name="slash" horiz-adv-x="219" d="M87 -131H-8L123 808H217L87 -131Z" />
<glyph unicode="0" glyph-name="zero" horiz-adv-x="374" d="M356 165Q356 84 316 37T200 -11H170Q92 -11 55 36T18 165V563Q18 605 26 640T53 700T100 739T171 753H201Q244 753 273 739T321 701T348 641T356 564V165ZM216 577Q216 600 210 611T186 623Q169 623
163 612T156 577V165Q156 148 161 135T185 122Q204 122 210 133T216 165V577Z" />
<glyph unicode="1" glyph-name="one" horiz-adv-x="243" d="M9 547V661Q38 661 56 667T86 685T102 711T109 744H220V0H87V547H9Z" />
<glyph unicode="2" glyph-name="two" horiz-adv-x="363" d="M177 632Q163 632 158 624T152 598V483H27V614Q27 640 34 665T57 709T99 741T163 753H190Q262 753 301 718T341 610V568Q341 538 340 514T332 468T313 421T276 366Q259 343 240 319T203 271Q171 229
155 204T132 164T125 142T125 129H218V256H348V0H11V76Q11 110 14 136T26 191T53 254T101 339L165 445Q178 467 185 483T196 511T201 533T202 553V598Q202 632 177 632Z" />
<glyph unicode="3" glyph-name="three" horiz-adv-x="350" d="M21 515V611Q21 636 27 661T49 707T90 740T153 753H181Q257 753 292 714T327 610V527Q327 473 312 449T279 414Q334 396 334 329V143Q334 71 295 30T186 -11H158Q117 -11 89 0T44 30T20 73T13 123V273H143V155Q143
120 171 120Q198 120 198 155V300Q198 316 194 323T173 330H104V463H166Q183 463 188 470T194 496V598Q194 618 188 625T168 632Q155 632 149 625T143 598V515H21Z" />
<glyph unicode="4" glyph-name="four" horiz-adv-x="367" d="M161 474Q155 456 148 433T132 386T116 338T100 293H161V474ZM7 279Q22 320 45 383T92 514T138 645T174 749H291V293H360V166H291V0H161V166H7V279Z" />
<glyph unicode="5" glyph-name="five" horiz-adv-x="353" d="M22 331V744H327V615H150V468Q165 494 187 516T241 538H253Q276 538 292 530T317 507T331 476T336 441V134Q336 106 328 80T302 34T259 1T195 -11H155Q113 -11 86 1T43 33T21 76T14 121V273H147V150Q147
134 152 125T172 115Q186 115 191 125T197 150V375Q197 389 194 400T174 412Q159 412 156 400T153 376V331H22Z" />
<glyph unicode="6" glyph-name="six" horiz-adv-x="372" d="M266 479Q290 479 307 470T335 448T351 417T356 385V139Q356 111 347 85T318 37T270 3T204 -10H174Q134 -10 105 1T56 33T28 79T18 135V596Q18 666 55 710T172 754H200Q236 754 262 744T306 717T333
677T342 631V519H205V602Q205 616 201 623T181 631Q167 631 162 622T156 602V413Q163 421 172 432T195 454T223 472T258 479H266ZM187 116Q207 116 212 128T217 155V326Q217 346 210 354T187 363Q156 363 156 327V155Q156 140 161 128T187 116Z" />
<glyph unicode="7" glyph-name="seven" horiz-adv-x="329" d="M319 744V624Q316 605 314 592T310 567T305 540T298 505T289 455T275 382Q258 285 251 209T243 89V0H83V76Q83 98 85 122T93 178T109 249T137 341Q164 423 179 473T202 553T212 598T214 624H135V515H13V744H319Z"
/>
<glyph unicode="8" glyph-name="eight" horiz-adv-x="363" d="M340 505Q340 466 324 442T288 406Q315 393 331 367T347 301V143Q347 76 310 33T195 -11H167Q89 -11 53 30T16 144V301Q16 340 31 365T75 406Q54 417 39 441T23 505V614Q23 640 30 665T55 709T99 741T168
753H191Q230 753 258 742T304 712T331 668T340 612V505ZM209 295Q209 313 203 322T181 332Q166 332 160 324T154 295V149Q154 135 160 126T181 116Q209 116 209 149V295ZM207 604Q207 636 181 636Q167 636 162 627T156 604V487Q156 473 162 464T182 455Q207 455
207 486V604Z" />
<glyph unicode="9" glyph-name="nine" horiz-adv-x="372" d="M109 263Q85 263 67 273T38 299T22 336T16 376V608Q16 634 24 660T49 706T95 740T163 753H193Q235 753 265 742T315 711T344 665T354 611V131Q354 102 346 76T319 31T273 0T206 -11H176Q97 -11 64 22T30
105V223H167V140Q167 127 171 119T192 111Q206 111 210 120T215 140V329Q209 321 200 310T178 288T150 270T117 263H109ZM184 627Q164 627 159 614T154 587V416Q154 378 184 378Q215 378 215 415V587Q215 603 210 615T184 627Z" />
<glyph unicode=":" glyph-name="colon" horiz-adv-x="153" d="M136 0H17V144H136V0ZM136 295H17V437H136V295Z" />
<glyph unicode=";" glyph-name="semicolon" horiz-adv-x="153" d="M38 -96Q45 -80 53 -53T63 0H17V144H136V38Q136 -10 125 -43T105 -96H38ZM136 295H17V437H136V295Z" />
<glyph unicode="&lt;" glyph-name="less" horiz-adv-x="290" d="M12 344L275 449V355L120 300L275 247V152L12 257V344Z" />
<glyph unicode="=" glyph-name="equal" horiz-adv-x="335" d="M318 287V204H17V287H318ZM318 398V314H17V398H318Z" />
<glyph unicode="&gt;" glyph-name="greater" horiz-adv-x="289" d="M15 449L277 344V257L15 152V247L169 301L15 355V449Z" />
<glyph unicode="?" glyph-name="question" horiz-adv-x="333" d="M97 167V295Q97 313 98 326T103 352T113 377T131 407L166 463Q180 486 183 504T187 548V597Q187 617 182 624T162 632Q147 632 142 624T137 597V483H13V601Q13 632 18 659T38 708T79 741T149 753H176Q257
753 288 714T320 608V556Q320 511 312 479T275 411L226 344Q218 333 214 326T206 309T202 289T201 259V167H97ZM209 0H90V144H209V0Z" />
<glyph unicode="@" glyph-name="at" horiz-adv-x="583" d="M507 -34Q499 -46 483 -64T441 -99T380 -128T299 -140H289Q261 -140 230 -136T169 -118T112 -78T63 -10T30 95T17 245V356Q17 534 87 632T294 730H312Q438 730 502 656T566 425V321Q566 237 556 183T527
96T483 51T430 38H423Q381 38 358 55T321 105Q302 70 279 54T230 38H225Q211 38 197 45T171 67T153 102T147 153L160 446Q161 465 166 482T181 513T205 534T237 542H243Q266 542 285 527T319 488L321 538H444L422 136Q422 128 424 123T435 118Q455 118 468 166T481
318V423Q481 489 470 533T436 604T383 642T312 653H294Q206 653 156 581T105 354V247Q105 141 124 80T171 -12T231 -52T289 -61H299Q332 -61 358 -51T404 -28T437 0T457 25L507 -34ZM316 415Q317 434 314 441T299 448Q288 448 285 440T281 415L268 165Q267 146
270 139T284 131Q301 131 303 166L316 415Z" />
<glyph unicode="A" glyph-name="A" horiz-adv-x="349" d="M208 125H128L116 0H-2L92 744H250L351 0H222L208 125ZM141 253H195L167 508L141 253Z" />
<glyph unicode="B" glyph-name="B" horiz-adv-x="376" d="M21 744H222Q289 744 320 715T351 611V512Q351 489 345 471T330 440T309 419T288 408Q302 404 315 397T339 376T356 342T362 291V167Q362 79 332 40T240 0H21V744ZM154 333V118H191Q208 118 216 126T225
167V288Q225 311 217 322T186 333H154ZM154 630V453H184Q201 453 210 462T220 497V590Q220 610 213 620T186 630H154Z" />
<glyph unicode="C" glyph-name="C" horiz-adv-x="372" d="M224 164V328H356V160Q356 127 349 96T323 41T276 3T202 -12H175Q127 -12 97 2T49 41T25 97T18 164V584Q18 618 26 648T52 702T101 739T175 753H202Q250 753 280 740T327 703T350 651T356 589V464H224V584Q224
605 217 616T190 627Q171 627 164 617T157 584V164Q157 119 191 119Q209 119 216 131T224 164Z" />
<glyph unicode="D" glyph-name="D" horiz-adv-x="374" d="M21 744H210Q285 744 320 707T355 585V165Q355 85 323 43T210 0H21V744ZM154 124H180Q203 124 211 136T219 176V576Q219 603 211 614T184 626H154V124Z" />
<glyph unicode="E" glyph-name="E" horiz-adv-x="315" d="M299 744V613H154V451H268V317H154V134H306V0H21V744H299Z" />
<glyph unicode="F" glyph-name="F" d="M21 744H306V614H154V452H266V318H154V0H21V744Z" />
<glyph unicode="G" glyph-name="G" horiz-adv-x="378" d="M139 -10Q110 -10 88 1T50 33T26 79T18 136V579Q18 613 26 644T52 700T99 738T173 753H200Q249 753 279 739T326 700T348 645T354 580V498H224V581Q224 604 217 616T190 628Q157 628 157 581V167Q157 119
193 119Q232 119 232 165V325H183V450H360V0H279Q276 13 271 33T259 71Q254 62 246 48T224 21T193 -1T149 -10H139Z" />
<glyph unicode="H" glyph-name="H" horiz-adv-x="378" d="M154 0H21V744H154V460H224V744H357V0H224V314H154V0Z" />
<glyph unicode="I" glyph-name="I" horiz-adv-x="175" d="M154 0H21V744H154V0Z" />
<glyph unicode="J" glyph-name="J" horiz-adv-x="354" d="M141 327V155Q141 122 167 122H171Q185 122 190 131T196 155V744H334V151Q334 73 297 33T193 -8H149Q83 -8 48 25T13 137V327H141Z" />
<glyph unicode="K" glyph-name="K" horiz-adv-x="376" d="M154 0H21V744H154V458L241 744H372L267 406L383 0H243L154 315V0Z" />
<glyph unicode="L" glyph-name="L" horiz-adv-x="304" d="M154 744V134H295V0H21V744H154Z" />
<glyph unicode="M" glyph-name="M" horiz-adv-x="461" d="M21 744H185L236 368L287 744H440V0H320V440L254 0H204L137 440V0H21V744Z" />
<glyph unicode="N" glyph-name="N" horiz-adv-x="376" d="M146 744L237 364V744H355V0H242L139 408V0H21V744H146Z" />
<glyph unicode="O" glyph-name="O" horiz-adv-x="385" d="M367 170Q367 88 326 39T209 -11H179Q100 -11 59 35T18 170V563Q18 606 27 641T55 701T104 739T178 753H208Q252 753 282 740T331 701T358 642T367 564V170ZM228 574Q228 623 193 623Q173 623 165 611T157
574V166Q157 149 165 136T194 122Q214 122 221 135T228 166V574Z" />
<glyph unicode="P" glyph-name="P" horiz-adv-x="361" d="M154 298V0H21V744H210Q252 744 279 734T321 705T341 659T347 597V448Q347 379 317 339T217 298H154ZM154 419H179Q202 419 207 431T213 461V585Q213 605 208 617T179 629H154V419Z" />
<glyph unicode="Q" glyph-name="Q" horiz-adv-x="385" d="M367 170Q367 100 337 54T250 -6L314 -155H148V-9Q84 0 51 46T18 170V563Q18 606 27 641T55 701T104 739T178 753H208Q252 753 282 740T331 701T358 642T367 564V170ZM228 574Q228 623 193 623Q173 623
165 611T157 574V166Q157 149 165 136T194 122Q214 122 221 135T228 166V574Z" />
<glyph unicode="R" glyph-name="R" horiz-adv-x="369" d="M154 441H180Q200 441 208 450T217 486V587Q217 611 211 620T184 629H154V441ZM154 0H21V744H231Q292 744 322 712T353 620V501Q353 478 348 461T333 432T314 413T294 401Q302 398 312 392T330 375T345
349T351 313V60Q351 36 354 24T362 5V0H229Q224 6 221 19T217 57V274Q217 300 210 309T182 318H154V0Z" />
<glyph unicode="S" glyph-name="S" horiz-adv-x="359" d="M195 753Q273 753 305 718T338 607V507H210V600Q210 618 205 628T181 639Q164 639 158 629T152 599V582Q152 556 160 535T193 486L269 401Q294 373 310 349T335 302T347 257T350 210V175Q350 91 311 41T188
-9H162Q86 -9 48 30T10 145V279H141V160Q141 115 175 115Q208 115 208 169V183Q208 202 207 217T202 244T189 270T165 299L88 384Q46 429 32 474T17 573V605Q17 677 57 715T168 753H195Z" />
<glyph unicode="T" glyph-name="T" horiz-adv-x="339" d="M331 744V613H236V0H103V613H8V744H331Z" />
<glyph unicode="U" glyph-name="U" horiz-adv-x="379" d="M20 744H157V168Q157 122 190 122Q222 122 222 168V744H359V173Q359 80 318 35T205 -11H172Q99 -11 60 34T20 173V744Z" />
<glyph unicode="V" glyph-name="V" horiz-adv-x="361" d="M-1 744H137L186 245L235 744H362L267 0H98L-1 744Z" />
<glyph unicode="W" glyph-name="W" horiz-adv-x="572" d="M354 744L401 272L445 744H573L478 0H327L288 409L249 0H92L-1 744H137L179 267L227 744H354Z" />
<glyph unicode="X" glyph-name="X" horiz-adv-x="362" d="M10 744H144L185 521L225 744H351L272 398L365 0H231L180 258L127 0H-3L91 398L10 744Z" />
<glyph unicode="Y" glyph-name="Y" horiz-adv-x="331" d="M237 293V0H104V288L-6 744H127L172 480L217 744H337L237 293Z" />
<glyph unicode="Z" glyph-name="Z" horiz-adv-x="334" d="M314 744V626L152 130H325V0H9V120L171 616H20V744H314Z" />
<glyph unicode="[" glyph-name="bracketleft" horiz-adv-x="200" d="M194 713H140V-35H194V-131H34V808H194V713Z" />
<glyph unicode="\" glyph-name="backslash" horiz-adv-x="219" d="M2 808H96L227 -131H133L2 808Z" />
<glyph unicode="]" glyph-name="bracketright" horiz-adv-x="200" d="M6 -35H60V713H6V808H166V-131H6V-35Z" />
<glyph unicode="^" glyph-name="asciicircum" horiz-adv-x="237" d="M235 433H146L117 597L90 433H2L67 744H169L235 433Z" />
<glyph unicode="_" glyph-name="underscore" horiz-adv-x="333" d="M2 -20H331V-115H2V-20Z" />
<glyph unicode="`" glyph-name="grave" horiz-adv-x="342" d="M244 564H142L97 700H203L244 564Z" />
<glyph unicode="a" glyph-name="a" horiz-adv-x="339" d="M182 265Q177 262 167 255T149 240Q142 232 140 224T137 199V134Q137 119 141 111T158 102Q182 102 182 134V265ZM14 205Q14 247 27 272T70 315Q79 321 94 328T124 343T154 357T174 368Q178 370 180 373T182
388V417Q182 434 177 440T160 446H156Q143 446 139 439T134 417V364H20V438Q20 456 25 474T44 508T82 534T146 544H169Q209 544 235 536T277 511T299 474T305 426V129Q305 121 308 118T324 114H338V0H219Q200 0 191 14T182 61Q177 51 169 40T150 18T124 2T91 -5H87Q69
-5 55 3T32 24T19 53T14 88V205Z" />
<glyph unicode="b" glyph-name="b" horiz-adv-x="340" d="M146 744V478Q149 484 157 495T177 517T204 536T237 544H243Q262 544 277 536T302 515T318 484T323 449V111Q323 89 316 68T295 29T264 2T224 -9H222Q201 -9 186 -2T159 17T138 43T121 72Q119 64 117 53T113
30T110 11T108 0H18V744H146ZM146 137Q146 122 151 112T170 102Q183 102 188 111T194 135V399Q194 420 188 427T169 434Q155 434 151 424T146 399V137Z" />
<glyph unicode="c" glyph-name="c" horiz-adv-x="322" d="M309 241V125Q309 97 302 73T278 30T237 0T177 -11H156Q81 -11 48 29T15 129V400Q15 467 47 507T154 548H179Q216 548 241 538T281 511T302 470T309 418V329H191V405Q191 422 187 432T167 443Q153 443
149 434T144 406V135Q144 120 148 111T166 102Q180 102 185 110T190 133V241H309Z" />
<glyph unicode="d" glyph-name="d" horiz-adv-x="344" d="M326 744V0H198V60Q193 51 185 39T166 15T141 -3T109 -11H107Q87 -11 71 -2T42 23T24 60T17 104V437Q17 456 22 475T37 509T62 534T97 544H102Q121 544 136 537T163 520T183 499T198 478V744H326ZM198
392Q198 411 193 422T171 434Q146 434 146 397V138Q146 121 151 111T171 101Q186 101 192 112T198 143V392Z" />
<glyph unicode="e" glyph-name="e" horiz-adv-x="323" d="M174 548Q309 548 309 411V252H138V135Q138 119 143 111T163 102Q176 102 181 111T186 135V215H309V117Q309 54 270 22T174 -10H150Q90 -10 53 22T15 117V413Q15 440 22 464T46 507T88 537T150 548H174ZM138
348H190V413Q190 430 185 439T164 449Q147 449 143 440T138 413V348Z" />
<glyph unicode="f" glyph-name="f" horiz-adv-x="274" d="M265 631H216Q203 631 200 626T196 608V538H265V419H196V0H69V419H6V538H69V670Q69 697 88 720T151 744H265V631Z" />
<glyph unicode="g" glyph-name="g" horiz-adv-x="342" d="M196 60Q181 32 160 11T109 -10Q70 -10 44 18T17 95V416Q17 473 38 507T102 541H103Q137 541 159 521T198 473V538H324V-74Q324 -95 318 -116T296 -155T252 -184T179 -195H161Q120 -195 93 -188T50 -167T28
-136T22 -97V-25H145V-69Q145 -80 149 -86T167 -92H172Q186 -92 191 -86T196 -65V60ZM196 399Q196 412 192 422T171 433Q157 433 152 424T147 400V128Q147 114 152 105T171 96Q183 96 189 105T196 129V399Z" />
<glyph unicode="h" glyph-name="h" horiz-adv-x="344" d="M18 744H146V476Q160 498 184 519T242 540H247Q284 540 305 516T326 456V0H197V398Q197 410 192 419T172 428Q156 428 151 419T146 394V0H18V744Z" />
<glyph unicode="i" glyph-name="i" horiz-adv-x="164" d="M146 0H18V538H146V0ZM146 564H18V690H146V564Z" />
<glyph unicode="j" glyph-name="j" horiz-adv-x="165" d="M147 564H19V690H147V564ZM1 -69Q11 -69 15 -65T19 -48V538H147V-116Q147 -145 128 -166T73 -188H-51V-69H1Z" />
<glyph unicode="k" glyph-name="k" horiz-adv-x="346" d="M221 538H343L248 312L350 0H223L146 239V0H18V744H146V351L221 538Z" />
<glyph unicode="l" glyph-name="l" horiz-adv-x="164" d="M146 0H18V744H146V0Z" />
<glyph unicode="m" glyph-name="m" horiz-adv-x="516" d="M18 538H145V475Q151 484 160 496T181 518T207 535T237 542H241Q274 542 294 522T320 476Q327 487 337 499T359 520T385 536T416 542H421Q459 542 478 517T498 456V0H370V392Q370 408 366 418T346 428Q332
428 328 421T322 400V0H194V392Q194 408 190 418T169 428Q155 428 151 419T146 392V0H18V538Z" />
<glyph unicode="n" glyph-name="n" horiz-adv-x="344" d="M18 538H145V473Q163 500 186 520T242 540H249Q271 540 286 531T310 508T322 478T326 450V0H197V396Q197 410 192 419T172 428Q156 428 151 419T146 392V0H18V538Z" />
<glyph unicode="o" glyph-name="o" horiz-adv-x="341" d="M15 142V397Q15 470 52 509T155 548H185Q251 548 288 510T326 399V144Q326 111 317 83T289 34T244 2T185 -10H155Q118 -10 92 1T48 33T23 82T15 142ZM144 400V144Q144 128 149 117T170 106Q187 106 192
117T197 144V400Q197 417 192 427T170 437Q155 437 150 427T144 400Z" />
<glyph unicode="p" glyph-name="p" horiz-adv-x="344" d="M146 538V479Q160 502 182 523T240 544H242Q287 544 307 512T327 429V108Q327 54 300 22T237 -11H235Q205 -11 184 6T146 47V-188H18V538H146ZM146 130Q146 94 171 94Q185 94 190 103T196 129V402Q196
418 191 427T171 436Q157 436 152 427T146 402V130Z" />
<glyph unicode="q" glyph-name="q" horiz-adv-x="344" d="M326 538V-188H198V59Q193 49 185 37T166 15T140 -3T108 -10H102Q82 -10 67 0T40 25T23 61T17 103V413Q17 438 22 461T38 503T68 533T116 544H124Q143 544 157 537T184 517T205 490T222 460Q227 472 231
493T238 538H326ZM198 398Q198 434 171 434Q157 434 152 424T147 398V131Q147 96 172 96Q186 96 192 106T198 135V398Z" />
<glyph unicode="r" glyph-name="r" horiz-adv-x="308" d="M145 471Q148 479 154 491T171 514T195 533T230 541H236Q268 541 282 523T297 475V280H178V403Q178 417 175 423T162 429Q152 429 149 423T146 403V0H18V538H145V471Z" />
<glyph unicode="s" glyph-name="s" horiz-adv-x="302" d="M289 446V373H175V429Q175 442 171 449T154 457Q141 457 137 449T133 429V418Q133 400 137 390T156 366L227 296Q248 275 261 258T282 223T293 187T296 147V129Q296 101 288 76T264 32T223 2T163 -9H137Q102
-9 78 0T37 25T14 62T7 108V196H125V124Q125 94 148 94H149Q170 94 170 125V137Q170 157 165 172T142 204L74 269Q38 304 26 336T14 411V428Q14 482 45 515T140 548H167Q235 548 262 520T289 446Z" />
<glyph unicode="t" glyph-name="t" horiz-adv-x="267" d="M128 0Q102 0 85 18T67 66V419H6V538H67V716H194V538H256V419H194V143Q194 132 197 127T213 121H256V0H128Z" />
<glyph unicode="u" glyph-name="u" horiz-adv-x="339" d="M321 0H197V66Q179 39 157 19T100 -2H96Q77 -2 63 6T38 28T23 58T18 91V538H147V143Q147 129 151 120T169 110Q184 110 189 120T194 146V538H321V0Z" />
<glyph unicode="v" glyph-name="v" horiz-adv-x="313" d="M-2 538H122L157 195L193 538H315L227 0H80L-2 538Z" />
<glyph unicode="w" glyph-name="w" horiz-adv-x="498" d="M79 0L-2 538H124L159 205L196 538H309L345 201L380 538H500L418 0H285L250 292L216 0H79Z" />
<glyph unicode="x" glyph-name="x" horiz-adv-x="315" d="M3 538H125L160 384L191 538H308L240 293L317 0H195L157 170L117 0H-2L75 289L3 538Z" />
<glyph unicode="y" glyph-name="y" horiz-adv-x="315" d="M-2 538H124L160 241L195 538H318L205 -107Q197 -149 179 -168T131 -188H15V-69H68Q81 -69 84 -63T90 -42L92 -21Q93 -13 93 -8T91 9L-2 538Z" />
<glyph unicode="z" glyph-name="z" horiz-adv-x="270" d="M257 538V432L133 114H264V0H6V107L131 426H16V538H257Z" />
<glyph unicode="{" glyph-name="braceleft" horiz-adv-x="210" d="M172 256Q172 236 168 203T158 133T149 64T144 13Q144 -10 153 -25T187 -40H204V-131H160Q100 -131 68 -101T36 -13Q36 6 41 40T51 112T62 188T67 253Q67 270 61 280T37 291H17V391H37Q54 391
60 399T67 425Q67 453 62 490T52 566T41 639T36 695Q36 752 68 780T160 808H204V716H183Q161 716 153 705T144 673Q144 656 148 623T158 554T167 485T172 432Q172 397 162 375T121 341Q152 329 162 308T172 256Z" />
<glyph unicode="|" glyph-name="bar" horiz-adv-x="171" d="M131 -131H40V808H131V-131Z" />
<glyph unicode="}" glyph-name="braceright" horiz-adv-x="210" d="M37 432Q37 451 41 484T51 554T61 623T66 673Q66 693 58 704T27 716H6V808H50Q108 808 141 780T174 695Q174 674 169 640T158 567T147 491T142 425Q142 408 148 400T172 391H193V291H172Q155
291 149 281T142 253Q142 226 147 189T158 113T169 40T174 -13Q174 -70 142 -100T50 -131H6V-40H22Q48 -40 57 -25T66 13Q66 31 62 64T52 133T42 202T37 256Q37 286 47 307T88 341Q57 353 47 375T37 432Z" />
<glyph unicode="~" glyph-name="asciitilde" horiz-adv-x="284" d="M134 345Q120 361 114 367T102 374Q95 374 95 363V301H11V419Q11 447 27 470T78 494Q100 494 116 484T152 452Q166 436 172 431T182 425Q189 425 189 435V498H273V379Q273 345 254 325T207 304Q185
304 170 313T134 345Z" />
<glyph unicode="&#xa1;" glyph-name="exclamdown" horiz-adv-x="164" d="M18 538H137V394H18V538ZM5 -206L52 371H103L150 -206H5Z" />
<glyph unicode="&#xa2;" glyph-name="cent" horiz-adv-x="327" d="M315 125Q315 98 308 74T284 32T244 2T186 -11V-75H152V-11Q79 -9 47 30T15 129V400Q15 467 47 507T152 548V612H186V548Q257 547 286 510T315 418V330H207V407Q207 421 203 431T186 446V96Q197
101 201 111T206 134V242H315V125ZM132 408V134Q132 121 136 111T152 95V446Q140 442 136 432T132 408Z" />
<glyph unicode="&#xa3;" glyph-name="sterling" horiz-adv-x="415" d="M207 252Q207 204 192 174T151 117H276V249H400V0H8V89Q32 106 47 122T71 155T83 193T86 241Q86 249 85 267T81 310H8V420H70Q67 453 65 480T63 521V590Q63 624 70 654T94 706T140 740T213
753H243Q284 753 310 741T352 708T374 663T380 611V483H257V590Q257 610 252 621T228 632Q210 632 204 622T198 590V508Q198 491 198 469T200 420H326V310H206Q207 293 207 279T207 252Z" />
<glyph unicode="&#xa5;" glyph-name="yen" horiz-adv-x="358" d="M245 0H112V218H13V302H112V328H13V412H98L2 744H133L181 503L226 744H345L257 412H345V328H245V302H345V218H245V0Z" />
<glyph unicode="&#xa6;" glyph-name="brokenbar" horiz-adv-x="171" d="M131 -131H40V343H131V-131ZM131 382H40V808H131V382Z" />
<glyph unicode="&#xa7;" glyph-name="section" horiz-adv-x="405" d="M394 251Q394 200 369 175T309 140Q339 110 348 85T357 20V-45Q357 -114 321 -154T209 -195H178Q41 -195 41 -51V53H169V-46Q169 -80 197 -80Q211 -80 216 -72T222 -44V0Q222 28 215 45T179
87L91 156Q66 175 51 192T26 226T14 264T11 311V344Q11 389 33 413T93 448Q69 475 60 506T51 587V606Q51 637 58 663T84 710T131 741T204 753H222Q300 753 332 718T364 607V528H238V605Q238 626 232 633T211 641Q195 641 190 632T185 605V588Q185 571 186 559T192
538T204 519T225 499Q230 495 241 486T266 467T291 447T311 431Q338 408 354 390T379 355T391 319T394 275V251ZM157 379Q133 374 133 346V329Q132 308 140 295T175 262L243 209Q254 211 260 218T267 249V259Q267 269 265 277T259 292T246 308T224 327L157 379Z"
/>
<glyph unicode="&#xa8;" glyph-name="dieresis" horiz-adv-x="342" d="M159 564H59V670H159V564ZM283 564H183V670H283V564Z" />
<glyph unicode="&#xa9;" glyph-name="copyright" horiz-adv-x="519" d="M256 -11Q200 -11 156 4T82 50T35 129T19 244V502Q19 628 82 691T257 755H269Q381 755 440 693T500 502V244Q500 176 483 128T434 49T360 4T266 -11H256ZM258 56H266Q309 56 339 70T388 111T415
175T424 259V489Q424 532 416 568T390 631T342 673T268 688H258Q169 688 133 636T97 489V259Q97 163 134 110T258 56ZM264 207Q275 207 278 214T281 233V340H385V223Q385 174 355 142T273 110H255Q195 110 167 144T138 232V508Q138 568 166 602T252 636H274Q297
636 317 630T352 611T375 575T384 521V439H280V514Q280 526 278 533T264 540Q253 540 250 534T246 514V233Q246 222 249 215T264 207Z" />
<glyph unicode="&#xaa;" glyph-name="ordfeminine" horiz-adv-x="206" d="M185 526Q185 518 193 518H204V451H133Q122 451 116 459T110 488Q104 476 90 462T55 448Q32 448 21 465T10 503V556Q10 579 18 593T44 618Q49 621 58 626T76 635T93 644T105 650Q110 653
110 662V671Q110 687 98 687H97Q89 687 87 683T85 670V650H13V684Q13 694 16 705T27 726T51 742T89 748H103Q152 748 168 729T185 677V526ZM110 589Q99 584 93 578Q86 571 86 555V527Q86 510 97 510Q110 510 110 528V589Z" />
<glyph unicode="&#xab;" glyph-name="guillemotleft" horiz-adv-x="273" d="M152 119H60L12 256V316L60 451H152L102 286L152 119ZM265 119H172L124 286L172 451H266L222 286L265 119Z" />
<glyph unicode="&#xae;" glyph-name="registered" horiz-adv-x="281" d="M138 399Q81 399 47 433T13 533V619Q13 679 45 714T138 750H147Q204 750 236 715T268 620V533Q268 502 259 477T233 435T194 409T146 399H138ZM138 436H146Q191 436 208 464T226 538V615Q226
656 209 684T147 713H138Q92 713 74 688T55 612V538Q55 493 73 465T138 436ZM134 467H83V687H159Q199 687 199 647V617Q199 595 180 585Q191 582 195 575T199 556V491Q199 478 202 472V467H153Q150 474 150 487V547Q150 554 149 557T140 560H134V467ZM134 599H141Q146
599 148 601T150 612V638Q150 650 141 650H134V599Z" />
<glyph unicode="&#xaf;" glyph-name="macron" horiz-adv-x="342" d="M76 663H267V576H76V663Z" />
<glyph unicode="&#xb0;" glyph-name="degree" horiz-adv-x="210" d="M5 649Q5 691 33 719T106 747Q149 747 177 719T205 649Q205 607 177 580T106 552Q61 552 33 579T5 649ZM69 650Q69 633 78 623T105 612Q122 612 131 622T141 650Q141 666 131 676T105 687Q87
687 78 676T69 650Z" />
<glyph unicode="&#xb4;" glyph-name="acute" horiz-adv-x="342" d="M139 700H244L200 564H97L139 700Z" />
<glyph unicode="&#xb6;" glyph-name="paragraph" horiz-adv-x="377" d="M124 744H373V646H334V0H249V646H215V0H130V342H124Q72 342 43 368T13 445V644Q13 690 43 717T124 744Z" />
<glyph unicode="&#xb7;" glyph-name="periodcentered" horiz-adv-x="149" d="M134 244H15V388H134V244Z" />
<glyph unicode="&#xb8;" glyph-name="cedilla" horiz-adv-x="342" d="M154 -188H93V-125H143Q165 -125 165 -108V-107Q165 -92 143 -92H108V0H168V-36H171Q250 -39 250 -108V-111Q250 -150 223 -169T154 -188Z" />
<glyph unicode="&#xba;" glyph-name="ordmasculine" horiz-adv-x="212" d="M97 448Q13 448 13 540V655Q13 700 35 724T97 748H115Q153 748 176 725T199 656V540Q199 497 176 473T115 448H97ZM92 535Q92 516 106 516Q120 516 120 535V662Q120 681 106 681Q92 681
92 662V535Z" />
<glyph unicode="&#xbb;" glyph-name="guillemotright" horiz-adv-x="272" d="M170 285L120 451H213L260 314V255L212 119H120L170 285ZM51 285L7 451H100L148 285L100 119H7L51 285Z" />
<glyph unicode="&#xbc;" glyph-name="onequarter" horiz-adv-x="379" d="M6 638V704Q38 704 48 716T61 744H133V404H49V638H6ZM358 744L91 0H10L277 744H358ZM174 117Q182 136 193 165T217 225T240 288T260 342H343V131H371V59H343V0H263V59H174V117ZM263 131V218Q261
210 257 198T249 174T240 150T232 131H263Z" />
<glyph unicode="&#xbd;" glyph-name="onehalf" horiz-adv-x="427" d="M6 638V704Q38 704 48 716T61 744H133V404H49V638H6ZM358 744L91 0H10L277 744H358ZM210 0V44Q210 57 212 69T223 97T248 132T290 182Q302 195 308 203T317 219T320 233T321 249V265Q321 282
307 282Q294 282 294 265V212H216V269Q216 284 220 298T234 323T259 341T299 348H314Q342 348 360 342T388 324T403 298T408 269V251Q408 216 394 192T345 136Q324 117 313 107T297 90T290 79T289 68H342V122H416V0H210Z" />
<glyph unicode="&#xbe;" glyph-name="threequarters" horiz-adv-x="432" d="M411 744L144 0H63L330 744H411ZM12 630V666Q12 705 30 727T97 750H109Q154 750 175 731T197 669V646Q197 621 187 609T167 592Q181 587 192 574T204 538V483Q204 444 182 421T112 397H98Q72
397 55 403T28 421T15 446T11 476V527H91V481Q91 464 104 464Q116 464 116 481V530Q116 539 113 542T103 545H64V614H101Q115 614 115 630V668Q115 686 102 686Q89 686 89 668V630H12ZM227 117Q235 136 246 165T270 225T293 288T313 342H396V131H424V59H396V0H316V59H227V117ZM316
131V218Q314 210 310 198T302 174T293 150T285 131H316Z" />
<glyph unicode="&#xbf;" glyph-name="questiondown" horiz-adv-x="333" d="M232 371V243Q232 225 231 212T226 186T216 161T198 131L163 75Q149 52 146 34T142 -10V-59Q142 -79 147 -86T167 -94Q182 -94 187 -86T192 -59V55H316V-63Q316 -94 311 -121T291 -170T250
-203T180 -215H153Q72 -215 41 -176T9 -70V-18Q9 27 17 59T54 127L103 194Q111 205 115 212T123 229T127 249T128 279V371H232ZM120 538H239V394H120V538Z" />
<glyph unicode="&#xc0;" glyph-name="Agrave" horiz-adv-x="349" d="M208 125H128L116 0H-2L92 744H250L351 0H222L208 125ZM141 253H195L167 508L141 253ZM481 770H377L333 885H438L481 770Z" />
<glyph unicode="&#xc1;" glyph-name="Aacute" horiz-adv-x="349" d="M208 125H128L116 0H-2L92 744H250L351 0H222L208 125ZM141 253H195L167 508L141 253ZM161 885H267L222 770H118L161 885Z" />
<glyph unicode="&#xc2;" glyph-name="Acircumflex" horiz-adv-x="349" d="M208 125H128L116 0H-2L92 744H250L351 0H222L208 125ZM141 253H195L167 508L141 253ZM287 770H198L170 817L143 770H54L119 885H221L287 770Z" />
<glyph unicode="&#xc3;" glyph-name="Atilde" horiz-adv-x="349" d="M208 125H128L116 0H-2L92 744H250L351 0H222L208 125ZM141 253H195L167 508L141 253ZM170 787Q161 791 156 793T145 796Q137 796 137 785V769H65V803Q65 841 80 860T122 880Q137 880 149 877T176
867Q189 861 194 859T203 857Q209 857 209 867V883H281V849Q281 807 263 790T224 773Q211 773 199 776T170 787Z" />
<glyph unicode="&#xc4;" glyph-name="Adieresis" horiz-adv-x="349" d="M208 125H128L116 0H-2L92 744H250L351 0H222L208 125ZM141 253H195L167 508L141 253ZM538 770H438V876H538V770ZM413 770H313V876H413V770Z" />
<glyph unicode="&#xc5;" glyph-name="Aring" horiz-adv-x="349" d="M208 125H128L116 0H-2L92 744H250L351 0H222L208 125ZM141 253H195L167 508L141 253ZM425 811Q440 811 448 820T457 844Q457 858 449 867T425 877Q410 877 402 868T393 844Q393 830 401 821T425
811ZM425 765Q390 765 368 787T345 844Q345 879 367 901T425 923Q460 923 482 901T505 844Q505 809 483 787T425 765Z" />
<glyph unicode="&#xc6;" glyph-name="AE" horiz-adv-x="515" d="M225 0V131H144L122 0H-6L134 744H496V612H358V451H465V316H358V134H506V0H225ZM225 258V602L166 258H225Z" />
<glyph unicode="&#xc7;" glyph-name="Ccedilla" horiz-adv-x="372" d="M224 164V328H356V160Q356 127 349 96T323 41T276 3T202 -12H175Q127 -12 97 2T49 41T25 97T18 164V584Q18 618 26 648T52 702T101 739T175 753H202Q250 753 280 740T327 703T350 651T356
589V464H224V584Q224 605 217 616T190 627Q171 627 164 617T157 584V164Q157 119 191 119Q209 119 216 131T224 164ZM180 -188H119V-125H169Q191 -125 191 -108V-107Q191 -92 169 -92H134V0H194V-36H197Q276 -39 276 -108V-111Q276 -150 249 -169T180 -188Z" />
<glyph unicode="&#xc8;" glyph-name="Egrave" horiz-adv-x="315" d="M299 744V613H154V451H268V317H154V134H306V0H21V744H299ZM475 770H371L327 885H432L475 770Z" />
<glyph unicode="&#xc9;" glyph-name="Eacute" horiz-adv-x="315" d="M299 744V613H154V451H268V317H154V134H306V0H21V744H299ZM151 885H257L212 770H108L151 885Z" />
<glyph unicode="&#xca;" glyph-name="Ecircumflex" horiz-adv-x="315" d="M299 744V613H154V451H268V317H154V134H306V0H21V744H299ZM535 770H446L418 817L391 770H302L367 885H469L535 770Z" />
<glyph unicode="&#xcb;" glyph-name="Edieresis" horiz-adv-x="315" d="M299 744V613H154V451H268V317H154V134H306V0H21V744H299ZM531 770H431V876H531V770ZM406 770H306V876H406V770Z" />
<glyph unicode="&#xcc;" glyph-name="Igrave" horiz-adv-x="175" d="M154 0H21V744H154V0ZM396 770H292L248 885H353L396 770Z" />
<glyph unicode="&#xcd;" glyph-name="Iacute" horiz-adv-x="175" d="M154 0H21V744H154V0ZM334 885H440L395 770H291L334 885Z" />
<glyph unicode="&#xce;" glyph-name="Icircumflex" horiz-adv-x="175" d="M154 0H21V744H154V0ZM458 1024H369L341 1071L314 1024H225L290 1139H392L458 1024Z" />
<glyph unicode="&#xcf;" glyph-name="Idieresis" horiz-adv-x="175" d="M154 0H21V744H154V0ZM456 770H356V876H456V770ZM331 770H231V876H331V770Z" />
<glyph unicode="&#xd0;" glyph-name="Eth" horiz-adv-x="377" d="M25 744H214Q289 744 324 707T359 585V165Q359 85 327 43T214 0H25V325H0V443H25V744ZM158 124H184Q207 124 215 136T223 176V576Q223 603 215 614T188 626H158V443H201V325H158V124Z" />
<glyph unicode="&#xd1;" glyph-name="Ntilde" horiz-adv-x="376" d="M146 744L237 364V744H355V0H242L139 408V0H21V744H146ZM195 787Q186 791 181 793T170 796Q162 796 162 785V769H90V803Q90 841 105 860T147 880Q162 880 174 877T201 867Q214 861 219 859T228
857Q234 857 234 867V883H306V849Q306 807 288 790T249 773Q236 773 224 776T195 787Z" />
<glyph unicode="&#xd2;" glyph-name="Ograve" horiz-adv-x="385" d="M367 170Q367 88 326 39T209 -11H179Q100 -11 59 35T18 170V563Q18 606 27 641T55 701T104 739T178 753H208Q252 753 282 740T331 701T358 642T367 564V170ZM228 574Q228 623 193 623Q173 623
165 611T157 574V166Q157 149 165 136T194 122Q214 122 221 135T228 166V574ZM245 771H141L97 886H202L245 771Z" />
<glyph unicode="&#xd3;" glyph-name="Oacute" horiz-adv-x="385" d="M367 170Q367 88 326 39T209 -11H179Q100 -11 59 35T18 170V563Q18 606 27 641T55 701T104 739T178 753H208Q252 753 282 740T331 701T358 642T367 564V170ZM228 574Q228 623 193 623Q173 623
165 611T157 574V166Q157 149 165 136T194 122Q214 122 221 135T228 166V574ZM183 886H289L244 771H140L183 886Z" />
<glyph unicode="&#xd4;" glyph-name="Ocircumflex" horiz-adv-x="385" d="M367 170Q367 88 326 39T209 -11H179Q100 -11 59 35T18 170V563Q18 606 27 641T55 701T104 739T178 753H208Q252 753 282 740T331 701T358 642T367 564V170ZM228 574Q228 623 193 623Q173
623 165 611T157 574V166Q157 149 165 136T194 122Q214 122 221 135T228 166V574ZM309 771H220L192 818L165 771H76L141 886H243L309 771Z" />
<glyph unicode="&#xd5;" glyph-name="Otilde" horiz-adv-x="385" d="M367 170Q367 88 326 39T209 -11H179Q100 -11 59 35T18 170V563Q18 606 27 641T55 701T104 739T178 753H208Q252 753 282 740T331 701T358 642T367 564V170ZM228 574Q228 623 193 623Q173 623
165 611T157 574V166Q157 149 165 136T194 122Q214 122 221 135T228 166V574ZM190 788Q181 792 176 794T165 797Q157 797 157 786V770H85V804Q85 842 100 861T142 881Q157 881 169 878T196 868Q209 862 214 860T223 858Q229 858 229 868V884H301V850Q301 808 283
791T244 774Q231 774 219 777T190 788Z" />
<glyph unicode="&#xd6;" glyph-name="Odieresis" horiz-adv-x="385" d="M367 170Q367 88 326 39T209 -11H179Q100 -11 59 35T18 170V563Q18 606 27 641T55 701T104 739T178 753H208Q252 753 282 740T331 701T358 642T367 564V170ZM228 574Q228 623 193 623Q173
623 165 611T157 574V166Q157 149 165 136T194 122Q214 122 221 135T228 166V574ZM305 771H205V877H305V771ZM180 771H80V877H180V771Z" />
<glyph unicode="&#xd7;" glyph-name="multiply" horiz-adv-x="315" d="M157 236L73 149L10 209L95 298L9 386L74 452L159 364L243 452L306 390L220 301L306 214L243 149L157 236Z" />
<glyph unicode="&#xd8;" glyph-name="Oslash" horiz-adv-x="381" d="M363 170Q363 88 322 39T205 -11H180Q122 -11 84 24L74 0H0L33 82Q26 100 22 122T18 170V563Q18 606 27 641T55 701T104 739T178 753H203Q260 753 296 720L306 744H380L347 661Q363 625 363
564V170ZM192 122Q214 122 221 135T228 166V394L153 188V166Q153 149 161 136T192 122ZM191 623Q170 623 162 611T153 574V350L228 559V574Q228 623 191 623Z" />
<glyph unicode="&#xd9;" glyph-name="Ugrave" horiz-adv-x="379" d="M20 744H157V168Q157 122 190 122Q222 122 222 168V744H359V173Q359 80 318 35T205 -11H172Q99 -11 60 34T20 173V744ZM499 770H395L351 885H456L499 770Z" />
<glyph unicode="&#xda;" glyph-name="Uacute" horiz-adv-x="379" d="M20 744H157V168Q157 122 190 122Q222 122 222 168V744H359V173Q359 80 318 35T205 -11H172Q99 -11 60 34T20 173V744ZM179 885H285L240 770H136L179 885Z" />
<glyph unicode="&#xdb;" glyph-name="Ucircumflex" horiz-adv-x="379" d="M20 744H157V168Q157 122 190 122Q222 122 222 168V744H359V173Q359 80 318 35T205 -11H172Q99 -11 60 34T20 173V744ZM306 770H217L189 817L162 770H73L138 885H240L306 770Z" />
<glyph unicode="&#xdc;" glyph-name="Udieresis" horiz-adv-x="379" d="M20 744H157V168Q157 122 190 122Q222 122 222 168V744H359V173Q359 80 318 35T205 -11H172Q99 -11 60 34T20 173V744ZM302 770H202V876H302V770ZM177 770H77V876H177V770Z" />
<glyph unicode="&#xdd;" glyph-name="Yacute" horiz-adv-x="331" d="M237 293V0H104V288L-6 744H127L172 480L217 744H337L237 293ZM159 885H265L220 770H116L159 885Z" />
<glyph unicode="&#xde;" glyph-name="Thorn" horiz-adv-x="366" d="M154 188V0H21V744H154V594H223Q289 594 321 564T353 461V330Q353 255 319 222T223 188H154ZM154 298H185Q204 298 211 307T219 338V444Q219 465 212 475T184 485H154V298Z" />
<glyph unicode="&#xdf;" glyph-name="germandbls" horiz-adv-x="342" d="M267 443Q298 432 313 410T329 342V130Q329 66 304 33T209 0H162V119H178Q197 119 197 144V324Q197 336 193 342T177 348H162V466H176Q184 466 189 472T195 494V604Q195 616 191 625T172
634H166Q154 634 150 626T145 605V0H18V606Q18 669 50 706T155 744H182Q255 744 286 711T318 611V525Q318 491 302 470T267 443Z" />
<glyph unicode="&#xe0;" glyph-name="agrave" horiz-adv-x="339" d="M182 265Q177 262 167 255T149 240Q142 232 140 224T137 199V134Q137 119 141 111T158 102Q182 102 182 134V265ZM14 205Q14 247 27 272T70 315Q79 321 94 328T124 343T154 357T174 368Q178
370 180 373T182 388V417Q182 434 177 440T160 446H156Q143 446 139 439T134 417V364H20V438Q20 456 25 474T44 508T82 534T146 544H169Q209 544 235 536T277 511T299 474T305 426V129Q305 121 308 118T324 114H338V0H219Q200 0 191 14T182 61Q177 51 169 40T150
18T124 2T91 -5H87Q69 -5 55 3T32 24T19 53T14 88V205ZM467 564H365L320 700H426L467 564Z" />
<glyph unicode="&#xe1;" glyph-name="aacute" horiz-adv-x="339" d="M182 265Q177 262 167 255T149 240Q142 232 140 224T137 199V134Q137 119 141 111T158 102Q182 102 182 134V265ZM14 205Q14 247 27 272T70 315Q79 321 94 328T124 343T154 357T174 368Q178
370 180 373T182 388V417Q182 434 177 440T160 446H156Q143 446 139 439T134 417V364H20V438Q20 456 25 474T44 508T82 534T146 544H169Q209 544 235 536T277 511T299 474T305 426V129Q305 121 308 118T324 114H338V0H219Q200 0 191 14T182 61Q177 51 169 40T150
18T124 2T91 -5H87Q69 -5 55 3T32 24T19 53T14 88V205ZM150 700H255L211 564H108L150 700Z" />
<glyph unicode="&#xe2;" glyph-name="acircumflex" horiz-adv-x="339" d="M182 265Q177 262 167 255T149 240Q142 232 140 224T137 199V134Q137 119 141 111T158 102Q182 102 182 134V265ZM14 205Q14 247 27 272T70 315Q79 321 94 328T124 343T154 357T174 368Q178
370 180 373T182 388V417Q182 434 177 440T160 446H156Q143 446 139 439T134 417V364H20V438Q20 456 25 474T44 508T82 534T146 544H169Q209 544 235 536T277 511T299 474T305 426V129Q305 121 308 118T324 114H338V0H219Q200 0 191 14T182 61Q177 51 169 40T150
18T124 2T91 -5H87Q69 -5 55 3T32 24T19 53T14 88V205ZM532 564H441L417 626L392 564H303L364 700H470L532 564Z" />
<glyph unicode="&#xe3;" glyph-name="atilde" horiz-adv-x="339" d="M182 265Q177 262 167 255T149 240Q142 232 140 224T137 199V134Q137 119 141 111T158 102Q182 102 182 134V265ZM14 205Q14 247 27 272T70 315Q79 321 94 328T124 343T154 357T174 368Q178
370 180 373T182 388V417Q182 434 177 440T160 446H156Q143 446 139 439T134 417V364H20V438Q20 456 25 474T44 508T82 534T146 544H169Q209 544 235 536T277 511T299 474T305 426V129Q305 121 308 118T324 114H338V0H219Q200 0 191 14T182 61Q177 51 169 40T150
18T124 2T91 -5H87Q69 -5 55 3T32 24T19 53T14 88V205ZM522 678V622Q522 597 508 580T468 563Q451 563 440 567T408 582Q397 587 393 589T385 591Q380 591 379 588T378 579V563H306V610Q306 640 320 659T361 678Q378 678 389 674T420 660Q431 655 435 654T443 652Q449
652 449 662V678H522Z" />
<glyph unicode="&#xe4;" glyph-name="adieresis" horiz-adv-x="339" d="M182 265Q177 262 167 255T149 240Q142 232 140 224T137 199V134Q137 119 141 111T158 102Q182 102 182 134V265ZM14 205Q14 247 27 272T70 315Q79 321 94 328T124 343T154 357T174 368Q178
370 180 373T182 388V417Q182 434 177 440T160 446H156Q143 446 139 439T134 417V364H20V438Q20 456 25 474T44 508T82 534T146 544H169Q209 544 235 536T277 511T299 474T305 426V129Q305 121 308 118T324 114H338V0H219Q200 0 191 14T182 61Q177 51 169 40T150
18T124 2T91 -5H87Q69 -5 55 3T32 24T19 53T14 88V205ZM402 564H302V670H402V564ZM526 564H426V670H526V564Z" />
<glyph unicode="&#xe5;" glyph-name="aring" horiz-adv-x="339" d="M182 265Q177 262 167 255T149 240Q142 232 140 224T137 199V134Q137 119 141 111T158 102Q182 102 182 134V265ZM14 205Q14 247 27 272T70 315Q79 321 94 328T124 343T154 357T174 368Q178 370
180 373T182 388V417Q182 434 177 440T160 446H156Q143 446 139 439T134 417V364H20V438Q20 456 25 474T44 508T82 534T146 544H169Q209 544 235 536T277 511T299 474T305 426V129Q305 121 308 118T324 114H338V0H219Q200 0 191 14T182 61Q177 51 169 40T150 18T124
2T91 -5H87Q69 -5 55 3T32 24T19 53T14 88V205ZM413 608Q428 608 436 617T445 641Q445 655 437 664T413 674Q398 674 390 665T381 641Q381 627 389 618T413 608ZM413 562Q378 562 356 584T333 641Q333 676 355 698T413 720Q448 720 470 698T493 641Q493 606 471
584T413 562Z" />
<glyph unicode="&#xe6;" glyph-name="ae" horiz-adv-x="489" d="M193 63Q177 36 152 16T92 -5H88Q69 -5 55 3T32 24T19 53T14 88V186Q14 228 27 253T70 296Q79 302 94 309T124 324T154 338T174 349Q178 351 180 354T182 369V417Q182 434 177 440T160 446H156Q143
446 139 439T134 417V345H20V438Q20 456 25 474T44 508T82 534T146 544H169Q207 544 224 535T249 517Q255 525 273 536T329 548H344Q407 548 441 515T476 401V251H305V134Q305 117 310 110T329 102Q344 102 349 111T354 134V214H476V124Q476 63 442 27T339 -10H318Q287
-10 265 -3T229 14T206 38T193 63ZM182 246Q177 243 167 236T149 221Q142 213 140 205T137 180V134Q137 119 141 111T158 102Q182 102 182 134V246ZM305 347H357V416Q357 430 352 439T331 448Q305 448 305 417V347Z" />
<glyph unicode="&#xe7;" glyph-name="ccedilla" horiz-adv-x="322" d="M309 241V125Q309 97 302 73T278 30T237 0T177 -11H156Q81 -11 48 29T15 129V400Q15 467 47 507T154 548H179Q216 548 241 538T281 511T302 470T309 418V329H191V405Q191 422 187 432T167
443Q153 443 149 434T144 406V135Q144 120 148 111T166 102Q180 102 185 110T190 133V241H309ZM158 -188H97V-125H147Q169 -125 169 -108V-107Q169 -92 147 -92H112V0H172V-36H175Q254 -39 254 -108V-111Q254 -150 227 -169T158 -188Z" />
<glyph unicode="&#xe8;" glyph-name="egrave" horiz-adv-x="323" d="M174 548Q309 548 309 411V252H138V135Q138 119 143 111T163 102Q176 102 181 111T186 135V215H309V117Q309 54 270 22T174 -10H150Q90 -10 53 22T15 117V413Q15 440 22 464T46 507T88 537T150
548H174ZM138 348H190V413Q190 430 185 439T164 449Q147 449 143 440T138 413V348ZM469 566H367L322 702H428L469 566Z" />
<glyph unicode="&#xe9;" glyph-name="eacute" horiz-adv-x="323" d="M174 548Q309 548 309 411V252H138V135Q138 119 143 111T163 102Q176 102 181 111T186 135V215H309V117Q309 54 270 22T174 -10H150Q90 -10 53 22T15 117V413Q15 440 22 464T46 507T88 537T150
548H174ZM138 348H190V413Q190 430 185 439T164 449Q147 449 143 440T138 413V348ZM153 702H258L214 566H111L153 702Z" />
<glyph unicode="&#xea;" glyph-name="ecircumflex" horiz-adv-x="323" d="M174 548Q309 548 309 411V252H138V135Q138 119 143 111T163 102Q176 102 181 111T186 135V215H309V117Q309 54 270 22T174 -10H150Q90 -10 53 22T15 117V413Q15 440 22 464T46 507T88
537T150 548H174ZM138 348H190V413Q190 430 185 439T164 449Q147 449 143 440T138 413V348ZM534 566H443L419 628L394 566H305L366 702H472L534 566Z" />
<glyph unicode="&#xeb;" glyph-name="edieresis" horiz-adv-x="323" d="M174 548Q309 548 309 411V252H138V135Q138 119 143 111T163 102Q176 102 181 111T186 135V215H309V117Q309 54 270 22T174 -10H150Q90 -10 53 22T15 117V413Q15 440 22 464T46 507T88 537T150
548H174ZM138 348H190V413Q190 430 185 439T164 449Q147 449 143 440T138 413V348ZM407 566H307V672H407V566ZM531 566H431V672H531V566Z" />
<glyph unicode="&#xec;" glyph-name="igrave" horiz-adv-x="164" d="M146 0H18V538H146V0ZM390 564H288L243 700H349L390 564Z" />
<glyph unicode="&#xed;" glyph-name="iacute" horiz-adv-x="164" d="M146 0H18V538H146V0ZM329 700H434L390 564H287L329 700Z" />
<glyph unicode="&#xee;" glyph-name="icircumflex" horiz-adv-x="164" d="M187 564H101L82 630L62 564H-23L29 700H135L187 564ZM146 0H18V538H146V0Z" />
<glyph unicode="&#xef;" glyph-name="idieresis" horiz-adv-x="164" d="M71 564H-22V670H71V564ZM186 564H93V670H186V564ZM146 0H18V538H146V0Z" />
<glyph unicode="&#xf0;" glyph-name="eth" horiz-adv-x="341" d="M57 635L115 661L74 744H192L212 705L285 738V652L247 635L282 567Q295 542 303 522T317 483T324 442T326 393V144Q326 111 317 83T289 34T245 2T186 -10H154Q118 -10 92 1T48 33T23 82T15 142V429Q15
480 40 510T100 540H102Q134 540 158 523T205 479L149 591L57 549V635ZM197 400Q197 417 192 427T170 437Q155 437 150 427T144 400V144Q144 128 149 117T170 106Q187 106 192 117T197 144V400Z" />
<glyph unicode="&#xf1;" glyph-name="ntilde" horiz-adv-x="344" d="M18 538H145V473Q163 500 186 520T242 540H249Q271 540 286 531T310 508T322 478T326 450V0H197V396Q197 410 192 419T172 428Q156 428 151 419T146 392V0H18V538ZM280 678V622Q280 597 266
580T226 563Q209 563 198 567T166 582Q155 587 151 589T143 591Q138 591 137 588T136 579V563H64V610Q64 640 78 659T119 678Q136 678 147 674T178 660Q189 655 193 654T201 652Q207 652 207 662V678H280Z" />
<glyph unicode="&#xf2;" glyph-name="ograve" horiz-adv-x="341" d="M15 142V397Q15 470 52 509T155 548H185Q251 548 288 510T326 399V144Q326 111 317 83T289 34T244 2T185 -10H155Q118 -10 92 1T48 33T23 82T15 142ZM144 400V144Q144 128 149 117T170 106Q187
106 192 117T197 144V400Q197 417 192 427T170 437Q155 437 150 427T144 400ZM477 566H375L330 702H436L477 566Z" />
<glyph unicode="&#xf3;" glyph-name="oacute" horiz-adv-x="341" d="M15 142V397Q15 470 52 509T155 548H185Q251 548 288 510T326 399V144Q326 111 317 83T289 34T244 2T185 -10H155Q118 -10 92 1T48 33T23 82T15 142ZM144 400V144Q144 128 149 117T170 106Q187
106 192 117T197 144V400Q197 417 192 427T170 437Q155 437 150 427T144 400ZM161 702H266L222 566H119L161 702Z" />
<glyph unicode="&#xf4;" glyph-name="ocircumflex" horiz-adv-x="341" d="M15 142V397Q15 470 52 509T155 548H185Q251 548 288 510T326 399V144Q326 111 317 83T289 34T244 2T185 -10H155Q118 -10 92 1T48 33T23 82T15 142ZM144 400V144Q144 128 149 117T170
106Q187 106 192 117T197 144V400Q197 417 192 427T170 437Q155 437 150 427T144 400ZM541 566H450L426 628L401 566H312L373 702H479L541 566Z" />
<glyph unicode="&#xf5;" glyph-name="otilde" horiz-adv-x="341" d="M15 142V397Q15 470 52 509T155 548H185Q251 548 288 510T326 399V144Q326 111 317 83T289 34T244 2T185 -10H155Q118 -10 92 1T48 33T23 82T15 142ZM144 400V144Q144 128 149 117T170 106Q187
106 192 117T197 144V400Q197 417 192 427T170 437Q155 437 150 427T144 400ZM534 680V624Q534 599 520 582T480 565Q463 565 452 569T420 584Q409 589 405 591T397 593Q392 593 391 590T390 581V565H318V612Q318 642 332 661T373 680Q390 680 401 676T432 662Q443
657 447 656T455 654Q461 654 461 664V680H534Z" />
<glyph unicode="&#xf6;" glyph-name="odieresis" horiz-adv-x="341" d="M15 142V397Q15 470 52 509T155 548H185Q251 548 288 510T326 399V144Q326 111 317 83T289 34T244 2T185 -10H155Q118 -10 92 1T48 33T23 82T15 142ZM144 400V144Q144 128 149 117T170 106Q187
106 192 117T197 144V400Q197 417 192 427T170 437Q155 437 150 427T144 400ZM159 566H59V672H159V566ZM283 566H183V672H283V566Z" />
<glyph unicode="&#xf7;" glyph-name="divide" horiz-adv-x="343" d="M328 346V255H15V346H328ZM223 375H120V478H223V375ZM223 120H120V223H223V120Z" />
<glyph unicode="&#xf8;" glyph-name="oslash" horiz-adv-x="336" d="M15 142V397Q15 470 52 509T155 548H181Q210 548 231 540T268 519L278 538H344L309 469Q314 455 317 437T321 399V144Q321 111 312 83T284 34T240 2T181 -10H155Q127 -10 106 -1T70 20L60 0H-7L29
70Q21 86 18 104T15 142ZM196 401Q196 418 191 428T168 438Q152 438 146 428T140 401V264L196 387V401ZM168 105Q185 105 190 116T196 143V272L140 151V143Q140 127 145 116T168 105Z" />
<glyph unicode="&#xf9;" glyph-name="ugrave" horiz-adv-x="339" d="M321 0H197V66Q179 39 157 19T100 -2H96Q77 -2 63 6T38 28T23 58T18 91V538H147V143Q147 129 151 120T169 110Q184 110 189 120T194 146V538H321V0ZM480 564H378L333 700H439L480 564Z" />
<glyph unicode="&#xfa;" glyph-name="uacute" horiz-adv-x="339" d="M321 0H197V66Q179 39 157 19T100 -2H96Q77 -2 63 6T38 28T23 58T18 91V538H147V143Q147 129 151 120T169 110Q184 110 189 120T194 146V538H321V0ZM161 700H266L222 564H119L161 700Z" />
<glyph unicode="&#xfb;" glyph-name="ucircumflex" horiz-adv-x="339" d="M321 0H197V66Q179 39 157 19T100 -2H96Q77 -2 63 6T38 28T23 58T18 91V538H147V143Q147 129 151 120T169 110Q184 110 189 120T194 146V538H321V0ZM540 564H449L425 626L400 564H311L372
700H478L540 564Z" />
<glyph unicode="&#xfc;" glyph-name="udieresis" horiz-adv-x="339" d="M321 0H197V66Q179 39 157 19T100 -2H96Q77 -2 63 6T38 28T23 58T18 91V538H147V143Q147 129 151 120T169 110Q184 110 189 120T194 146V538H321V0ZM414 564H314V670H414V564ZM538 564H438V670H538V564Z"
/>
<glyph unicode="&#xfd;" glyph-name="yacute" horiz-adv-x="315" d="M-2 538H124L160 241L195 538H318L205 -107Q197 -149 179 -168T131 -188H15V-69H68Q81 -69 84 -63T90 -42L92 -21Q93 -13 93 -8T91 9L-2 538ZM147 700H252L208 564H105L147 700Z" />
<glyph unicode="&#xfe;" glyph-name="thorn" horiz-adv-x="344" d="M146 744V478Q160 503 183 523T243 544H245Q287 544 307 512T327 429V108Q327 54 300 22T237 -11H235Q205 -11 184 6T146 47V-188H18V744H146ZM146 130Q146 94 171 94Q185 94 190 103T196 129V402Q196
418 191 427T171 436Q157 436 152 427T146 402V130Z" />
<glyph unicode="&#xff;" glyph-name="ydieresis" horiz-adv-x="315" d="M-2 538H124L160 241L195 538H318L205 -107Q197 -149 179 -168T131 -188H15V-69H68Q81 -69 84 -63T90 -42L92 -21Q93 -13 93 -8T91 9L-2 538ZM403 564H303V670H403V564ZM527 564H427V670H527V564Z" />
<glyph unicode="&#x100;" glyph-name="Amacron" horiz-adv-x="349" d="M208 125H128L116 0H-2L92 744H250L351 0H222L208 125ZM141 253H195L167 508L141 253ZM330 865H523V777H330V865Z" />
<glyph unicode="&#x101;" glyph-name="amacron" horiz-adv-x="339" d="M182 265Q177 262 167 255T149 240Q142 232 140 224T137 199V134Q137 119 141 111T158 102Q182 102 182 134V265ZM14 205Q14 247 27 272T70 315Q79 321 94 328T124 343T154 357T174 368Q178
370 180 373T182 388V417Q182 434 177 440T160 446H156Q143 446 139 439T134 417V364H20V438Q20 456 25 474T44 508T82 534T146 544H169Q209 544 235 536T277 511T299 474T305 426V129Q305 121 308 118T324 114H338V0H219Q200 0 191 14T182 61Q177 51 169 40T150
18T124 2T91 -5H87Q69 -5 55 3T32 24T19 53T14 88V205ZM319 663H510V576H319V663Z" />
<glyph unicode="&#x102;" glyph-name="Abreve" horiz-adv-x="349" d="M208 125H128L116 0H-2L92 744H250L351 0H222L208 125ZM141 253H195L167 508L141 253ZM428 767H424Q378 767 348 794T317 870V875H402V872Q402 861 408 854T425 846H427Q438 846 444 853T450
872V875H534V870Q534 822 503 795T428 767Z" />
<glyph unicode="&#x103;" glyph-name="abreve" horiz-adv-x="339" d="M182 265Q177 262 167 255T149 240Q142 232 140 224T137 199V134Q137 119 141 111T158 102Q182 102 182 134V265ZM14 205Q14 247 27 272T70 315Q79 321 94 328T124 343T154 357T174 368Q178
370 180 373T182 388V417Q182 434 177 440T160 446H156Q143 446 139 439T134 417V364H20V438Q20 456 25 474T44 508T82 534T146 544H169Q209 544 235 536T277 511T299 474T305 426V129Q305 121 308 118T324 114H338V0H219Q200 0 191 14T182 61Q177 51 169 40T150
18T124 2T91 -5H87Q69 -5 55 3T32 24T19 53T14 88V205ZM410 563H407Q359 563 329 590T299 672V680H384V674Q384 641 408 641H409Q433 641 433 674V680H516V672Q516 618 485 591T410 563Z" />
<glyph unicode="&#x104;" glyph-name="Aogonek" horiz-adv-x="349" d="M208 125H128L116 0H-2L92 744H250L351 0H222L208 125ZM141 253H195L167 508L141 253ZM215 -109Q215 -81 235 -55T289 0H351Q326 -31 317 -48T307 -84V-88Q307 -108 333 -108H351V-188H293Q261
-188 238 -172T215 -124V-109Z" />
<glyph unicode="&#x105;" glyph-name="aogonek" horiz-adv-x="339" d="M182 265Q177 262 167 255T149 240Q142 232 140 224T137 199V134Q137 119 141 111T158 102Q182 102 182 134V265ZM14 205Q14 247 27 272T70 315Q79 321 94 328T124 343T154 357T174 368Q178
370 180 373T182 388V417Q182 434 177 440T160 446H156Q143 446 139 439T134 417V364H20V438Q20 456 25 474T44 508T82 534T146 544H169Q209 544 235 536T277 511T299 474T305 426V129Q305 121 308 118T324 114H338V0H219Q200 0 191 14T182 61Q177 51 169 40T150
18T124 2T91 -5H87Q69 -5 55 3T32 24T19 53T14 88V205ZM202 -109Q202 -81 222 -55T276 0H338Q313 -31 304 -48T294 -84V-88Q294 -108 320 -108H338V-188H280Q248 -188 225 -172T202 -124V-109Z" />
<glyph unicode="&#x106;" glyph-name="Cacute" horiz-adv-x="372" d="M183 885H289L244 771H140L183 885ZM224 164V328H356V160Q356 127 349 96T323 41T276 3T202 -12H175Q127 -12 97 2T49 41T25 97T18 164V584Q18 618 26 648T52 702T101 739T175 753H202Q250
753 280 740T327 703T350 651T356 589V464H224V584Q224 605 217 616T190 627Q171 627 164 617T157 584V164Q157 119 191 119Q209 119 216 131T224 164Z" />
<glyph unicode="&#x107;" glyph-name="cacute" horiz-adv-x="322" d="M156 700H261L217 566H114L156 700ZM309 241V125Q309 97 302 73T278 30T237 0T177 -11H156Q81 -11 48 29T15 129V400Q15 467 47 507T154 548H179Q216 548 241 538T281 511T302 470T309 418V329H191V405Q191
422 187 432T167 443Q153 443 149 434T144 406V135Q144 120 148 111T166 102Q180 102 185 110T190 133V241H309Z" />
<glyph unicode="&#x108;" glyph-name="Ccircumflex" horiz-adv-x="372" d="M307 771H218L190 817L163 771H74L139 885H241L307 771ZM224 164V328H356V160Q356 127 349 96T323 41T276 3T202 -12H175Q127 -12 97 2T49 41T25 97T18 164V584Q18 618 26 648T52 702T101
739T175 753H202Q250 753 280 740T327 703T350 651T356 589V464H224V584Q224 605 217 616T190 627Q171 627 164 617T157 584V164Q157 119 191 119Q209 119 216 131T224 164Z" />
<glyph unicode="&#x109;" glyph-name="ccircumflex" horiz-adv-x="322" d="M281 566H190L166 626L141 566H52L113 700H219L281 566ZM309 241V125Q309 97 302 73T278 30T237 0T177 -11H156Q81 -11 48 29T15 129V400Q15 467 47 507T154 548H179Q216 548 241 538T281
511T302 470T309 418V329H191V405Q191 422 187 432T167 443Q153 443 149 434T144 406V135Q144 120 148 111T166 102Q180 102 185 110T190 133V241H309Z" />
<glyph unicode="&#x10a;" glyph-name="Cdotaccent" horiz-adv-x="372" d="M254 771H126V896H254V771ZM224 164V328H356V160Q356 127 349 96T323 41T276 3T202 -12H175Q127 -12 97 2T49 41T25 97T18 164V584Q18 618 26 648T52 702T101 739T175 753H202Q250 753
280 740T327 703T350 651T356 589V464H224V584Q224 605 217 616T190 627Q171 627 164 617T157 584V164Q157 119 191 119Q209 119 216 131T224 164Z" />
<glyph unicode="&#x10b;" glyph-name="cdotaccent" horiz-adv-x="322" d="M230 566H102V690H230V566ZM309 241V125Q309 97 302 73T278 30T237 0T177 -11H156Q81 -11 48 29T15 129V400Q15 467 47 507T154 548H179Q216 548 241 538T281 511T302 470T309 418V329H191V405Q191
422 187 432T167 443Q153 443 149 434T144 406V135Q144 120 148 111T166 102Q180 102 185 110T190 133V241H309Z" />
<glyph unicode="&#x10c;" glyph-name="Ccaron" horiz-adv-x="372" d="M73 885H163L190 837L217 885H306L240 771H139L73 885ZM224 164V328H356V160Q356 127 349 96T323 41T276 3T202 -12H175Q127 -12 97 2T49 41T25 97T18 164V584Q18 618 26 648T52 702T101 739T175
753H202Q250 753 280 740T327 703T350 651T356 589V464H224V584Q224 605 217 616T190 627Q171 627 164 617T157 584V164Q157 119 191 119Q209 119 216 131T224 164Z" />
<glyph unicode="&#x10d;" glyph-name="ccaron" horiz-adv-x="322" d="M53 700H144L168 638L193 700H282L221 566H114L53 700ZM309 241V125Q309 97 302 73T278 30T237 0T177 -11H156Q81 -11 48 29T15 129V400Q15 467 47 507T154 548H179Q216 548 241 538T281 511T302
470T309 418V329H191V405Q191 422 187 432T167 443Q153 443 149 434T144 406V135Q144 120 148 111T166 102Q180 102 185 110T190 133V241H309Z" />
<glyph unicode="&#x10e;" glyph-name="Dcaron" horiz-adv-x="374" d="M21 744H210Q285 744 320 707T355 585V165Q355 85 323 43T210 0H21V744ZM154 124H180Q203 124 211 136T219 176V576Q219 603 211 614T184 626H154V124ZM56 885H146L173 837L200 885H289L223
770H122L56 885Z" />
<glyph unicode="&#x10f;" glyph-name="dcaron" horiz-adv-x="344" d="M349 744H436L424 594H343L349 744ZM326 744V0H198V60Q193 51 185 39T166 15T141 -3T109 -11H107Q87 -11 71 -2T42 23T24 60T17 104V437Q17 456 22 475T37 509T62 534T97 544H102Q121 544 136
537T163 520T183 499T198 478V744H326ZM198 392Q198 411 193 422T171 434Q146 434 146 397V138Q146 121 151 111T171 101Q186 101 192 112T198 143V392Z" />
<glyph unicode="&#x110;" glyph-name="Dcroat" horiz-adv-x="377" d="M25 744H214Q289 744 324 707T359 585V165Q359 85 327 43T214 0H25V325H0V443H25V744ZM158 124H184Q207 124 215 136T223 176V576Q223 603 215 614T188 626H158V443H201V325H158V124Z" />
<glyph unicode="&#x111;" glyph-name="dcroat" horiz-adv-x="344" d="M123 674H358V583H123V674ZM326 744V0H198V60Q193 51 185 39T166 15T141 -3T109 -11H107Q87 -11 71 -2T42 23T24 60T17 104V437Q17 456 22 475T37 509T62 534T97 544H102Q121 544 136 537T163
520T183 499T198 478V744H326ZM198 392Q198 411 193 422T171 434Q146 434 146 397V138Q146 121 151 111T171 101Q186 101 192 112T198 143V392Z" />
<glyph unicode="&#x112;" glyph-name="Emacron" horiz-adv-x="315" d="M299 744V613H154V451H268V317H154V134H306V0H21V744H299ZM322 865H515V777H322V865Z" />
<glyph unicode="&#x113;" glyph-name="emacron" horiz-adv-x="323" d="M174 548Q309 548 309 411V252H138V135Q138 119 143 111T163 102Q176 102 181 111T186 135V215H309V117Q309 54 270 22T174 -10H150Q90 -10 53 22T15 117V413Q15 440 22 464T46 507T88 537T150
548H174ZM138 348H190V413Q190 430 185 439T164 449Q147 449 143 440T138 413V348ZM323 665H514V578H323V665Z" />
<glyph unicode="&#x114;" glyph-name="Ebreve" horiz-adv-x="315" d="M299 744V613H154V451H268V317H154V134H306V0H21V744H299ZM423 767H419Q373 767 343 794T312 870V875H397V872Q397 861 403 854T420 846H422Q433 846 439 853T445 872V875H529V870Q529 822
498 795T423 767Z" />
<glyph unicode="&#x115;" glyph-name="ebreve" horiz-adv-x="323" d="M174 548Q309 548 309 411V252H138V135Q138 119 143 111T163 102Q176 102 181 111T186 135V215H309V117Q309 54 270 22T174 -10H150Q90 -10 53 22T15 117V413Q15 440 22 464T46 507T88 537T150
548H174ZM138 348H190V413Q190 430 185 439T164 449Q147 449 143 440T138 413V348ZM421 565H418Q370 565 340 592T310 674V682H395V676Q395 643 419 643H420Q444 643 444 676V682H527V674Q527 620 496 593T421 565Z" />
<glyph unicode="&#x116;" glyph-name="Edotaccent" horiz-adv-x="315" d="M299 744V613H154V451H268V317H154V134H306V0H21V744H299ZM485 770H357V896H485V770Z" />
<glyph unicode="&#x117;" glyph-name="edotaccent" horiz-adv-x="323" d="M226 566H98V690H226V566ZM174 548Q309 548 309 411V252H138V135Q138 119 143 111T163 102Q176 102 181 111T186 135V215H309V117Q309 54 270 22T174 -10H150Q90 -10 53 22T15 117V413Q15
440 22 464T46 507T88 537T150 548H174ZM138 348H190V413Q190 430 185 439T164 449Q147 449 143 440T138 413V348Z" />
<glyph unicode="&#x118;" glyph-name="Eogonek" horiz-adv-x="315" d="M299 744V613H154V451H268V317H154V134H306V0H21V744H299ZM125 -109Q125 -81 145 -55T199 0H261Q236 -31 227 -48T217 -84V-88Q217 -108 243 -108H261V-188H203Q171 -188 148 -172T125 -124V-109Z" />
<glyph unicode="&#x119;" glyph-name="eogonek" horiz-adv-x="323" d="M256 -1Q233 -30 223 -47T213 -84V-88Q213 -108 239 -108H257V-188H199Q167 -188 144 -172T121 -124V-109Q121 -83 138 -59T186 -9Q182 -10 174 -10H150Q90 -10 53 22T15 117V413Q15 440 22
464T46 507T88 537T150 548H174Q309 548 309 411V252H138V135Q138 119 143 111T163 102Q176 102 181 111T186 135V215H309V121Q309 99 305 83T295 53T278 27T256 -1ZM138 348H190V413Q190 430 185 439T164 449Q147 449 143 440T138 413V348Z" />
<glyph unicode="&#x11a;" glyph-name="Ecaron" horiz-adv-x="315" d="M299 744V613H154V451H268V317H154V134H306V0H21V744H299ZM304 885H394L421 837L448 885H537L471 770H370L304 885Z" />
<glyph unicode="&#x11b;" glyph-name="ecaron" horiz-adv-x="323" d="M49 700H140L164 638L189 700H278L217 566H110L49 700ZM174 548Q309 548 309 411V252H138V135Q138 119 143 111T163 102Q176 102 181 111T186 135V215H309V117Q309 54 270 22T174 -10H150Q90
-10 53 22T15 117V413Q15 440 22 464T46 507T88 537T150 548H174ZM138 348H190V413Q190 430 185 439T164 449Q147 449 143 440T138 413V348Z" />
<glyph unicode="&#x11c;" glyph-name="Gcircumflex" horiz-adv-x="378" d="M306 771H217L189 817L162 771H73L138 885H240L306 771ZM139 -10Q110 -10 88 1T50 33T26 79T18 136V579Q18 613 26 644T52 700T99 738T173 753H200Q249 753 279 739T326 700T348 645T354
580V498H224V581Q224 604 217 616T190 628Q157 628 157 581V167Q157 119 193 119Q232 119 232 165V325H183V450H360V0H279Q276 13 271 33T259 71Q254 62 246 48T224 21T193 -1T149 -10H139Z" />
<glyph unicode="&#x11d;" glyph-name="gcircumflex" horiz-adv-x="342" d="M196 60Q181 32 160 11T109 -10Q70 -10 44 18T17 95V416Q17 473 38 507T102 541H103Q137 541 159 521T198 473V538H324V-74Q324 -95 318 -116T296 -155T252 -184T179 -195H161Q120 -195
93 -188T50 -167T28 -136T22 -97V-25H145V-69Q145 -80 149 -86T167 -92H172Q186 -92 191 -86T196 -65V60ZM196 399Q196 412 192 422T171 433Q157 433 152 424T147 400V128Q147 114 152 105T171 96Q183 96 189 105T196 129V399ZM540 564H449L425 626L400 564H311L372
700H478L540 564Z" />
<glyph unicode="&#x11e;" glyph-name="Gbreve" horiz-adv-x="378" d="M139 -10Q110 -10 88 1T50 33T26 79T18 136V579Q18 613 26 644T52 700T99 738T173 753H200Q249 753 279 739T326 700T348 645T354 580V498H224V581Q224 604 217 616T190 628Q157 628 157 581V167Q157
119 193 119Q232 119 232 165V325H183V450H360V0H279Q276 13 271 33T259 71Q254 62 246 48T224 21T193 -1T149 -10H139ZM190 768H186Q140 768 110 795T79 871V876H164V873Q164 862 170 855T187 847H189Q200 847 206 854T212 873V876H296V871Q296 823 265 796T190
768Z" />
<glyph unicode="&#x11f;" glyph-name="gbreve" horiz-adv-x="342" d="M196 60Q181 32 160 11T109 -10Q70 -10 44 18T17 95V416Q17 473 38 507T102 541H103Q137 541 159 521T198 473V538H324V-74Q324 -95 318 -116T296 -155T252 -184T179 -195H161Q120 -195 93
-188T50 -167T28 -136T22 -97V-25H145V-69Q145 -80 149 -86T167 -92H172Q186 -92 191 -86T196 -65V60ZM196 399Q196 412 192 422T171 433Q157 433 152 424T147 400V128Q147 114 152 105T171 96Q183 96 189 105T196 129V399ZM428 563H425Q377 563 347 590T317 672V680H402V674Q402
641 426 641H427Q451 641 451 674V680H534V672Q534 618 503 591T428 563Z" />
<glyph unicode="&#x120;" glyph-name="Gdotaccent" horiz-adv-x="378" d="M256 771H128V896H256V771ZM139 -10Q110 -10 88 1T50 33T26 79T18 136V579Q18 613 26 644T52 700T99 738T173 753H200Q249 753 279 739T326 700T348 645T354 580V498H224V581Q224 604 217
616T190 628Q157 628 157 581V167Q157 119 193 119Q232 119 232 165V325H183V450H360V0H279Q276 13 271 33T259 71Q254 62 246 48T224 21T193 -1T149 -10H139Z" />
<glyph unicode="&#x121;" glyph-name="gdotaccent" horiz-adv-x="342" d="M196 60Q181 32 160 11T109 -10Q70 -10 44 18T17 95V416Q17 473 38 507T102 541H103Q137 541 159 521T198 473V538H324V-74Q324 -95 318 -116T296 -155T252 -184T179 -195H161Q120 -195
93 -188T50 -167T28 -136T22 -97V-25H145V-69Q145 -80 149 -86T167 -92H172Q186 -92 191 -86T196 -65V60ZM196 399Q196 412 192 422T171 433Q157 433 152 424T147 400V128Q147 114 152 105T171 96Q183 96 189 105T196 129V399ZM490 564H362V690H490V564Z" />
<glyph unicode="&#x122;" glyph-name="uni0122" horiz-adv-x="378" d="M139 -10Q110 -10 88 1T50 33T26 79T18 136V579Q18 613 26 644T52 700T99 738T173 753H200Q249 753 279 739T326 700T348 645T354 580V498H224V581Q224 604 217 616T190 628Q157 628 157 581V167Q157
119 193 119Q232 119 232 165V325H183V450H360V0H279Q276 13 271 33T259 71Q254 62 246 48T224 21T193 -1T149 -10H139ZM170 -203Q175 -191 178 -175T184 -136H141V-26H243V-96Q243 -138 235 -165T221 -203H170Z" />
<glyph unicode="&#x123;" glyph-name="uni0123" horiz-adv-x="342" d="M196 60Q181 32 160 11T109 -10Q70 -10 44 18T17 95V416Q17 473 38 507T102 541H103Q137 541 159 521T198 473V538H324V-74Q324 -95 318 -116T296 -155T252 -184T179 -195H161Q120 -195 93
-188T50 -167T28 -136T22 -97V-25H145V-69Q145 -80 149 -86T167 -92H172Q186 -92 191 -86T196 -65V60ZM196 399Q196 412 192 422T171 433Q157 433 152 424T147 400V128Q147 114 152 105T171 96Q183 96 189 105T196 129V399ZM448 742Q444 729 440 712T434 673H476V564H373V633Q373
675 381 703T395 742H448Z" />
<glyph unicode="&#x124;" glyph-name="Hcircumflex" horiz-adv-x="378" d="M154 0H21V744H154V460H224V744H357V0H224V314H154V0ZM306 770H217L189 817L162 770H73L138 885H240L306 770Z" />
<glyph unicode="&#x125;" glyph-name="hcircumflex" horiz-adv-x="344" d="M18 744H146V476Q160 498 184 519T242 540H247Q284 540 305 516T326 456V0H197V398Q197 410 192 419T172 428Q156 428 151 419T146 394V0H18V744ZM533 770H444L416 817L389 770H300L365
885H467L533 770Z" />
<glyph unicode="&#x126;" glyph-name="Hbar" horiz-adv-x="378" d="M-4 651H383V550H-4V651ZM154 0H21V744H154V460H224V744H357V0H224V314H154V0Z" />
<glyph unicode="&#x127;" glyph-name="hbar" horiz-adv-x="344" d="M-14 674H221V583H-14V674ZM18 744H146V476Q160 498 184 519T242 540H247Q284 540 305 516T326 456V0H197V398Q197 410 192 419T172 428Q156 428 151 419T146 394V0H18V744Z" />
<glyph unicode="&#x128;" glyph-name="Itilde" horiz-adv-x="175" d="M154 0H21V744H154V0ZM341 787Q332 791 327 793T316 796Q308 796 308 785V769H236V803Q236 841 251 860T293 880Q308 880 320 877T347 867Q360 861 365 859T374 857Q380 857 380 867V883H452V849Q452
807 434 790T395 773Q382 773 370 776T341 787Z" />
<glyph unicode="&#x129;" glyph-name="itilde" horiz-adv-x="164" d="M180 678V612Q180 589 167 577T137 564Q121 564 109 569T78 584Q69 589 66 590T59 592Q54 592 54 581V563H-14V620Q-14 650 -1 663T30 676Q45 676 58 672T89 658Q98 653 101 652T107 651Q112
651 112 661V678H180ZM147 0H19V538H147V0Z" />
<glyph unicode="&#x12a;" glyph-name="Imacron" horiz-adv-x="175" d="M154 0H21V744H154V0ZM247 865H440V777H247V865Z" />
<glyph unicode="&#x12b;" glyph-name="imacron" horiz-adv-x="164" d="M-4 664H168V576H-4V664ZM146 0H18V538H146V0Z" />
<glyph unicode="&#x12c;" glyph-name="Ibreve" horiz-adv-x="175" d="M154 0H21V744H154V0ZM346 767H342Q296 767 266 794T235 870V875H320V872Q320 861 326 854T343 846H345Q356 846 362 853T368 872V875H452V870Q452 822 421 795T346 767Z" />
<glyph unicode="&#x12d;" glyph-name="ibreve" horiz-adv-x="164" d="M85 563H81Q27 563 7 590T-14 657V680H66V664Q66 641 83 641Q100 641 100 664V680H178V657Q178 617 157 590T85 563ZM146 0H18V538H146V0Z" />
<glyph unicode="&#x12e;" glyph-name="Iogonek" horiz-adv-x="175" d="M154 0H21V744H154V0ZM274 -109Q274 -81 294 -55T348 0H410Q385 -31 376 -48T366 -84V-88Q366 -108 392 -108H410V-188H352Q320 -188 297 -172T274 -124V-109Z" />
<glyph unicode="&#x12f;" glyph-name="iogonek" horiz-adv-x="164" d="M146 0H18V538H146V0ZM146 564H18V690H146V564ZM266 -109Q266 -81 286 -55T340 0H402Q377 -31 368 -48T358 -84V-88Q358 -108 384 -108H402V-188H344Q312 -188 289 -172T266 -124V-109Z" />
<glyph unicode="&#x130;" glyph-name="Idotaccent" horiz-adv-x="175" d="M154 0H21V744H154V0ZM408 770H280V896H408V770Z" />
<glyph unicode="&#x131;" glyph-name="dotlessi" horiz-adv-x="164" d="M146 0H18V538H146V0Z" />
<glyph unicode="&#x132;" glyph-name="IJ" horiz-adv-x="525" d="M154 0H21V744H154V0ZM312 327V155Q312 122 338 122H342Q356 122 361 131T367 155V744H505V151Q505 73 468 33T364 -8H320Q254 -8 219 25T184 137V327H312Z" />
<glyph unicode="&#x133;" glyph-name="ij" horiz-adv-x="325" d="M146 0H18V538H146V0ZM146 564H18V690H146V564ZM307 564H179V690H307V564ZM161 -69Q171 -69 175 -65T179 -48V538H307V-116Q307 -145 288 -166T233 -188H109V-69H161Z" />
<glyph unicode="&#x134;" glyph-name="Jcircumflex" horiz-adv-x="354" d="M141 327V155Q141 122 167 122H171Q185 122 190 131T196 155V744H334V151Q334 73 297 33T193 -8H149Q83 -8 48 25T13 137V327H141ZM378 770H289L261 817L234 770H145L210 885H312L378 770Z" />
<glyph unicode="&#x135;" glyph-name="jcircumflex" horiz-adv-x="165" d="M186 564H100L81 630L61 564H-24L28 700H134L186 564ZM1 -69Q11 -69 15 -65T19 -48V538H147V-116Q147 -145 128 -166T73 -188H-51V-69H1Z" />
<glyph unicode="&#x136;" glyph-name="uni0136" horiz-adv-x="376" d="M154 0H21V744H154V458L241 744H372L267 406L383 0H243L154 315V0ZM178 -203Q183 -191 186 -175T192 -136H149V-26H251V-96Q251 -138 243 -165T229 -203H178Z" />
<glyph unicode="&#x137;" glyph-name="uni0137" horiz-adv-x="346" d="M221 538H343L248 312L350 0H223L146 239V0H18V744H146V351L221 538ZM162 -203Q167 -191 170 -175T176 -136H133V-26H235V-96Q235 -138 227 -165T213 -203H162Z" />
<glyph unicode="&#x139;" glyph-name="Lacute" horiz-adv-x="304" d="M154 744V134H295V0H21V744H154ZM335 885H441L396 770H292L335 885Z" />
<glyph unicode="&#x13a;" glyph-name="lacute" horiz-adv-x="164" d="M146 0H18V744H146V0ZM329 885H435L390 770H286L329 885Z" />
<glyph unicode="&#x13b;" glyph-name="uni013B" horiz-adv-x="304" d="M154 744V134H295V0H21V744H154ZM395 -203Q400 -191 403 -175T409 -136H366V-26H468V-96Q468 -138 460 -165T446 -203H395Z" />
<glyph unicode="&#x13c;" glyph-name="uni013C" horiz-adv-x="164" d="M146 0H18V744H146V0ZM319 -203Q324 -191 327 -175T333 -136H290V-26H392V-96Q392 -138 384 -165T370 -203H319Z" />
<glyph unicode="&#x13d;" glyph-name="Lcaron" horiz-adv-x="304" d="M177 744H264L252 594H171L177 744ZM154 744V134H295V0H21V744H154Z" />
<glyph unicode="&#x13e;" glyph-name="lcaron" horiz-adv-x="164" d="M146 0H18V744H146V0ZM169 744H256L244 594H163L169 744Z" />
<glyph unicode="&#x13f;" glyph-name="Ldot" horiz-adv-x="311" d="M299 314H181V458H299V314ZM154 744V134H295V0H21V744H154Z" />
<glyph unicode="&#x140;" glyph-name="ldot" horiz-adv-x="291" d="M285 314H167V458H285V314ZM146 0H18V744H146V0Z" />
<glyph unicode="&#x141;" glyph-name="Lslash" horiz-adv-x="320" d="M169 744V440L264 507V397L169 332V134H310V0H36V241L3 219V325L36 348V744H169Z" />
<glyph unicode="&#x142;" glyph-name="lslash" horiz-adv-x="189" d="M158 0H30V331L3 312V412L30 431V744H158V522L186 542V440L158 420V0Z" />
<glyph unicode="&#x143;" glyph-name="Nacute" horiz-adv-x="376" d="M146 744L237 364V744H355V0H242L139 408V0H21V744H146ZM180 885H286L241 770H137L180 885Z" />
<glyph unicode="&#x144;" glyph-name="nacute" horiz-adv-x="344" d="M18 538H145V473Q163 500 186 520T242 540H249Q271 540 286 531T310 508T322 478T326 450V0H197V396Q197 410 192 419T172 428Q156 428 151 419T146 392V0H18V538ZM162 700H267L223 564H120L162 700Z" />
<glyph unicode="&#x145;" glyph-name="uni0145" horiz-adv-x="376" d="M146 744L237 364V744H355V0H242L139 408V0H21V744H146ZM167 -203Q172 -191 175 -175T181 -136H138V-26H240V-96Q240 -138 232 -165T218 -203H167Z" />
<glyph unicode="&#x146;" glyph-name="uni0146" horiz-adv-x="344" d="M18 538H145V473Q163 500 186 520T242 540H249Q271 540 286 531T310 508T322 478T326 450V0H197V396Q197 410 192 419T172 428Q156 428 151 419T146 392V0H18V538ZM152 -203Q157 -191 160
-175T166 -136H123V-26H225V-96Q225 -138 217 -165T203 -203H152Z" />
<glyph unicode="&#x147;" glyph-name="Ncaron" horiz-adv-x="376" d="M146 744L237 364V744H355V0H242L139 408V0H21V744H146ZM73 885H163L190 837L217 885H306L240 770H139L73 885Z" />
<glyph unicode="&#x148;" glyph-name="ncaron" horiz-adv-x="344" d="M18 538H145V473Q163 500 186 520T242 540H249Q271 540 286 531T310 508T322 478T326 450V0H197V396Q197 410 192 419T172 428Q156 428 151 419T146 392V0H18V538ZM57 700H148L172 638L197
700H286L224 564H119L57 700Z" />
<glyph unicode="&#x149;" glyph-name="napostrophe" horiz-adv-x="436" d="M110 538H237V473Q255 500 278 520T334 540H341Q363 540 378 531T402 508T414 478T418 450V0H289V396Q289 410 284 419T264 428Q248 428 243 419T238 392V0H110V538ZM282 524Q289 545
294 570T301 616H258V744H369V641Q369 603 361 572T345 524H282Z" />
<glyph unicode="&#x14a;" glyph-name="Eng" horiz-adv-x="376" d="M276 -188H180V-71H219Q242 -71 242 -44V0L139 412V0H21V744H146L239 340V744H355V-101Q355 -146 334 -167T276 -188Z" />
<glyph unicode="&#x14b;" glyph-name="eng" horiz-adv-x="344" d="M197 396Q197 410 192 419T172 428Q156 428 151 419T146 392V0H18V538H142V470Q162 500 185 520T239 540H251Q273 540 287 531T310 508T322 478T326 450V-116Q326 -145 307 -166T252 -188H157V-69H179Q189
-69 193 -65T197 -48V396Z" />
<glyph unicode="&#x14c;" glyph-name="Omacron" horiz-adv-x="385" d="M367 170Q367 88 326 39T209 -11H179Q100 -11 59 35T18 170V563Q18 606 27 641T55 701T104 739T178 753H208Q252 753 282 740T331 701T358 642T367 564V170ZM228 574Q228 623 193 623Q173
623 165 611T157 574V166Q157 149 165 136T194 122Q214 122 221 135T228 166V574ZM96 866H289V778H96V866Z" />
<glyph unicode="&#x14d;" glyph-name="omacron" horiz-adv-x="341" d="M15 142V397Q15 470 52 509T155 548H185Q251 548 288 510T326 399V144Q326 111 317 83T289 34T244 2T185 -10H155Q118 -10 92 1T48 33T23 82T15 142ZM144 400V144Q144 128 149 117T170 106Q187
106 192 117T197 144V400Q197 417 192 427T170 437Q155 437 150 427T144 400ZM331 665H522V578H331V665Z" />
<glyph unicode="&#x14e;" glyph-name="Obreve" horiz-adv-x="385" d="M367 170Q367 88 326 39T209 -11H179Q100 -11 59 35T18 170V563Q18 606 27 641T55 701T104 739T178 753H208Q252 753 282 740T331 701T358 642T367 564V170ZM228 574Q228 623 193 623Q173 623
165 611T157 574V166Q157 149 165 136T194 122Q214 122 221 135T228 166V574ZM195 768H191Q145 768 115 795T84 871V876H169V873Q169 862 175 855T192 847H194Q205 847 211 854T217 873V876H301V871Q301 823 270 796T195 768Z" />
<glyph unicode="&#x14f;" glyph-name="obreve" horiz-adv-x="341" d="M15 142V397Q15 470 52 509T155 548H185Q251 548 288 510T326 399V144Q326 111 317 83T289 34T244 2T185 -10H155Q118 -10 92 1T48 33T23 82T15 142ZM144 400V144Q144 128 149 117T170 106Q187
106 192 117T197 144V400Q197 417 192 427T170 437Q155 437 150 427T144 400ZM429 565H426Q378 565 348 592T318 674V682H403V676Q403 643 427 643H428Q452 643 452 676V682H535V674Q535 620 504 593T429 565Z" />
<glyph unicode="&#x150;" glyph-name="Ohungarumlaut" horiz-adv-x="385" d="M119 885H209L182 771H95L119 885ZM232 885H321L292 771H206L232 885ZM367 170Q367 88 326 39T209 -11H179Q100 -11 59 35T18 170V563Q18 606 27 641T55 701T104 739T178 753H208Q252
753 282 740T331 701T358 642T367 564V170ZM228 574Q228 623 193 623Q173 623 165 611T157 574V166Q157 149 165 136T194 122Q214 122 221 135T228 166V574Z" />
<glyph unicode="&#x151;" glyph-name="ohungarumlaut" horiz-adv-x="341" d="M104 700H192L166 566H80L104 700ZM214 700H302L274 566H189L214 700ZM15 142V397Q15 470 52 509T155 548H185Q251 548 288 510T326 399V144Q326 111 317 83T289 34T244 2T185 -10H155Q118
-10 92 1T48 33T23 82T15 142ZM144 400V144Q144 128 149 117T170 106Q187 106 192 117T197 144V400Q197 417 192 427T170 437Q155 437 150 427T144 400Z" />
<glyph unicode="&#x152;" glyph-name="OE" horiz-adv-x="518" d="M18 571Q18 610 25 643T47 700T85 737T140 751Q161 751 176 746T202 734T220 717T233 701V744H499V612H361V451H468V316H361V134H509V0H233V45Q221 23 198 7T136 -10Q82 -10 50 34T18 172V571ZM228
569Q228 594 221 608T193 623Q173 623 165 609T157 569V176Q157 150 165 136T193 122Q213 122 220 136T228 176V569Z" />
<glyph unicode="&#x153;" glyph-name="oe" horiz-adv-x="505" d="M320 252V134Q320 118 325 110T345 102Q369 102 369 134V215H491V116Q491 53 452 21T356 -12H329Q305 -12 283 -1T252 21Q242 11 224 1T177 -10H153Q117 -10 91 1T48 33T23 82T15 142V397Q15 470
50 509T152 548H178Q205 548 226 538T257 517Q266 528 286 538T333 548H360Q423 548 457 514T491 410V252H320ZM144 144Q144 128 149 117T170 106Q187 106 192 117T197 144V400Q197 417 192 427T170 437Q155 437 150 427T144 400V144ZM320 348H372V412Q372 429
368 438T346 448Q329 448 325 439T320 412V348Z" />
<glyph unicode="&#x154;" glyph-name="Racute" horiz-adv-x="369" d="M154 441H180Q200 441 208 450T217 486V587Q217 611 211 620T184 629H154V441ZM154 0H21V744H231Q292 744 322 712T353 620V501Q353 478 348 461T333 432T314 413T294 401Q302 398 312 392T330
375T345 349T351 313V60Q351 36 354 24T362 5V0H229Q224 6 221 19T217 57V274Q217 300 210 309T182 318H154V0ZM169 885H275L230 770H126L169 885Z" />
<glyph unicode="&#x155;" glyph-name="racute" horiz-adv-x="308" d="M145 471Q148 479 154 491T171 514T195 533T230 541H236Q268 541 282 523T297 475V280H178V403Q178 417 175 423T162 429Q152 429 149 423T146 403V0H18V538H145V471ZM154 700H259L215 564H112L154
700Z" />
<glyph unicode="&#x156;" glyph-name="uni0156" horiz-adv-x="369" d="M154 441H180Q200 441 208 450T217 486V587Q217 611 211 620T184 629H154V441ZM154 0H21V744H231Q292 744 322 712T353 620V501Q353 478 348 461T333 432T314 413T294 401Q302 398 312 392T330
375T345 349T351 313V60Q351 36 354 24T362 5V0H229Q224 6 221 19T217 57V274Q217 300 210 309T182 318H154V0ZM167 -203Q172 -191 175 -175T181 -136H138V-26H240V-96Q240 -138 232 -165T218 -203H167Z" />
<glyph unicode="&#x157;" glyph-name="uni0157" horiz-adv-x="308" d="M145 471Q148 479 154 491T171 514T195 533T230 541H236Q268 541 282 523T297 475V280H178V403Q178 417 175 423T162 429Q152 429 149 423T146 403V0H18V538H145V471ZM315 -203Q320 -191 323
-175T329 -136H286V-26H388V-96Q388 -138 380 -165T366 -203H315Z" />
<glyph unicode="&#x158;" glyph-name="Rcaron" horiz-adv-x="369" d="M154 441H180Q200 441 208 450T217 486V587Q217 611 211 620T184 629H154V441ZM154 0H21V744H231Q292 744 322 712T353 620V501Q353 478 348 461T333 432T314 413T294 401Q302 398 312 392T330
375T345 349T351 313V60Q351 36 354 24T362 5V0H229Q224 6 221 19T217 57V274Q217 300 210 309T182 318H154V0ZM61 885H151L178 837L205 885H294L228 770H127L61 885Z" />
<glyph unicode="&#x159;" glyph-name="rcaron" horiz-adv-x="308" d="M145 471Q148 479 154 491T171 514T195 533T230 541H236Q268 541 282 523T297 475V280H178V403Q178 417 175 423T162 429Q152 429 149 423T146 403V0H18V538H145V471ZM306 700H397L421 638L446
700H535L473 564H368L306 700Z" />
<glyph unicode="&#x15a;" glyph-name="Sacute" horiz-adv-x="359" d="M173 885H279L234 771H130L173 885ZM195 753Q273 753 305 718T338 607V507H210V600Q210 618 205 628T181 639Q164 639 158 629T152 599V582Q152 556 160 535T193 486L269 401Q294 373 310 349T335
302T347 257T350 210V175Q350 91 311 41T188 -9H162Q86 -9 48 30T10 145V279H141V160Q141 115 175 115Q208 115 208 169V183Q208 202 207 217T202 244T189 270T165 299L88 384Q46 429 32 474T17 573V605Q17 677 57 715T168 753H195Z" />
<glyph unicode="&#x15b;" glyph-name="sacute" horiz-adv-x="302" d="M145 700H250L206 566H103L145 700ZM289 446V373H175V429Q175 442 171 449T154 457Q141 457 137 449T133 429V418Q133 400 137 390T156 366L227 296Q248 275 261 258T282 223T293 187T296 147V129Q296
101 288 76T264 32T223 2T163 -9H137Q102 -9 78 0T37 25T14 62T7 108V196H125V124Q125 94 148 94H149Q170 94 170 125V137Q170 157 165 172T142 204L74 269Q38 304 26 336T14 411V428Q14 482 45 515T140 548H167Q235 548 262 520T289 446Z" />
<glyph unicode="&#x15c;" glyph-name="Scircumflex" horiz-adv-x="359" d="M300 771H211L183 817L156 771H67L132 885H234L300 771ZM195 753Q273 753 305 718T338 607V507H210V600Q210 618 205 628T181 639Q164 639 158 629T152 599V582Q152 556 160 535T193 486L269
401Q294 373 310 349T335 302T347 257T350 210V175Q350 91 311 41T188 -9H162Q86 -9 48 30T10 145V279H141V160Q141 115 175 115Q208 115 208 169V183Q208 202 207 217T202 244T189 270T165 299L88 384Q46 429 32 474T17 573V605Q17 677 57 715T168 753H195Z" />
<glyph unicode="&#x15d;" glyph-name="scircumflex" horiz-adv-x="302" d="M270 566H179L155 626L130 566H41L102 700H208L270 566ZM289 446V373H175V429Q175 442 171 449T154 457Q141 457 137 449T133 429V418Q133 400 137 390T156 366L227 296Q248 275 261 258T282
223T293 187T296 147V129Q296 101 288 76T264 32T223 2T163 -9H137Q102 -9 78 0T37 25T14 62T7 108V196H125V124Q125 94 148 94H149Q170 94 170 125V137Q170 157 165 172T142 204L74 269Q38 304 26 336T14 411V428Q14 482 45 515T140 548H167Q235 548 262 520T289
446Z" />
<glyph unicode="&#x15e;" glyph-name="uni015E" horiz-adv-x="359" d="M195 753Q273 753 305 718T338 607V507H210V600Q210 618 205 628T181 639Q164 639 158 629T152 599V582Q152 556 160 535T193 486L269 401Q294 373 310 349T335 302T347 257T350 210V175Q350
91 311 41T188 -9H162Q86 -9 48 30T10 145V279H141V160Q141 115 175 115Q208 115 208 169V183Q208 202 207 217T202 244T189 270T165 299L88 384Q46 429 32 474T17 573V605Q17 677 57 715T168 753H195ZM165 -188H104V-125H154Q176 -125 176 -108V-107Q176 -92 154
-92H119V0H179V-36H182Q261 -39 261 -108V-111Q261 -150 234 -169T165 -188Z" />
<glyph unicode="&#x15f;" glyph-name="uni015F" horiz-adv-x="302" d="M289 446V373H175V429Q175 442 171 449T154 457Q141 457 137 449T133 429V418Q133 400 137 390T156 366L227 296Q248 275 261 258T282 223T293 187T296 147V129Q296 101 288 76T264 32T223
2T163 -9H137Q102 -9 78 0T37 25T14 62T7 108V196H125V124Q125 94 148 94H149Q170 94 170 125V137Q170 157 165 172T142 204L74 269Q38 304 26 336T14 411V428Q14 482 45 515T140 548H167Q235 548 262 520T289 446ZM394 -188H333V-125H383Q405 -125 405 -108V-107Q405
-92 383 -92H348V0H408V-36H411Q490 -39 490 -108V-111Q490 -150 463 -169T394 -188Z" />
<glyph unicode="&#x160;" glyph-name="Scaron" horiz-adv-x="359" d="M195 753Q273 753 305 718T338 607V507H210V600Q210 618 205 628T181 639Q164 639 158 629T152 599V582Q152 556 160 535T193 486L269 401Q294 373 310 349T335 302T347 257T350 210V175Q350
91 311 41T188 -9H162Q86 -9 48 30T10 145V279H141V160Q141 115 175 115Q208 115 208 169V183Q208 202 207 217T202 244T189 270T165 299L88 384Q46 429 32 474T17 573V605Q17 677 57 715T168 753H195ZM65 886H155L182 838L209 886H298L232 771H131L65 886Z" />
<glyph unicode="&#x161;" glyph-name="scaron" horiz-adv-x="302" d="M289 446V373H175V429Q175 442 171 449T154 457Q141 457 137 449T133 429V418Q133 400 137 390T156 366L227 296Q248 275 261 258T282 223T293 187T296 147V129Q296 101 288 76T264 32T223
2T163 -9H137Q102 -9 78 0T37 25T14 62T7 108V196H125V124Q125 94 148 94H149Q170 94 170 125V137Q170 157 165 172T142 204L74 269Q38 304 26 336T14 411V428Q14 482 45 515T140 548H167Q235 548 262 520T289 446ZM296 702H387L411 640L436 702H525L463 566H358L296
702Z" />
<glyph unicode="&#x162;" glyph-name="Tcommaaccent" horiz-adv-x="339" d="M404 -203Q409 -191 412 -175T418 -136H375V-26H477V-96Q477 -138 469 -165T455 -203H404ZM331 744V613H236V0H103V613H8V744H331Z" />
<glyph unicode="&#x163;" glyph-name="tcommaaccent" horiz-adv-x="267" d="M128 0Q102 0 85 18T67 66V419H6V538H67V716H194V538H256V419H194V143Q194 132 197 127T213 121H256V0H128ZM149 -203Q154 -191 157 -175T163 -136H120V-26H222V-96Q222 -138 214 -165T200
-203H149Z" />
<glyph unicode="&#x164;" glyph-name="Tcaron" horiz-adv-x="339" d="M331 744V613H236V0H103V613H8V744H331ZM309 885H399L426 837L453 885H542L476 770H375L309 885Z" />
<glyph unicode="&#x165;" glyph-name="tcaron" horiz-adv-x="267" d="M217 744H304L292 594H211L217 744ZM128 0Q102 0 85 18T67 66V419H6V538H67V716H194V538H256V419H194V143Q194 132 197 127T213 121H256V0H128Z" />
<glyph unicode="&#x166;" glyph-name="Tbar" horiz-adv-x="339" d="M35 349V463H304V349H35ZM331 744V613H236V0H103V613H8V744H331Z" />
<glyph unicode="&#x167;" glyph-name="tbar" horiz-adv-x="267" d="M128 0Q102 0 85 18T67 66V235H6V339H67V419H6V538H67V716H194V538H256V419H194V339H256V235H194V143Q194 132 197 127T213 121H256V0H128Z" />
<glyph unicode="&#x168;" glyph-name="Utilde" horiz-adv-x="379" d="M20 744H157V168Q157 122 190 122Q222 122 222 168V744H359V173Q359 80 318 35T205 -11H172Q99 -11 60 34T20 173V744ZM190 787Q181 791 176 793T165 796Q157 796 157 785V769H85V803Q85 841
100 860T142 880Q157 880 169 877T196 867Q209 861 214 859T223 857Q229 857 229 867V883H301V849Q301 807 283 790T244 773Q231 773 219 776T190 787Z" />
<glyph unicode="&#x169;" glyph-name="utilde" horiz-adv-x="339" d="M321 0H197V66Q179 39 157 19T100 -2H96Q77 -2 63 6T38 28T23 58T18 91V538H147V143Q147 129 151 120T169 110Q184 110 189 120T194 146V538H321V0ZM281 678V622Q281 597 267 580T227 563Q210
563 199 567T167 582Q156 587 152 589T144 591Q139 591 138 588T137 579V563H65V610Q65 640 79 659T120 678Q137 678 148 674T179 660Q190 655 194 654T202 652Q208 652 208 662V678H281Z" />
<glyph unicode="&#x16a;" glyph-name="Umacron" horiz-adv-x="379" d="M20 744H157V168Q157 122 190 122Q222 122 222 168V744H359V173Q359 80 318 35T205 -11H172Q99 -11 60 34T20 173V744ZM93 865H286V777H93V865Z" />
<glyph unicode="&#x16b;" glyph-name="umacron" horiz-adv-x="339" d="M321 0H197V66Q179 39 157 19T100 -2H96Q77 -2 63 6T38 28T23 58T18 91V538H147V143Q147 129 151 120T169 110Q184 110 189 120T194 146V538H321V0ZM331 663H522V576H331V663Z" />
<glyph unicode="&#x16c;" glyph-name="Ubreve" horiz-adv-x="379" d="M20 744H157V168Q157 122 190 122Q222 122 222 168V744H359V173Q359 80 318 35T205 -11H172Q99 -11 60 34T20 173V744ZM192 767H188Q142 767 112 794T81 870V875H166V872Q166 861 172 854T189
846H191Q202 846 208 853T214 872V875H298V870Q298 822 267 795T192 767Z" />
<glyph unicode="&#x16d;" glyph-name="ubreve" horiz-adv-x="339" d="M321 0H197V66Q179 39 157 19T100 -2H96Q77 -2 63 6T38 28T23 58T18 91V538H147V143Q147 129 151 120T169 110Q184 110 189 120T194 146V538H321V0ZM428 563H425Q377 563 347 590T317 672V680H402V674Q402
641 426 641H427Q451 641 451 674V680H534V672Q534 618 503 591T428 563Z" />
<glyph unicode="&#x16e;" glyph-name="Uring" horiz-adv-x="379" d="M20 744H157V168Q157 122 190 122Q222 122 222 168V744H359V173Q359 80 318 35T205 -11H172Q99 -11 60 34T20 173V744ZM189 811Q204 811 212 820T221 844Q221 858 213 867T189 877Q174 877 166
868T157 844Q157 830 165 821T189 811ZM189 765Q154 765 132 787T109 844Q109 879 131 901T189 923Q224 923 246 901T269 844Q269 809 247 787T189 765Z" />
<glyph unicode="&#x16f;" glyph-name="uring" horiz-adv-x="339" d="M321 0H197V66Q179 39 157 19T100 -2H96Q77 -2 63 6T38 28T23 58T18 91V538H147V143Q147 129 151 120T169 110Q184 110 189 120T194 146V538H321V0ZM425 608Q440 608 448 617T457 641Q457 655
449 664T425 674Q410 674 402 665T393 641Q393 627 401 618T425 608ZM425 562Q390 562 368 584T345 641Q345 676 367 698T425 720Q460 720 482 698T505 641Q505 606 483 584T425 562Z" />
<glyph unicode="&#x170;" glyph-name="Uhungarumlaut" horiz-adv-x="379" d="M20 744H157V168Q157 122 190 122Q222 122 222 168V744H359V173Q359 80 318 35T205 -11H172Q99 -11 60 34T20 173V744ZM115 885H205L178 770H91L115 885ZM228 885H317L288 770H202L228 885Z" />
<glyph unicode="&#x171;" glyph-name="uhungarumlaut" horiz-adv-x="339" d="M321 0H197V66Q179 39 157 19T100 -2H96Q77 -2 63 6T38 28T23 58T18 91V538H147V143Q147 129 151 120T169 110Q184 110 189 120T194 146V538H321V0ZM99 700H187L161 564H75L99 700ZM209
700H297L269 564H184L209 700Z" />
<glyph unicode="&#x172;" glyph-name="Uogonek" horiz-adv-x="379" d="M153 -109Q153 -83 170 -59T217 -11H205H172Q99 -11 60 35T20 173V744H157V168Q157 122 190 122Q222 122 222 168V744H359V173Q359 135 353 109T336 63T314 28T290 0Q264 -30 255 -48T245
-84V-88Q245 -108 271 -108H289V-188H231Q199 -188 176 -172T153 -124V-109V-109Z" />
<glyph unicode="&#x173;" glyph-name="uogonek" horiz-adv-x="339" d="M321 0H197V66Q179 39 157 19T100 -2H96Q77 -2 63 6T38 28T23 58T18 91V538H147V143Q147 129 151 120T169 110Q184 110 189 120T194 146V538H321V0ZM185 -109Q185 -81 205 -55T259 0H321Q296
-31 287 -48T277 -84V-88Q277 -108 303 -108H321V-188H263Q231 -188 208 -172T185 -124V-109Z" />
<glyph unicode="&#x174;" glyph-name="Wcircumflex" horiz-adv-x="572" d="M354 744L401 272L445 744H573L478 0H327L288 409L249 0H92L-1 744H137L179 267L227 744H354ZM404 770H315L287 817L260 770H171L236 885H338L404 770Z" />
<glyph unicode="&#x175;" glyph-name="wcircumflex" horiz-adv-x="498" d="M79 0L-2 538H124L159 205L196 538H309L345 201L380 538H500L418 0H285L250 292L216 0H79ZM364 564H273L249 626L224 564H135L196 700H302L364 564Z" />
<glyph unicode="&#x176;" glyph-name="Ycircumflex" horiz-adv-x="331" d="M237 293V0H104V288L-6 744H127L172 480L217 744H337L237 293ZM288 770H199L171 817L144 770H55L120 885H222L288 770Z" />
<glyph unicode="&#x177;" glyph-name="ycircumflex" horiz-adv-x="315" d="M-2 538H124L160 241L195 538H318L205 -107Q197 -149 179 -168T131 -188H15V-69H68Q81 -69 84 -63T90 -42L92 -21Q93 -13 93 -8T91 9L-2 538ZM529 564H438L414 626L389 564H300L361 700H467L529
564Z" />
<glyph unicode="&#x178;" glyph-name="Ydieresis" horiz-adv-x="331" d="M237 293V0H104V288L-6 744H127L172 480L217 744H337L237 293ZM285 770H185V876H285V770ZM160 770H60V876H160V770Z" />
<glyph unicode="&#x179;" glyph-name="Zacute" horiz-adv-x="334" d="M314 744V626L152 130H325V0H9V120L171 616H20V744H314ZM152 885H258L213 770H109L152 885Z" />
<glyph unicode="&#x17a;" glyph-name="zacute" horiz-adv-x="270" d="M257 538V432L133 114H264V0H6V107L131 426H16V538H257ZM381 700H486L442 564H339L381 700Z" />
<glyph unicode="&#x17b;" glyph-name="Zdotaccent" horiz-adv-x="334" d="M314 744V626L152 130H325V0H9V120L171 616H20V744H314ZM488 770H360V896H488V770Z" />
<glyph unicode="&#x17c;" glyph-name="zdotaccent" horiz-adv-x="270" d="M257 538V432L133 114H264V0H6V107L131 426H16V538H257ZM457 564H329V690H457V564Z" />
<glyph unicode="&#x17d;" glyph-name="Zcaron" horiz-adv-x="334" d="M314 744V626L152 130H325V0H9V120L171 616H20V744H314ZM307 885H397L424 837L451 885H540L474 770H373L307 885Z" />
<glyph unicode="&#x17e;" glyph-name="zcaron" horiz-adv-x="270" d="M257 538V432L133 114H264V0H6V107L131 426H16V538H257ZM278 700H369L393 638L418 700H507L445 564H340L278 700Z" />
<glyph unicode="&#x192;" glyph-name="uni0192" horiz-adv-x="276" d="M64 362H6V481H69L78 656Q80 698 103 721T183 744H266V631H229Q215 631 210 626T203 604L197 481H266V362H191L165 -188H38L64 362Z" />
<glyph unicode="&#x1fa;" glyph-name="Aringacute" horiz-adv-x="349" d="M426 811Q441 811 449 820T458 844Q458 858 450 867T426 877Q411 877 403 868T394 844Q394 830 402 821T426 811ZM426 765Q391 765 369 787T346 844Q346 879 368 901T426 923Q461 923 483
901T506 844Q506 809 484 787T426 765ZM163 1054H269L224 939H120L163 1054ZM208 125H128L116 0H-2L92 744H250L351 0H222L208 125ZM141 253H195L167 508L141 253Z" />
<glyph unicode="&#x1fb;" glyph-name="aringacute" horiz-adv-x="339" d="M154 872H259L215 736H112L154 872ZM417 608Q432 608 440 617T449 641Q449 655 441 664T417 674Q402 674 394 665T385 641Q385 627 393 618T417 608ZM417 562Q382 562 360 584T337 641Q337
676 359 698T417 720Q452 720 474 698T497 641Q497 606 475 584T417 562ZM182 265Q177 262 167 255T149 240Q142 232 140 224T137 199V134Q137 119 141 111T158 102Q182 102 182 134V265ZM14 205Q14 247 27 272T70 315Q79 321 94 328T124 343T154 357T174 368Q178
370 180 373T182 388V417Q182 434 177 440T160 446H156Q143 446 139 439T134 417V364H20V438Q20 456 25 474T44 508T82 534T146 544H169Q209 544 235 536T277 511T299 474T305 426V129Q305 121 308 118T324 114H338V0H219Q200 0 191 14T182 61Q177 51 169 40T150
18T124 2T91 -5H87Q69 -5 55 3T32 24T19 53T14 88V205Z" />
<glyph unicode="&#x1fc;" glyph-name="AEacute" horiz-adv-x="515" d="M225 0V131H144L122 0H-6L134 744H496V612H358V451H465V316H358V134H506V0H225ZM225 258V602L166 258H225ZM302 885H408L363 770H259L302 885Z" />
<glyph unicode="&#x1fd;" glyph-name="aeacute" horiz-adv-x="489" d="M193 63Q177 36 152 16T92 -5H88Q69 -5 55 3T32 24T19 53T14 88V186Q14 228 27 253T70 296Q79 302 94 309T124 324T154 338T174 349Q178 351 180 354T182 369V417Q182 434 177 440T160 446H156Q143
446 139 439T134 417V345H20V438Q20 456 25 474T44 508T82 534T146 544H169Q207 544 224 535T249 517Q255 525 273 536T329 548H344Q407 548 441 515T476 401V251H305V134Q305 117 310 110T329 102Q344 102 349 111T354 134V214H476V124Q476 63 442 27T339 -10H318Q287
-10 265 -3T229 14T206 38T193 63ZM182 246Q177 243 167 236T149 221Q142 213 140 205T137 180V134Q137 119 141 111T158 102Q182 102 182 134V246ZM305 347H357V416Q357 430 352 439T331 448Q305 448 305 417V347ZM237 700H342L298 564H195L237 700Z" />
<glyph unicode="&#x1fe;" glyph-name="Oslashacute" horiz-adv-x="381" d="M180 885H286L241 771H137L180 885ZM363 170Q363 88 322 39T205 -11H180Q122 -11 84 24L74 0H0L33 82Q26 100 22 122T18 170V563Q18 606 27 641T55 701T104 739T178 753H203Q260 753 296
720L306 744H380L347 661Q363 625 363 564V170ZM192 122Q214 122 221 135T228 166V394L153 188V166Q153 149 161 136T192 122ZM191 623Q170 623 162 611T153 574V350L228 559V574Q228 623 191 623Z" />
<glyph unicode="&#x1ff;" glyph-name="oslashacute" horiz-adv-x="336" d="M158 700H263L219 566H116L158 700ZM15 142V397Q15 470 52 509T155 548H181Q210 548 231 540T268 519L278 538H344L309 469Q314 455 317 437T321 399V144Q321 111 312 83T284 34T240 2T181
-10H155Q127 -10 106 -1T70 20L60 0H-7L29 70Q21 86 18 104T15 142ZM196 401Q196 418 191 428T168 438Q152 438 146 428T140 401V264L196 387V401ZM168 105Q185 105 190 116T196 143V272L140 151V143Q140 127 145 116T168 105Z" />
<glyph unicode="&#x218;" glyph-name="uni0218" horiz-adv-x="359" d="M195 753Q273 753 305 718T338 607V507H210V600Q210 618 205 628T181 639Q164 639 158 629T152 599V582Q152 556 160 535T193 486L269 401Q294 373 310 349T335 302T347 257T350 210V175Q350
91 311 41T188 -9H162Q86 -9 48 30T10 145V279H141V160Q141 115 175 115Q208 115 208 169V183Q208 202 207 217T202 244T189 270T165 299L88 384Q46 429 32 474T17 573V605Q17 677 57 715T168 753H195ZM156 51Q161 63 164 79T170 118H127V228H229V158Q229 116 221
89T207 51H156Z" />
<glyph unicode="&#x219;" glyph-name="uni0219" horiz-adv-x="302" d="M289 446V373H175V429Q175 442 171 449T154 457Q141 457 137 449T133 429V418Q133 400 137 390T156 366L227 296Q248 275 261 258T282 223T293 187T296 147V129Q296 101 288 76T264 32T223
2T163 -9H137Q102 -9 78 0T37 25T14 62T7 108V196H125V124Q125 94 148 94H149Q170 94 170 125V137Q170 157 165 172T142 204L74 269Q38 304 26 336T14 411V428Q14 482 45 515T140 548H167Q235 548 262 520T289 446ZM384 52Q389 64 392 80T398 119H355V229H457V159Q457
117 449 90T435 52H384Z" />
<glyph unicode="&#x21a;" glyph-name="uni021A" horiz-adv-x="339" d="M404 -203Q409 -191 412 -175T418 -136H375V-26H477V-96Q477 -138 469 -165T455 -203H404ZM331 744V613H236V0H103V613H8V744H331Z" />
<glyph unicode="&#x21b;" glyph-name="uni021B" horiz-adv-x="267" d="M128 0Q102 0 85 18T67 66V419H6V538H67V716H194V538H256V419H194V143Q194 132 197 127T213 121H256V0H128ZM149 -203Q154 -191 157 -175T163 -136H120V-26H222V-96Q222 -138 214 -165T200 -203H149Z" />
<glyph unicode="&#x237;" glyph-name="uni0237" horiz-adv-x="165" d="M1 -69Q11 -69 15 -65T19 -48V538H147V-116Q147 -145 128 -166T73 -188H-51V-69H1Z" />
<glyph unicode="&#x2c6;" glyph-name="circumflex" horiz-adv-x="342" d="M286 564H195L171 626L146 564H57L118 700H224L286 564Z" />
<glyph unicode="&#x2c7;" glyph-name="caron" horiz-adv-x="342" d="M57 700H148L172 638L197 700H286L224 564H119L57 700Z" />
<glyph unicode="&#x2d8;" glyph-name="breve" horiz-adv-x="342" d="M174 563H171Q123 563 93 590T63 672V680H148V674Q148 641 172 641H173Q197 641 197 674V680H280V672Q280 618 249 591T174 563Z" />
<glyph unicode="&#x2d9;" glyph-name="dotaccent" horiz-adv-x="342" d="M235 564H107V690H235V564Z" />
<glyph unicode="&#x2da;" glyph-name="ring" horiz-adv-x="342" d="M171 608Q186 608 194 617T203 641Q203 655 195 664T171 674Q156 674 148 665T139 641Q139 627 147 618T171 608ZM171 562Q136 562 114 584T91 641Q91 676 113 698T171 720Q206 720 228 698T251
641Q251 606 229 584T171 562Z" />
<glyph unicode="&#x2db;" glyph-name="ogonek" horiz-adv-x="342" d="M102 -109Q102 -81 122 -55T176 0H238Q213 -31 204 -48T194 -84V-88Q194 -108 220 -108H238V-188H180Q148 -188 125 -172T102 -124V-109Z" />
<glyph unicode="&#x2dc;" glyph-name="tilde" horiz-adv-x="342" d="M279 678V622Q279 597 265 580T225 563Q208 563 197 567T165 582Q154 587 150 589T142 591Q137 591 136 588T135 579V563H63V610Q63 640 77 659T118 678Q135 678 146 674T177 660Q188 655 192
654T200 652Q206 652 206 662V678H279Z" />
<glyph unicode="&#x2dd;" glyph-name="hungarumlaut" horiz-adv-x="342" d="M84 700H172L146 564H60L84 700ZM194 700H282L254 564H169L194 700Z" />
</font>
</defs>
</svg>
