<?xml version="1.0" standalone="no"?>
<!DOCTYPE svg PUBLIC "-//W3C//DTD SVG 1.1//EN" "http://www.w3.org/Graphics/SVG/1.1/DTD/svg11.dtd" >
<svg xmlns="http://www.w3.org/2000/svg" xmlns:xlink="http://www.w3.org/1999/xlink" version="1.1">
<metadata>
Created by FontForge 20161003 at Wed Jul 26 09:35:59 2017
 By www-data
Copyright 1990-1998 Bitstream Inc.  All rights reserved.
</metadata>
<defs>
<font id="fraktur_bt" horiz-adv-x="1024" >
  <font-face 
    font-family="fraktur_bt"
    font-weight="400"
    font-stretch="normal"
    units-per-em="2048"
    panose-1="3 2 7 2 4 5 8 4 5 4"
    ascent="1556"
    descent="-492"
    x-height="1010"
    cap-height="1493"
    bbox="-342 -483 2054 2017"
    underline-thickness="80"
    underline-position="-319"
    unicode-range="U+0020-F002"
  />
<missing-glyph horiz-adv-x="1229" 
d="M102 -362v1806h1024v-1806h-1024zM217 -248h795v1577h-795v-1577z" />
    <glyph glyph-name=".notdef" horiz-adv-x="1229" 
d="M102 -362v1806h1024v-1806h-1024zM217 -248h795v1577h-795v-1577z" />
    <glyph glyph-name=".null" horiz-adv-x="0" 
 />
    <glyph glyph-name="nonmarkingreturn" horiz-adv-x="530" 
 />
    <glyph glyph-name="space" unicode=" " horiz-adv-x="530" 
 />
    <glyph glyph-name="exclam" unicode="!" horiz-adv-x="530" 
d="M242 461l-64 754q-1 15 -4 43q-4 47 -4 61q0 58 24 87.5t72 29.5t71 -29t23 -88q0 -10 -2 -38t-6 -67l-63 -753h-47zM408 72q-52 -14 -80.5 -42.5t-38.5 -76.5h-47q-11 49 -39 77t-80 42v47q52 14 80 42t39 77h47q10 -49 38.5 -77t80.5 -42v-47z" />
    <glyph glyph-name="quotedbl" unicode="&#x22;" horiz-adv-x="678" 
d="M518 864h-31l-65 457q0 2 -1 6q-3 22 -3 33q0 49 22.5 75.5t63.5 26.5q40 0 62 -26t22 -74q0 -14 -0.5 -23t-1.5 -18zM190 864h-32l-64 457q-2 17 -3 26t-1 15q0 48 22 74t62 26q41 0 63.5 -26t22.5 -74q0 -9 -3 -34q-1 -5 -1 -7z" />
    <glyph glyph-name="numbersign" unicode="#" horiz-adv-x="1575" 
d="M700 868l-100 -286h289l102 286h-291zM778 1456h133l-168 -471h287l168 471h131l-166 -471h307l-40 -117h-310l-100 -286h332l-43 -115h-330l-166 -469h-133l166 469h-287l-166 -469h-131l166 469h-324l43 115h322l100 286h-348l43 117h348z" />
    <glyph glyph-name="dollar" unicode="$" horiz-adv-x="1063" 
d="M418 1350q-68 -24 -106 -77t-38 -124q0 -65 35 -117.5t109 -97.5v416zM569 1364q-12 1 -23 1.5t-22 0.5q-10 0 -25.5 -1.5t-37.5 -4.5v-451l108 -71v526zM569 614l-108 68v-655q10 0 23 -1t16 -1q30 0 44.5 0.5t24.5 1.5v587zM612 35q92 23 144.5 93t52.5 169
q0 82 -47 151.5t-150 137.5v-551zM612 -14v-224h-43v218q-8 -1 -24 -2q-29 -3 -37 -3q-3 0 -19 2t-28 3v-218h-43v222q-147 23 -243.5 107t-96.5 183q0 48 25.5 73.5t72.5 25.5q42 0 67 -25.5t25 -66.5q0 -7 -2 -36.5t-2 -54.5q0 -48 44 -93.5t110 -61.5v678
q-159 93 -224 175.5t-65 184.5q0 122 78.5 211.5t210.5 118.5v162h43v-156q3 0 11 1q41 3 60 3h6q18 -2 31 -2v154h43v-158q151 -28 237.5 -102.5t86.5 -174.5q0 -46 -24.5 -71t-71.5 -25q-46 0 -69 26.5t-23 78.5q0 22 2 49.5t2 34.5q0 41 -38 77.5t-102 55.5v-545
q204 -129 273 -219.5t69 -208.5q0 -149 -91 -255t-251 -142z" />
    <glyph glyph-name="percent" unicode="%" horiz-adv-x="1395" 
d="M920 367q0 -188 30.5 -267.5t100.5 -79.5q69 0 99 78.5t30 268.5t-30 268t-99 78q-70 0 -100.5 -79t-30.5 -267zM1049 758q112 0 193 -113t81 -278t-81 -278.5t-193 -113.5q-111 0 -191 114t-80 278t80.5 277.5t190.5 113.5zM213 1020q0 -187 30.5 -265.5t100.5 -78.5
t99.5 77.5t29.5 266.5q0 191 -30 269.5t-99 78.5q-70 0 -100.5 -80t-30.5 -268zM342 1413q113 0 193.5 -113.5t80.5 -279.5q0 -165 -80.5 -277t-193.5 -112q-110 0 -190 112.5t-80 276.5t80.5 278.5t189.5 114.5zM381 -25h-100l731 1438h102z" />
    <glyph glyph-name="ampersand" unicode="&#x26;" horiz-adv-x="1298" 
d="M729 160l-344 512q-86 -49 -130 -123.5t-44 -169.5q0 -134 87.5 -229t211.5 -95q70 0 126 27t93 78zM485 797q89 68 123.5 128.5t34.5 139.5q0 87 -41 136.5t-113 49.5q-64 0 -103.5 -42.5t-39.5 -112.5q0 -59 30.5 -126t108.5 -173zM1217 197l47 -11
q-41 -113 -111.5 -173t-161.5 -60q-59 0 -112.5 37.5t-118.5 128.5q-75 -89 -156 -127.5t-192 -38.5q-160 0 -262.5 98.5t-102.5 249.5q0 113 76.5 213.5t234.5 196.5q-70 115 -98.5 186t-28.5 127q0 121 76 198.5t195 77.5q105 0 173 -64t68 -161q0 -78 -57 -155.5
t-178 -163.5l309 -463q11 32 31 93q118 364 270 364q40 0 74 -14.5t55 -41.5q-13 -27 -29.5 -57t-37.5 -66l-33 7q-3 24 -21.5 39.5t-44.5 15.5q-95 0 -174 -225q-35 -99 -59 -156q62 -99 112.5 -141.5t102.5 -42.5q50 0 85.5 29t68.5 100z" />
    <glyph glyph-name="quotesingle" unicode="'" horiz-adv-x="348" 
d="M190 864h-32l-66 457q-1 8 -1.5 16t-0.5 23q0 50 21.5 76t62.5 26t63.5 -26t22.5 -74q0 -9 -3 -34q-1 -5 -1 -7z" />
    <glyph glyph-name="parenleft" unicode="(" horiz-adv-x="541" 
d="M516 1427q-132 -158 -202 -365t-70 -439t70 -438t202 -365v-58q-209 162 -320.5 384.5t-111.5 476.5q0 252 113 478.5t319 383.5v-58z" />
    <glyph glyph-name="parenright" unicode=")" horiz-adv-x="541" 
d="M25 -180q131 158 200.5 363.5t69.5 439.5q0 233 -69.5 440t-200.5 364v56q208 -162 320 -384t112 -476q0 -252 -112.5 -476.5t-319.5 -384.5v58z" />
    <glyph glyph-name="asterisk" unicode="*" 
d="M565 1190l273 115l14 -25l-236 -180l236 -178l-14 -27l-275 115l-37 -293h-28l-39 295l-273 -117l-14 27l236 178l-236 180l14 25l275 -115l37 295h28z" />
    <glyph glyph-name="plus" unicode="+" horiz-adv-x="1706" 
d="M795 1221h118v-551h539v-117h-539v-553h-118v553h-541v117h541v551z" />
    <glyph glyph-name="comma" unicode="," horiz-adv-x="530" 
d="M90 -346l105 467q14 65 38 93t66 28q34 0 54 -18t20 -50q0 -23 -28 -81l-3 -7l-211 -432h-41z" />
    <glyph glyph-name="hyphen" unicode="-" horiz-adv-x="541" 
d="M47 412v94l447 295v-92zM47 178v92l447 297v-94z" />
    <glyph glyph-name="period" unicode="." horiz-adv-x="530" 
d="M408 72q-52 -14 -80.5 -42.5t-38.5 -76.5h-47q-11 49 -39 77t-80 42v47q52 14 80 42t39 77h47q10 -49 38.5 -77t80.5 -42v-47z" />
    <glyph glyph-name="slash" unicode="/" horiz-adv-x="569" 
d="M-49 -190l586 1675h81l-587 -1675h-80z" />
    <glyph glyph-name="zero" unicode="0" horiz-adv-x="1063" 
d="M530 1413q178 0 307.5 -207t129.5 -512q0 -304 -129.5 -511.5t-307.5 -207.5q-177 0 -306.5 207.5t-129.5 511.5q0 306 129 512.5t307 206.5zM289 694q0 -368 55.5 -518.5t185.5 -150.5t186 150.5t56 518.5q0 369 -56 520.5t-186 151.5q-129 0 -185 -151.5t-56 -520.5z
" />
    <glyph glyph-name="one" unicode="1" horiz-adv-x="1063" 
d="M653 207v-64q0 -53 26.5 -74.5t94.5 -21.5h80v-47h-551v47h80q69 0 94 21.5t25 81.5v57v954q0 53 -4 84t-11 31t-22.5 -12t-40.5 -37l-199 -191l-32 35l309 299l15 15q27 28 77 28h59v-1206z" />
    <glyph glyph-name="two" unicode="2" horiz-adv-x="1063" 
d="M72 0v31q39 64 109 143t202 207q223 217 295 337t72 243q0 131 -82.5 216t-210.5 85q-127 0 -216 -80t-118 -219h-45q23 207 142 328.5t298 121.5q167 0 279 -111.5t112 -279.5q0 -119 -66.5 -233.5t-224.5 -258.5q-19 -17 -60 -54q-210 -186 -316 -322h395q124 0 174 37
t98 163l39 -8q-31 -83 -54.5 -169t-39.5 -177h-782z" />
    <glyph glyph-name="three" unicode="3" horiz-adv-x="1063" 
d="M309 735q205 55 309.5 140t104.5 196q0 100 -75.5 168t-190.5 68q-80 0 -154 -44t-139 -130l-37 18q73 137 170 199.5t233 62.5q150 0 251.5 -84t101.5 -203q0 -115 -78 -194t-275 -160h31q176 0 290 -99.5t114 -256.5q0 -189 -131.5 -315t-333.5 -126q-171 0 -287.5 84
t-116.5 195q0 47 25 74.5t65 27.5q43 0 69 -23t26 -61q0 -20 -3.5 -48.5t-3.5 -35.5q0 -71 63 -117t163 -46q140 0 215.5 78.5t75.5 224.5q0 170 -94 272t-248 102q-35 0 -68 -3t-66 -9z" />
    <glyph glyph-name="four" unicode="4" horiz-adv-x="1063" 
d="M127 522h451l6 742zM727 207v-64q0 -53 26.5 -74.5t94.5 -21.5h80v-47h-551v47h80q69 0 93.5 21.5t24.5 81.5v57v196h-509v119l546 885l115 6v-891h238v-119h-238v-196z" />
    <glyph glyph-name="five" unicode="5" horiz-adv-x="1063" 
d="M162 696q25 70 44.5 256t31.5 461h36q53 -27 129 -40t179 -13q94 0 167 13t134 40h43q-69 -107 -183.5 -163t-265.5 -56q-54 0 -104 8t-99 25q-10 -145 -19.5 -248.5t-18.5 -179.5q60 50 131 74t155 24q196 0 315 -123t119 -325q0 -205 -135.5 -339.5t-339.5 -134.5
q-162 0 -275.5 86t-113.5 197q0 50 25.5 77t70.5 27q44 0 66 -22.5t22 -67.5q0 -17 -8 -49t-8 -51q0 -69 58.5 -108t162.5 -39q149 0 229.5 92.5t80.5 263.5q0 182 -95 302t-237 120q-65 0 -133 -31.5t-129 -89.5z" />
    <glyph glyph-name="six" unicode="6" horiz-adv-x="1063" 
d="M561 25q116 0 178 88.5t62 255.5q0 184 -75.5 299.5t-193.5 115.5q-106 0 -170.5 -94t-64.5 -254q0 -184 74 -297.5t190 -113.5zM285 648q44 106 133.5 170.5t189.5 64.5q163 0 262 -110t99 -290q0 -206 -122 -357t-290 -151q-201 0 -331 172.5t-130 444.5
q0 155 44 310.5t122 281.5q72 115 158.5 172t189.5 57q122 0 209.5 -69.5t87.5 -163.5q0 -41 -22.5 -63.5t-63.5 -22.5q-45 0 -66.5 22.5t-21.5 69.5v59q0 51 -40 84t-105 33q-148 0 -226.5 -158.5t-78.5 -460.5q0 -38 0.5 -58.5t1.5 -36.5z" />
    <glyph glyph-name="seven" unicode="7" horiz-adv-x="1063" 
d="M375 -61q-16 46 -23.5 95t-7.5 101q0 143 58.5 302.5t179.5 344.5l295 455h-471q-102 0 -153.5 -43.5t-92.5 -163.5h-43q38 117 65 209.5t47 173.5h37q5 -14 16 -19t50 -5h665v-37q-46 -79 -134 -223q-347 -568 -347 -816q0 -80 16 -150.5t52 -150.5z" />
    <glyph glyph-name="eight" unicode="8" horiz-adv-x="1063" 
d="M588 823q110 41 163.5 109.5t53.5 169.5q0 122 -76.5 193t-208.5 71q-107 0 -174 -56t-67 -145q0 -94 80 -183t229 -159zM432 707q-108 -49 -165.5 -134t-57.5 -196q0 -156 93.5 -254t240.5 -98q121 0 198.5 72.5t77.5 185.5q0 122 -84 216.5t-303 207.5zM387 733
q-116 60 -179 152t-63 200q0 146 107 237t278 91q170 0 280 -88t110 -217q0 -104 -71.5 -183.5t-211.5 -129.5q170 -91 252 -199t82 -242q0 -161 -126 -270t-319 -109q-184 0 -310 110t-126 269q0 112 76.5 209.5t220.5 169.5z" />
    <glyph glyph-name="nine" unicode="9" horiz-adv-x="1063" 
d="M502 1364q-117 0 -179.5 -88.5t-62.5 -253.5q0 -186 75.5 -302t192.5 -116q107 0 171.5 94t64.5 254q0 185 -73 298.5t-189 113.5zM778 743q-47 -110 -136.5 -173.5t-197.5 -63.5q-155 0 -253.5 112t-98.5 291q0 206 123 355t289 149q200 0 331.5 -171.5t131.5 -438.5
q0 -156 -45.5 -319.5t-120.5 -280.5q-72 -114 -161.5 -171t-195.5 -57q-118 0 -203 71t-85 165q0 41 22.5 63.5t63.5 22.5q48 0 68 -24.5t20 -92.5q0 -80 34.5 -116.5t108.5 -36.5q149 0 228 160t79 462q0 38 -0.5 58t-1.5 36z" />
    <glyph glyph-name="colon" unicode=":" horiz-adv-x="530" 
d="M408 72q-52 -14 -80.5 -42.5t-38.5 -76.5h-47q-11 49 -39 77t-80 42v47q52 14 80 42t39 77h47q10 -49 38.5 -77t80.5 -42v-47zM408 797q-52 -14 -80.5 -42.5t-38.5 -76.5h-47q-11 48 -39 76.5t-80 42.5v47q52 14 80 42t39 77h47q10 -49 38.5 -77t80.5 -42v-47z" />
    <glyph glyph-name="semicolon" unicode=";" horiz-adv-x="530" 
d="M418 797q-51 -14 -78.5 -42t-38.5 -77h-49q-11 49 -38.5 77t-78.5 42v47q51 14 78.5 42t38.5 77h49q11 -49 38.5 -77t78.5 -42v-47zM88 -346l105 467q14 65 38 93t66 28q34 0 54 -18t20 -50q0 -23 -28 -81l-3 -7l-213 -432h-39z" />
    <glyph glyph-name="less" unicode="&#x3c;" horiz-adv-x="1706" 
d="M1442 1145v-127l-1000 -408l1000 -405v-129l-1178 483v103z" />
    <glyph glyph-name="equal" unicode="=" horiz-adv-x="1706" 
d="M254 477h1198v-117h-1198v117zM254 860h1198v-117h-1198v117z" />
    <glyph glyph-name="greater" unicode="&#x3e;" horiz-adv-x="1706" 
d="M264 1145l1178 -483v-103l-1178 -483v129l1000 405l-1000 408v127z" />
    <glyph glyph-name="question" unicode="?" horiz-adv-x="692" 
d="M256 387q-16 45 -23.5 82.5t-7.5 75.5q0 82 31 155t106 162l17 20q156 181 156 283q0 85 -58.5 147t-134.5 62q-46 0 -79.5 -24t-51.5 -70q-4 -11 -12 -36q-31 -99 -97 -99q-32 0 -53.5 22t-21.5 54q0 91 75 154t185 63q140 0 237 -105t97 -256q0 -93 -37.5 -173
t-153.5 -206q-10 -11 -30 -31q-111 -117 -111 -198q0 -14 2.5 -34.5t7.5 -47.5h-43zM410 72q-52 -14 -80.5 -42.5t-38.5 -76.5h-47q-11 49 -39 77t-80 42v47q52 14 80 42t39 77h47q10 -49 38.5 -77t80.5 -42v-47z" />
    <glyph glyph-name="at" unicode="@" horiz-adv-x="2019" 
d="M1190 336q-62 -106 -139 -158.5t-170 -52.5q-125 0 -201 92t-76 244q0 108 49 216t138 193q65 64 144 100t155 36q87 0 143 -49.5t78 -145.5l53 180h143l-170 -610q0 -2 -1 -5q-17 -59 -17 -104q0 -47 25.5 -74.5t68.5 -27.5q34 0 79 17.5t85 48.5q122 90 187 231t65 315
q0 140 -50 252t-153 203q-90 79 -216 122.5t-267 43.5q-187 0 -341.5 -58.5t-275.5 -175.5q-130 -126 -197 -293.5t-67 -369.5q0 -175 57 -304.5t181 -234.5q114 -97 261 -146.5t320 -49.5q163 0 317.5 52t295.5 154l30 -36q-148 -110 -313 -166t-342 -56q-187 0 -342 46.5
t-274 138.5q-151 113 -229.5 274.5t-78.5 358.5q0 204 86 381t250 313q131 110 291 165.5t344 55.5q347 0 553.5 -187t206.5 -499q0 -157 -58 -297t-163 -236q-57 -52 -123.5 -80t-134.5 -28q-97 0 -149 52.5t-58 158.5zM1098 965q-54 0 -99 -31t-92 -100
q-72 -108 -114.5 -234t-42.5 -225q0 -93 40.5 -147t108.5 -54q66 0 126 44.5t116 133.5q57 94 91 202.5t34 197.5q0 93 -47.5 153t-120.5 60z" />
    <glyph glyph-name="A" unicode="A" horiz-adv-x="1360" 
d="M1011 274q-120 -88 -312 -186.5t-246 -138.5l-35 26q3 3 8 9q20 19 20 26q0 14 -41.5 53.5t-128.5 106.5q-61 48 -85.5 61t-45.5 13q-11 0 -29 -4t-40 -10l-15 44q342 98 491.5 247t149.5 386q0 183 -84 290.5t-227 107.5q-118 0 -197 -91t-79 -229t81 -226t232 -114
l-14 -43q-169 25 -263 135.5t-94 284.5q0 199 111.5 331t277.5 132q177 0 290.5 -139t113.5 -361q0 -203 -120 -362.5t-368 -286.5l193 -164q26 -23 46 -32t42 -9q42 0 142.5 55t224.5 148v844q0 50 -5 95t-16 91l37 12l35 -108q15 90 86.5 154.5t146.5 64.5q1 0 6.5 1
t10.5 1v-39q-72 -33 -106 -104.5t-34 -190.5v-813q0 -87 12 -109t44 -22q18 0 40.5 11.5t51.5 35.5l29 -29q-73 -80 -130.5 -150.5t-103.5 -135.5l-37 12q1 3 2 7q6 20 6 32q0 6 -37.5 69t-37.5 166q0 18 0.5 27.5t0.5 17.5z" />
    <glyph glyph-name="B" unicode="B" horiz-adv-x="1688" 
d="M926 795q219 116 302 165.5t83 61.5q0 13 -34 66.5t-97 140.5q-43 58 -58.5 73t-25.5 15q-16 0 -82.5 -30.5t-149.5 -78.5q35 -85 51.5 -160t16.5 -151q0 -17 -3 -52.5t-3 -49.5zM451 354q96 -37 294 -172t340 -135q153 0 256 101t103 251q0 163 -116.5 267t-295.5 104
q-27 0 -55 -5t-59 -15q-27 -152 -104.5 -227.5t-362.5 -168.5zM115 61q-12 23 -18.5 45.5t-6.5 43.5q0 89 72.5 148.5t193.5 70.5q211 53 305.5 165.5t94.5 309.5q0 225 -96.5 355t-262.5 130q-113 0 -192.5 -82.5t-79.5 -204.5q0 -140 94.5 -242.5t239.5 -115.5l-15 -47
q-164 20 -266 137t-102 283q0 184 111 306t282 122q117 0 211.5 -58.5t163.5 -173.5q39 21 119 62q212 108 315 174l28 -32q-14 -12 -21 -23t-7 -21q0 -18 28.5 -74t71.5 -118q37 -53 60.5 -77t38.5 -24q8 0 18 3t27 12l20 -35l-319 -195q178 -36 278.5 -148t100.5 -274
q0 -130 -69 -240t-187 -171q-105 -53 -249 -86t-270 -33q-57 0 -177 84q-21 15 -31 22q-170 115 -245.5 153t-121.5 38q-50 0 -83.5 -29t-33.5 -71q0 -12 4 -28.5t13 -37.5z" />
    <glyph glyph-name="C" unicode="C" horiz-adv-x="1298" 
d="M645 197q59 87 79.5 139t20.5 104q0 41 -17.5 100t-61.5 160q-28 64 -77 167q-73 157 -73 192q0 24 134 172q29 32 44 49q-6 73 -53.5 116.5t-120.5 43.5q-125 0 -201.5 -154t-76.5 -409q0 -251 107.5 -432t295.5 -248zM1239 229l25 -30q-89 -82 -144 -135t-102 -103
q-32 -7 -66 -10.5t-71 -3.5q-348 0 -567.5 229t-219.5 598q0 314 120 513.5t304 199.5q83 0 139.5 -42.5t77.5 -121.5l20 22q129 140 148 140q18 0 107.5 -45t130.5 -45q17 0 40 22.5t46 61.5l35 -25l-140 -201q-4 -6 -13.5 -11t-16.5 -5q-30 0 -128.5 45t-140.5 45
q-24 0 -87.5 -67.5t-63.5 -100.5q0 -35 98 -272l21 -49q9 -24 28 -68q92 -219 92 -260q0 -25 -84.5 -137.5t-138.5 -194.5q56 -18 115 -27.5t119 -9.5q89 0 164 21t153 67z" />
    <glyph glyph-name="D" unicode="D" horiz-adv-x="1655" 
d="M129 170q88 88 161.5 128t145.5 40q17 0 33.5 -1.5t31.5 -4.5q95 38 142 75t47 72q0 27 -22 72.5t-78 132.5q-21 33 -61 87q-85 118 -85 173q0 94 136 171t354 99q-118 61 -239 94t-226 33q-167 0 -270 -97.5t-103 -252.5q0 -93 48.5 -160.5t138.5 -101.5l-17 -43
q-106 40 -161.5 121t-55.5 197q0 209 151.5 350t379.5 141q161 0 315 -55.5t281 -159.5q175 -142 274.5 -337t99.5 -392q0 -146 -50.5 -262t-153.5 -207q-82 -73 -204 -124.5t-204 -51.5q-51 0 -110 24t-138 76q-32 22 -89 61q-211 146 -282 146q-38 0 -74.5 -15t-90.5 -57z
M561 303q67 -39 179 -117q218 -151 339 -151q155 0 268 113.5t113 273.5q0 205 -121.5 403.5t-343.5 350.5q-166 -11 -274.5 -62.5t-108.5 -109.5q0 -45 108 -202q21 -30 32 -46q56 -83 84 -142t28 -92q0 -64 -255 -194q-31 -16 -48 -25z" />
    <glyph glyph-name="E" unicode="E" horiz-adv-x="1319" 
d="M1239 246l27 -35q-75 -59 -159.5 -120.5t-183.5 -127.5q-22 -5 -49.5 -7.5t-66.5 -2.5q-327 0 -520 228.5t-193 615.5q0 317 118.5 503.5t317.5 186.5q84 0 146.5 -40.5t79.5 -90.5l1 1q107 130 126 130q35 0 121 -24.5t120 -24.5q20 0 36 12t34 39l37 -16
q-33 -58 -73 -137q-36 -72 -46 -72q-29 0 -127 35.5t-158 35.5q-28 0 -75 -53.5t-47 -83.5q0 -22 47 -102t130 -196l3 1q137 113 159 162h33q33 -43 70.5 -71t83.5 -44v-37q-33 -21 -56 -46t-40 -60h-37q-23 32 -55 56.5t-78 45.5l-60 -49q43 -67 61.5 -104.5t18.5 -57.5
q0 -15 -21.5 -80.5t-31.5 -119.5q-23 -116 -73 -166.5t-140 -50.5q-94 0 -158 53t-96 157l45 15q32 -91 81 -134.5t118 -43.5q74 0 119.5 45t45.5 116q0 39 -19 91t-62 129q-63 110 -148.5 242.5t-85.5 150.5t108 150q34 43 54 67q-18 55 -70 89t-116 34q-136 0 -216.5 -141
t-80.5 -384q0 -372 157.5 -574t448.5 -202q110 0 208 26.5t187 80.5z" />
    <glyph glyph-name="F" unicode="F" horiz-adv-x="1133" 
d="M98 373q25 51 64.5 79.5t85.5 28.5q70 0 117 -51t47 -129q0 -88 -87 -213.5t-87 -193.5q0 -98 94 -168t231 -70q133 0 214 79t81 212q0 157 -201 417q-36 47 -55 72q-12 17 -36 48q-163 214 -163 323q0 99 84 227.5t232 253.5q-96 41 -185.5 62.5t-164.5 21.5
q-144 0 -236 -84.5t-92 -212.5q0 -78 42.5 -133.5t127.5 -89.5l-16 -45q-101 41 -152 110.5t-51 165.5q0 176 140.5 297t348.5 121q190 0 401.5 -95t213.5 -95q11 0 26 10.5t37 34.5l29 -31l-166 -166q-13 -13 -18.5 -16.5t-10.5 -3.5q-11 0 -83.5 47.5t-145.5 81.5
q-109 -91 -168 -184t-59 -171q0 -51 29 -115t85 -134q78 53 118.5 91.5t61.5 78.5h39q19 -33 53 -51.5t85 -24.5v-47q-32 -12 -56 -37t-45 -66h-43q-23 31 -49 47.5t-51 16.5q-13 0 -31 -9.5t-51 -35.5l28 -36q289 -363 289 -540q0 -195 -121 -319.5t-311 -124.5
q-180 0 -298.5 99.5t-118.5 246.5q0 58 21 110t69 109q13 17 40 46q64 69 64 122q0 41 -27 67.5t-69 26.5q-31 0 -60 -21.5t-47 -58.5z" />
    <glyph glyph-name="G" unicode="G" horiz-adv-x="1546" 
d="M270 793q41 -386 196.5 -590.5t405.5 -204.5q184 0 302 109t118 276q0 165 -97 279t-234 114q-70 0 -188 -74.5t-206 -74.5q-75 0 -145.5 39t-151.5 127zM268 865q85 -98 152.5 -142.5t130.5 -44.5q75 0 119.5 43.5t44.5 118.5q0 69 -62.5 205.5t-62.5 162.5
q0 37 33.5 91t99.5 122q-24 7 -46 10t-44 3q-180 0 -271.5 -144t-93.5 -425zM1169 899q134 -61 208.5 -168.5t74.5 -241.5q0 -239 -165 -387.5t-437 -148.5q-345 0 -550.5 221t-205.5 590q0 319 147.5 520t374.5 201q38 0 74 -6.5t70 -20.5q8 7 23 19q32 28 48 41l27 -27
q-11 -10 -21 -21.5t-28 -33.5q36 -20 63 -37.5t52 -36.5l-29 -39q-24 23 -52.5 41t-62.5 33q-16 -24 -24 -45.5t-8 -40.5q0 -46 63 -171t63 -186q0 -24 -21 -75.5t-58 -116.5q57 46 178 90q33 12 49 18q100 41 163.5 109.5t63.5 130.5q0 50 -115 155q-27 25 -42 40
q-19 16 -25 24.5t-6 16.5q0 18 121 145l2 2l28 -23q-1 -2 -3 -5q-9 -15 -9 -19q0 -12 26 -44.5t79 -84.5q9 -10 25 -26q47 -48 65 -48q8 0 13.5 1t10.5 3l19 -22q-56 -44 -134 -161t-135 -165z" />
    <glyph glyph-name="H" unicode="H" horiz-adv-x="1399" 
d="M-35 393q40 23 81 50.5t87 62.5q68 -87 126 -128.5t112 -41.5q47 0 78.5 31.5t31.5 81.5q0 53 -89 256q-28 64 -44 100q-58 137 -74 183.5t-16 70.5q0 26 22 72t68 116q73 110 131.5 174t83.5 64q26 0 101.5 -38t111.5 -38q26 0 50 15t46 44l35 -22q-31 -36 -80 -93
q-85 -100 -102 -100q-40 0 -124 42t-105 42q-28 0 -62.5 -49.5t-34.5 -101.5q0 -42 21.5 -103.5t71.5 -160.5q89 66 222.5 137.5t145.5 107.5h41q14 -18 77 -52.5t101 -65.5q99 -82 152 -205.5t53 -272.5q0 -204 -110 -358.5t-295 -212.5q-88 -27 -190 -44t-107 -31l-37 9
q-17 44 -52.5 70.5t-76.5 26.5q-57 0 -95 -46t-38 -116q0 -80 52 -134t130 -54q50 0 88 26t59 76l43 -21q-32 -63 -80.5 -96t-109.5 -33q-97 0 -163 68t-66 166q0 93 53.5 157.5t159.5 96.5q21 6 57 14q60 14 67 30l35 -5q-1 -1 -1.5 -2.5t-0.5 -5.5q0 -19 44 -54t120 -75
q160 20 258 151t98 326q0 209 -107.5 346t-268.5 137q-59 0 -123 -29t-121 -82q61 -138 89 -221.5t28 -126.5q0 -93 -112 -177.5t-237 -84.5q-88 0 -172.5 52.5t-103.5 52.5q-2 0 -6 -1t-6 -1z" />
    <glyph glyph-name="I" unicode="I" horiz-adv-x="1194" 
d="M352 879l-12 -48q-130 23 -206.5 102t-76.5 191q0 113 76.5 195.5t222.5 126.5q22 6 59 13q56 10 56 34h45v-2q0 -20 125 -89q66 -37 107 -61q76 -45 109 -59t56 -14q32 0 66.5 22.5t34.5 40.5q0 10 -5.5 18.5t-17.5 14.5l-2.5 10l-1.5 6q0 18 14.5 30.5t36.5 12.5
q23 0 37.5 -17.5t14.5 -45.5q0 -24 -19 -50.5t-53 -49.5q-64 -45 -141.5 -78t-102.5 -33q-41 0 -155 73q-62 39 -99 60q-46 27 -94.5 41t-93.5 14q-95 0 -161.5 -62.5t-66.5 -150.5q0 -94 68 -161.5t180 -83.5zM82 84l-45 12q29 81 80.5 120.5t126.5 39.5q32 0 82 -9t65 -9
q16 0 30 4.5t28 13.5l32 -18v-19q0 -72 66.5 -126t154.5 -54q98 0 165 62t67 151q0 61 -76 189l-27 45q-70 122 -110.5 215.5t-40.5 129.5q0 32 28.5 87t75.5 108q47 54 101 85.5t98 31.5q40 0 62 -19t22 -53q0 -28 -13 -43.5t-36 -15.5q-10 0 -16.5 3t-14.5 11
q3 8 3.5 11.5t0.5 6.5q0 15 -12.5 23t-34.5 8q-48 0 -81.5 -40.5t-33.5 -100.5q0 -64 85 -220q13 -23 20 -36q14 -26 40 -73q105 -193 105 -247q0 -61 -37.5 -131.5t-103.5 -134.5q-62 -59 -144 -85.5t-206 -26.5h-35q-53 0 -76.5 -7.5t-40.5 -25.5l-39 18
q-14 96 -69.5 158.5t-120.5 62.5q-42 0 -73.5 -26t-51.5 -76z" />
    <glyph glyph-name="J" unicode="J" horiz-adv-x="1194" 
d="M352 879l-12 -48q-130 23 -206.5 102t-76.5 191q0 113 76.5 195.5t222.5 126.5q22 6 59 13q56 10 56 34h45v-2q0 -20 125 -89q66 -37 107 -61q76 -45 109 -59t56 -14q32 0 66.5 22.5t34.5 40.5q0 10 -5.5 18.5t-17.5 14.5l-2.5 10l-1.5 6q0 18 14.5 30.5t36.5 12.5
q23 0 37.5 -17.5t14.5 -45.5q0 -24 -19 -50.5t-53 -49.5q-64 -45 -141.5 -78t-102.5 -33q-41 0 -155 73q-62 39 -99 60q-46 27 -94.5 41t-93.5 14q-95 0 -161.5 -62.5t-66.5 -150.5q0 -94 68 -161.5t180 -83.5zM86 -199l-43 13q28 79 79.5 119t127.5 40q32 0 82 -9t65 -9
t28 4.5t28 13.5l34 -18q-1 -6 -1.5 -10.5t-0.5 -7.5q0 -73 69 -128t157 -55q103 0 166 54.5t63 144.5q0 82 -99 321q-12 28 -18 43q-91 223 -126 329t-35 153q0 28 15.5 66t45.5 83q60 91 130 143t130 52q40 0 62 -19t22 -53q0 -28 -13 -43.5t-36 -15.5q-10 0 -16.5 3
t-14.5 11q3 8 3.5 11.5t0.5 6.5q0 15 -12.5 23t-34.5 8q-52 0 -87.5 -48.5t-35.5 -123.5q0 -98 124 -389q32 -74 48 -115q56 -131 79.5 -208.5t23.5 -129.5q0 -66 -45 -139.5t-127 -142.5q-53 -45 -136 -63.5t-260 -18.5q-26 0 -47.5 -8.5t-38.5 -24.5l-41 19
q-12 94 -68 157.5t-122 63.5q-42 0 -73.5 -26t-51.5 -77z" />
    <glyph glyph-name="K" unicode="K" horiz-adv-x="1327" 
d="M76 -39l-37 23q6 15 9 29t3 28q0 46 -11 82.5t-32 60.5l31 39q17 -8 35 -12t41 -4q36 0 61 8.5t41 26.5l37 -25q-12 -25 -17.5 -47t-5.5 -43q0 -61 37 -96t101 -35q79 0 119 47.5t40 140.5q0 94 -34.5 198.5t-106.5 227.5q-38 67 -106 174q-109 171 -109 224
q0 33 21.5 79.5t64.5 106.5q102 142 240 216.5t299 74.5q119 0 222.5 -38t182.5 -112q70 -65 111 -140t41 -136q0 -34 -17.5 -52t-50.5 -18q-13 0 -22.5 4t-16.5 13q2 11 4 28q4 32 4 41q0 143 -131 252t-315 109q-192 0 -329.5 -109t-137.5 -246q0 -70 228 -447l11 -19l5 1
l-66 226q-7 26 -10.5 47t-3.5 39q0 65 42 110.5t206 118.5q4 2 11 5q67 30 93 67h41q62 -114 132.5 -198.5t92.5 -84.5h2v-43q-39 -22 -100 -61.5t-152 -102.5q53 -12 132 -226q13 -35 20 -54q7 -20 22 -59q107 -296 175 -296q15 0 33.5 6.5t39.5 18.5l27 -33
q-35 -27 -74.5 -61t-89.5 -80q-4 -1 -9 -1.5t-13 -0.5q-49 0 -90.5 49.5t-88.5 165.5q-35 88 -86 228q-90 245 -139 245q-14 0 -47 -19.5t-78 -54.5q26 -66 40 -135.5t14 -136.5q0 -165 -76 -255.5t-213 -90.5q-50 0 -126 16.5t-102 16.5q-19 0 -35.5 -5t-33.5 -16zM623 639
l282 180q20 12 27.5 22.5t7.5 22.5q0 13 -25 51.5t-67 90.5q-34 40 -57.5 56.5t-47.5 16.5q-55 0 -123.5 -51t-68.5 -108q0 -16 2 -29.5t6 -26.5z" />
    <glyph glyph-name="L" unicode="L" horiz-adv-x="1110" 
d="M20 57q45 77 94 178t66 101q8 0 61 -16q23 -7 35 -11q63 32 97.5 74.5t34.5 89.5q0 69 -121 231q-36 49 -56 76q-75 106 -102 163.5t-27 103.5q0 37 13 85.5t32 86.5q73 138 183 207t260 69q178 0 290.5 -105t112.5 -270q0 -52 -16 -112.5t-16 -69.5q0 -8 2.5 -15
t9.5 -14l-27 -32q-11 4 -23.5 7t-23.5 3q-65 0 -113.5 -35.5t-48.5 -81.5q0 -37 29.5 -60.5t75.5 -23.5q23 0 47.5 6.5t48.5 18.5l14 -45q-29 -13 -56 -19t-52 -6q-78 0 -121 42t-43 118q0 51 22.5 104t22.5 60q0 6 -6 18l-2 4l32 20q11 -2 22 -3.5t24 -2.5q57 0 96 43.5
t39 110.5q0 129 -95 211t-245 82q-148 0 -242 -79.5t-94 -201.5q0 -101 129 -278q32 -44 49 -68q81 -114 103 -164.5t22 -97.5q0 -74 -58 -141t-177 -129q31 -15 88 -42q288 -134 372 -134q72 0 168 123q12 16 19 24l39 -27q-45 -60 -101 -126t-137 -152q-18 -4 -32.5 -6
t-24.5 -2q-63 0 -149.5 28.5t-213.5 92.5q-73 36 -125 55.5t-71 19.5q-23 0 -77 -75q-14 -20 -22 -31z" />
    <glyph glyph-name="M" unicode="M" horiz-adv-x="1939" 
d="M1231 1260q39 117 114 171t197 54q158 0 240 -98.5t82 -288.5q0 -26 -0.5 -38t-1.5 -24h22v-47q-138 -20 -190 -72.5t-52 -193.5v-490q0 -18 2 -26t7 -15q13 -22 55 -52.5t55 -30.5q11 0 81 49q17 12 26 18l24 -31q-58 -55 -127.5 -120t-78.5 -74h-41q-5 27 -84.5 76.5
t-79.5 140.5v504q0 115 44.5 173.5t178.5 133.5v37q0 193 -53.5 269.5t-180.5 76.5q-80 0 -136.5 -41.5t-84.5 -122.5q24 -90 35.5 -182.5t11.5 -188.5q0 -236 -83.5 -436t-290.5 -442h-39v14q0 24 -57.5 58t-86.5 34q-8 0 -49 -44q-13 -14 -20 -21l-33 22q79 117 115 159
t55 42q26 0 136 -63q37 -21 58 -33q70 110 106 249.5t36 299.5q0 314 -82 518.5t-197 204.5q-55 0 -90 -36.5t-47 -105.5q43 -96 64.5 -220t21.5 -269q0 -217 -70 -383t-249 -352q-37 -37 -48 -51t-14 -23h-39v14q0 24 -57 58t-86 34q-8 0 -49 -43q-13 -14 -21 -22l-33 22
q79 117 115.5 159t54.5 42q30 0 171 -82l28 -16q80 77 118 203t38 317q0 327 -94 510.5t-259 183.5q-121 0 -194.5 -76.5t-73.5 -203.5q0 -131 70 -223.5t192 -125.5l-20 -43q-139 40 -217 146t-78 254q0 180 111 304t272 124q95 0 179 -49.5t138 -137.5q32 101 93 156
t141 55q100 0 174 -61.5t125 -187.5z" />
    <glyph glyph-name="N" unicode="N" horiz-adv-x="1497" 
d="M58 -17q4 13 7 27.5t3 30.5q0 48 -10.5 84t-30.5 59l28 39q17 -8 35.5 -12t40.5 -4q36 0 61 8.5t44 26.5l34 -25q-11 -23 -16.5 -47t-5.5 -45q0 -60 40.5 -94.5t110.5 -34.5q142 0 218.5 169t76.5 484q0 323 -93 497.5t-263 174.5q-111 0 -182.5 -78t-71.5 -201
q0 -126 70.5 -218.5t191.5 -123.5l-20 -43q-139 40 -216 145.5t-77 254.5q0 176 109 300t259 124q135 0 229.5 -71t143.5 -210q34 146 113.5 214.5t216.5 68.5q158 0 238.5 -97.5t80.5 -287.5q0 -25 -0.5 -38.5t-0.5 -23.5h24v-47q-138 -20 -190 -72.5t-52 -193.5v-490
q0 -18 2 -26t6 -14q14 -24 56 -54t55 -30q10 0 81 49q16 12 26 18l24 -31q-58 -55 -127.5 -120t-79.5 -74h-41q-4 26 -84 76t-80 141v504q0 115 45 173.5t179 133.5v45q0 186 -54 262t-180 76q-94 0 -152.5 -53.5t-86.5 -165.5q26 -96 39.5 -202.5t13.5 -217.5
q0 -340 -129.5 -557t-327.5 -217q-51 0 -126.5 16.5t-100.5 16.5q-20 0 -36.5 -5t-33.5 -16z" />
    <glyph glyph-name="O" unicode="O" horiz-adv-x="1583" 
d="M33 156q133 102 189.5 138t78.5 36q23 0 118 -51l9 -5q34 -18 98 -52q248 -136 355 -136q74 0 157 40t156 112q92 90 139 208.5t47 260.5q0 228 -134.5 354.5t-412.5 161.5q-24 3 -68 7q-223 23 -276 130q-126 -75 -182.5 -138t-56.5 -128q0 -47 23.5 -100t72.5 -115
q23 -30 65 -81q124 -149 124 -210q0 -78 -80 -130t-203 -52q-31 0 -56 3.5t-44 10.5v47q23 -7 45 -10.5t47 -3.5q59 0 92 22.5t33 63.5q0 38 -96 154q-44 54 -68 85q-54 69 -78.5 123.5t-24.5 106.5q0 86 60 160.5t284 222.5q54 35 79.5 66.5t25.5 64.5v4l39 -6
q17 -57 65.5 -84t196.5 -43q162 -18 249.5 -47t158.5 -80q108 -80 168.5 -210t60.5 -284q0 -165 -69 -313t-201 -266q-116 -103 -264.5 -171.5t-237.5 -68.5q-46 0 -112 25.5t-179 87.5q-29 15 -80 43q-137 75 -164 75q-14 0 -47.5 -17.5t-71.5 -45.5z" />
    <glyph glyph-name="P" unicode="P" horiz-adv-x="1360" 
d="M616 211l232 -84q21 -8 39 -12t26 -4q17 0 47 30t66 82q50 73 77 151t27 144q0 121 -142 439q-35 78 -54 120q-43 95 -59 150t-17 100q-70 -53 -130 -113.5t-112 -130.5v-872zM504 -397q-24 120 -35.5 231t-11.5 217v49q-50 24 -88 37t-58 13q-22 0 -47 -21t-49 -59
l-33 20l129 258l37 -8q-1 -6 -1.5 -10.5t-0.5 -7.5q0 -25 56 -43q32 -11 53 -19v739q0 167 -54.5 252.5t-160.5 85.5q-85 0 -138 -59t-53 -154q0 -99 57 -170.5t156 -95.5l-8 -47q-115 28 -184.5 116t-69.5 208q0 144 91 248t220 104t205 -85.5t94 -250.5
q88 109 194.5 194.5t229.5 145.5l25 -33q-23 -21 -33 -37.5t-10 -31.5q0 -27 57 -157q29 -66 45 -106l4 -10q144 -342 144 -471q0 -123 -59 -243t-210 -289q-20 -24 -55 -62q-68 -74 -74 -96h-34q0 14 -81 43q-84 30 -141 55q-6 -105 -20.5 -217t-38.5 -233h-49z" />
    <glyph glyph-name="Q" unicode="Q" horiz-adv-x="1583" 
d="M1028 -16q69 47 154.5 113.5t101.5 66.5q23 0 83.5 -31t80.5 -31q14 0 35 14t53 44l31 -29l-185 -178q-1 0 -5 -1q-14 -3 -19 -3q-21 0 -88.5 28.5t-98.5 28.5q-15 0 -45 -14.5t-69 -40.5zM33 156q133 102 189.5 138t78.5 36q23 0 118 -51l9 -5q34 -18 98 -52
q248 -136 355 -136q74 0 157 40t156 112q92 90 139 208.5t47 260.5q0 228 -134.5 354.5t-412.5 161.5q-24 3 -68 7q-223 23 -276 130q-126 -75 -182.5 -138t-56.5 -128q0 -47 23.5 -100t72.5 -115q23 -30 65 -81q124 -149 124 -210q0 -78 -80 -130t-203 -52q-31 0 -56 3.5
t-44 10.5v47q23 -7 45 -10.5t47 -3.5q59 0 92 22.5t33 63.5q0 38 -96 154q-44 54 -68 85q-54 69 -78.5 123.5t-24.5 106.5q0 86 60 160.5t284 222.5q54 35 79.5 66.5t25.5 64.5v4l39 -6q17 -57 65.5 -84t196.5 -43q162 -18 249.5 -47t158.5 -80q108 -80 168.5 -210
t60.5 -284q0 -165 -69 -313t-201 -266q-116 -103 -264.5 -171.5t-237.5 -68.5q-46 0 -112 25.5t-179 87.5q-29 15 -80 43q-137 75 -164 75q-14 0 -47.5 -17.5t-71.5 -45.5z" />
    <glyph glyph-name="R" unicode="R" horiz-adv-x="1475" 
d="M819 715v-45q0 -329 -117 -525t-313 -196q-50 0 -126 16.5t-101 16.5q-20 0 -36.5 -5t-33.5 -16l-34 22q4 13 7 27.5t3 30.5q0 48 -10.5 84t-30.5 59l28 39q17 -8 35.5 -12t40.5 -4q36 0 61 8.5t44 26.5l34 -25q-11 -24 -16.5 -46t-5.5 -44q0 -60 37 -95.5t100 -35.5
q137 0 209 159.5t72 465.5q0 339 -94.5 524.5t-264.5 185.5q-97 0 -158 -72.5t-61 -191.5q0 -141 73.5 -242.5t196.5 -130.5l-18 -45q-142 38 -223.5 159t-81.5 294q0 167 95 275t239 108q119 0 211 -66.5t153 -195.5q98 88 243 170.5t175 107.5l27 -31q-13 -12 -18 -20
t-5 -14q0 -30 48.5 -90t136.5 -138q15 -13 28 -19.5t27 -6.5q6 0 13 2.5t21 9.5l23 -31q-63 -39 -200 -153q-76 -62 -117 -95q30 -37 52.5 -112.5t55.5 -269.5q4 -21 10 -58q57 -332 121 -332q15 0 33.5 14.5t48.5 49.5l33 -27q-39 -54 -98.5 -129.5t-69.5 -95.5h-39
q-2 12 -52.5 56t-76.5 128q-28 89 -57.5 284t-53.5 292q-14 56 -25.5 73t-29.5 17q-19 0 -61.5 -23t-106.5 -67zM819 775q181 102 269 164t145 122l-186 215q-20 23 -38 35t-32 12q-23 0 -89 -42t-138 -107q32 -82 50 -184t19 -215z" />
    <glyph glyph-name="S" unicode="S" horiz-adv-x="1593" 
d="M883 1051q-30 63 -86.5 100t-120.5 37q-85 0 -144 -57t-59 -140q0 -70 47 -116t119 -46q77 0 233.5 89.5t214.5 89.5q34 0 84 -20t99 -54q111 -78 168 -180t57 -224q0 -249 -179 -414t-454 -165q-334 0 -551 212t-217 544q0 156 63 301t177 249q108 100 259.5 167
t254.5 67q65 0 191 -80l42 -27q103 -62 154.5 -85t85.5 -23q44 0 77.5 27t33.5 61q0 18 -16.5 38.5t-16.5 35.5q0 18 9.5 29.5t25.5 11.5q21 0 34 -23.5t13 -62.5q0 -41 -14 -72.5t-42 -54.5q-52 -46 -140 -85.5t-111 -39.5q-27 0 -124 65q-78 53 -130 84
q-78 45 -127.5 60.5t-104.5 15.5q-196 0 -339.5 -164t-143.5 -399q0 -151 59.5 -276t184.5 -234q103 -92 235.5 -143.5t263.5 -51.5q216 0 358 120.5t142 303.5q0 139 -81 236.5t-191 97.5q-77 0 -306 -117q-72 -37 -112 -57q-26 -13 -49.5 -22t-28.5 -9q-14 0 -60 46
q-33 33 -54 52l-8 7q-134 120 -134 235q0 101 74.5 172.5t175.5 71.5q77 0 142 -41.5t106 -116.5z" />
    <glyph glyph-name="T" unicode="T" horiz-adv-x="1204" 
d="M1169 240l27 -31q-113 -116 -212 -186t-144 -70q-33 0 -131 49t-267 150q-40 24 -106 65q-129 82 -164 82q-19 0 -41 -14.5t-55 -48.5l-33 22q92 133 130 172t67 39q20 0 75 -29q27 -14 43 -22q40 -11 81.5 -16t86.5 -5q94 0 153.5 33.5t59.5 81.5q0 46 -111 130
q-44 32 -69 52q-79 63 -103 100t-24 80q0 74 75 157.5t222 174.5q-37 20 -104 56q-192 106 -263 106q-97 0 -163 -67t-66 -166q0 -59 24.5 -111.5t71.5 -95.5l-32 -33q-57 52 -84 111.5t-27 132.5q0 56 21 106.5t63 93.5q58 61 161 108.5t167 47.5q33 0 80.5 -18t148.5 -74
q77 -43 198 -113q179 -104 212 -104q17 0 37 9.5t49 31.5l32 -27q-47 -38 -110.5 -99t-81.5 -61q-17 0 -66 23.5t-223 120.5q-94 -61 -141 -119.5t-47 -114.5q0 -34 22 -66t84 -83q21 -17 62 -47q129 -94 129 -172q0 -102 -97 -165t-262 -63q-14 0 -53 5q-17 2 -26 3
q26 -16 75 -47q313 -194 408 -194q55 0 110 26.5t131 92.5z" />
    <glyph glyph-name="U" unicode="U" horiz-adv-x="1214" 
d="M135 117v45q30 12 42.5 47t12.5 113v882q0 40 -15 59t-46 19q-20 0 -36 -4t-34 -12l-22 34q70 56 115 106.5t51 78.5h38q4 -21 56.5 -53t52.5 -82v-19v-1075q0 -8 4.5 -17.5t10.5 -15.5l147 -114q10 -9 19 -13t18 -4q17 0 91.5 44t221.5 140v902q0 60 -21.5 87.5
t-72.5 35.5v47q57 7 97.5 43t58.5 94h39q17 -58 58 -94t99 -43v-47q-51 -8 -73.5 -36t-22.5 -87v-928q0 -54 13 -77t42 -23q19 0 42 12t50 37l29 -33q-56 -42 -107.5 -94.5t-101.5 -118.5h-43q0 2 1 10.5t1 13.5q0 8 -26.5 32t-44.5 50q-9 13 -13 30t-4 48v62v24
q-141 -101 -289.5 -182t-148.5 -88h-43v6q0 28 -59 65l-5 3q-68 43 -112 65.5t-60 22.5l-3 1t-7 1z" />
    <glyph glyph-name="V" unicode="V" horiz-adv-x="1659" 
d="M684 348q96 -62 240.5 -182.5t205.5 -120.5q115 0 213.5 80t98.5 178q0 53 -29 103.5t-121 142.5l-19 19q-151 149 -151 261q0 65 44 100.5t237 90.5q-24 39 -27 129q-2 53 -6 80q-14 89 -73.5 142.5t-145.5 53.5q-84 0 -151.5 -49t-112.5 -143q36 -80 53.5 -159.5
t17.5 -160.5q0 -164 -69 -306.5t-205 -258.5zM250 264q43 16 117 42q194 71 221 71q9 0 36 -6q7 -2 9 -2q84 67 131 193t47 288q0 219 -96.5 347t-259.5 128q-144 0 -237 -97t-93 -247q0 -137 90 -231t252 -125l-12 -47q-192 43 -285.5 152t-93.5 290q0 199 120.5 332
t303.5 133q117 0 204.5 -49t155.5 -152q57 102 139.5 151.5t198.5 49.5q158 0 242.5 -74.5t99.5 -226.5q3 -25 5 -61q5 -68 28 -68h6v-41q-153 -26 -223 -62t-70 -90q0 -34 27.5 -76t130.5 -149q10 -11 29 -30q96 -98 96 -179q0 -184 -185 -329.5t-436 -145.5q-53 0 -162 93
q-67 57 -112 91l-9 7q-160 122 -233 122q-24 0 -59.5 -8.5t-104.5 -32.5z" />
    <glyph glyph-name="W" unicode="W" horiz-adv-x="2142" 
d="M1284 283q46 -27 127 -73q227 -132 277 -132q78 0 161.5 74t83.5 147q0 45 -26.5 86.5t-124.5 126.5q-111 97 -147 153t-36 117q0 81 54 136.5t166 89.5q-25 34 -34.5 113.5t-17.5 111.5q-21 86 -88 134t-166 48q-108 0 -189 -74.5t-81 -179.5q0 -95 102.5 -279
t102.5 -259t-37 -153t-127 -187zM649 328q72 -54 171 -149t134 -95q28 0 110 56.5t155 135.5q50 54 75 107t25 109q0 80 -79 231q-11 23 -17 35l-7 12q-100 193 -100 272q0 44 12 88.5t39 98.5v28q0 105 -48.5 163.5t-135.5 58.5q-63 0 -108 -43.5t-60 -118.5
q59 -91 87 -189t28 -219q0 -187 -69 -330t-212 -251zM299 209q102 68 174.5 107.5t91.5 39.5q9 0 18.5 -1.5t27.5 -5.5q88 79 134 204.5t46 290.5q0 212 -95.5 343.5t-244.5 131.5q-148 0 -236 -96.5t-88 -255.5q0 -140 90.5 -234t243.5 -112l-10 -48q-175 24 -274 132
t-99 276q0 209 121.5 351.5t298.5 142.5q87 0 157 -30.5t121 -90.5q25 82 81.5 128t133.5 46q94 0 155 -67t68 -179q62 97 154.5 147t210.5 50q155 0 248.5 -78.5t118.5 -229.5q4 -26 6 -65q4 -64 39 -64v-36q-129 -16 -186.5 -55.5t-57.5 -110.5q0 -44 32 -89.5t126 -127.5
q89 -78 119 -128t30 -108q0 -61 -30 -117t-95 -114q-37 -33 -86 -65.5t-114 -67.5q-99 -52 -130 -65t-45 -13q-29 0 -113.5 44t-281.5 165q-92 -73 -176 -124t-164 -83q-50 42 -131 113q-178 157 -248 157q-20 0 -47.5 -11.5t-66.5 -35.5z" />
    <glyph glyph-name="X" unicode="X" horiz-adv-x="1165" 
d="M539 250q-51 -154 -170 -264q-26 -23 -33 -33h-39q-6 25 -68.5 58.5t-99.5 33.5q-21 0 -40.5 -11t-43.5 -36l-29 22l156 197h41q9 -29 80.5 -70t97.5 -41q45 0 92 122.5t47 275.5v186h-75q-85 0 -130.5 -34.5t-78.5 -125.5h-47q25 71 47 142.5t41 144.5q16 -4 35.5 -6
t60.5 -2h68h79v172q0 171 -57 261.5t-164 90.5q-63 0 -193 -124l-1 -1l-35 25l194 231q9 11 24.5 16t43.5 5q120 0 212 -81.5t110 -207.5q41 123 142 199t105 90h39q21 -32 82.5 -70.5t77.5 -38.5q6 0 15 4.5t21 13.5l30 -22q-36 -37 -76 -88t-51 -51q-16 0 -82.5 44.5
t-118.5 74.5q-85 -35 -125.5 -136.5t-40.5 -281.5v-125h70q97 0 137 25t72 100h43q-30 -54 -57.5 -116t-57.5 -138q-41 5 -70.5 7.5t-52.5 2.5h-84v-256q0 -146 57 -230.5t154 -84.5q51 0 102.5 32.5t124.5 114.5l35 -30l-199 -195q-9 -10 -26 -26q-46 -44 -52 -62h-42
q-12 16 -56.5 29t-64.5 22q-70 30 -115.5 93t-60.5 153z" />
    <glyph glyph-name="Y" unicode="Y" horiz-adv-x="1470" 
d="M233 285q232 49 334.5 168t102.5 338q0 235 -100.5 385.5t-256.5 150.5q-104 0 -177 -84.5t-73 -206.5q0 -132 76.5 -219.5t206.5 -105.5l-6 -45q-147 15 -236.5 118.5t-89.5 257.5q0 182 114.5 312.5t266.5 130.5q119 0 217.5 -84.5t155.5 -235.5q86 103 167.5 183.5
t162.5 142.5l26 -25q-5 -9 -8.5 -19.5t-3.5 -16.5q0 -38 79 -169q25 -41 38 -63q70 -120 105.5 -248t35.5 -260q0 -265 -117.5 -518.5t-322.5 -427.5q-85 -73 -169 -110t-163 -37q-104 0 -178 54.5t-74 127.5q0 40 26.5 66t67.5 26q34 0 57 -18t23 -43q0 -21 -7 -41t-7 -23
q0 -27 38 -50.5t87 -23.5q119 0 225.5 76t198.5 225q70 115 111.5 275t41.5 317q0 183 -49.5 340.5t-200.5 399.5q-66 -67 -104.5 -110t-67.5 -83q11 -66 16 -114.5t5 -88.5q0 -172 -70 -311.5t-207 -241.5q60 -46 146.5 -124t116.5 -78q14 0 40.5 10t67.5 33l29 -41
q-79 -47 -155.5 -97t-147.5 -102l-37 27q15 18 21.5 28t6.5 15q0 12 -57.5 67t-136.5 113q-33 23 -53.5 31t-42.5 8q-23 0 -44.5 -2t-41.5 -6z" />
    <glyph glyph-name="Z" unicode="Z" horiz-adv-x="1100" 
d="M109 -422q-34 26 -51 61t-17 78q0 67 39 109.5t162 89.5q5 2 13 5q85 30 85 52v4h45q11 -52 78 -116t112 -64q106 0 189.5 90.5t83.5 218.5q0 189 -152.5 336.5t-343.5 147.5q-76 0 -125 -29t-49 -74q0 -2 1 -7l3 -15q-14 0 -27.5 -3t-24.5 -9q-4 2 -15 11.5t-18 14.5
q20 71 81 118t149 60q-66 10 -115.5 40t-82.5 81l37 29q44 -44 104.5 -66t139.5 -22q170 0 273 89.5t103 240.5q0 144 -103.5 242t-262.5 98q-124 0 -212 -78t-104 -203h-47q19 174 139 275.5t310 101.5q200 0 324 -108.5t124 -280.5q0 -153 -100.5 -261.5t-278.5 -146.5
q180 -21 295 -149.5t115 -307.5q0 -195 -105 -318t-313 -171q-13 -3 -37 -8q-97 -20 -104 -49h-43q-55 80 -98.5 118.5t-79.5 38.5q-46 0 -81.5 -37.5t-35.5 -89.5q0 -29 11.5 -53t35.5 -45z" />
    <glyph glyph-name="bracketleft" unicode="[" horiz-adv-x="541" 
d="M137 -238v1674h379v-47h-242v-1579h242v-48h-379z" />
    <glyph glyph-name="backslash" unicode="\" horiz-adv-x="569" 
d="M537 -190l-586 1675h80l587 -1675h-81z" />
    <glyph glyph-name="bracketright" unicode="]" horiz-adv-x="541" 
d="M403 1436v-1674h-378v48h241v1579h-241v47h378z" />
    <glyph glyph-name="asciicircum" unicode="^" horiz-adv-x="2048" 
d="M934 1462h178l520 -565h-92l-518 436l-520 -436h-90z" />
    <glyph glyph-name="underscore" unicode="_" 
d="M0 -365h1024v-118h-1024v118z" />
    <glyph glyph-name="grave" unicode="`" 
d="M395 1427l242 -307h-49l-273 236q-27 24 -37 39t-10 30q0 22 16 37t40 15q17 0 33 -11.5t38 -38.5z" />
    <glyph glyph-name="a" unicode="a" horiz-adv-x="848" 
d="M545 776q-56 26 -105 57t-92 66q-84 -63 -127 -153t-43 -203q0 -149 66.5 -277.5t120.5 -128.5q7 0 19.5 6.5t27.5 18.5l133 104v510zM545 213q-86 -68 -160.5 -132.5t-138.5 -127.5l-27 18q1 2 3 5q7 12 7 16q0 6 -24 35q-158 189 -158 415q0 252 329 542l30 26h40
l3 -11q49 -36 124.5 -74t171.5 -73v-39q-38 -11 -50.5 -33.5t-12.5 -81.5v-424q0 -67 20 -104t56 -37q9 0 19.5 8t35.5 37l31 -24l-166 -201l-31 16l15 23q-74 58 -95.5 98t-21.5 105v18z" />
    <glyph glyph-name="b" unicode="b" horiz-adv-x="819" 
d="M274 229v-10q0 -20 5.5 -29.5t17.5 -15.5l136 -68q5 -3 14 -5.5t18 -2.5q17 0 44.5 29t68.5 88q39 58 56 103.5t17 89.5q0 115 -144 345q-45 73 -69 113l-164 -112v-525zM90 90v41q27 4 37 20.5t10 79.5v977q0 32 -8.5 61.5t-28.5 61.5l29 21q25 -25 39 -51t20 -58
q31 98 100.5 148.5t174.5 50.5v-43q-103 -6 -146 -64.5t-43 -197.5v-330l297 203l23 -27q-11 -9 -16 -17t-5 -16t6 -19t21 -32q10 -16 31 -46q141 -210 141 -329q0 -121 -90.5 -254.5t-298.5 -316.5h-39q0 25 -73.5 66.5t-180.5 70.5z" />
    <glyph glyph-name="c" unicode="c" horiz-adv-x="645" 
d="M324 -47l-25 14l14 25q-113 68 -153.5 134.5t-40.5 190.5v349q0 63 10 87.5t39 51.5l194 180q12 12 22.5 18.5t16.5 6.5q28 0 77 -46t71 -46q10 0 33 13l2 1l26 -23l-102 -96q-11 -10 -19 -14t-14 -4q-5 0 -17.5 7t-29.5 19l-98 74l-29 -25q-25 -22 -35 -46t-10 -72v-371
q0 -60 4 -89.5t12 -45.5q21 -39 65.5 -71t76.5 -32q20 0 51 20.5t102 84.5l31 -25q-104 -101 -163.5 -160t-110.5 -110z" />
    <glyph glyph-name="d" unicode="d" horiz-adv-x="819" 
d="M274 219l183 -98q6 -4 13.5 -6t14.5 -2q45 0 109.5 126.5t64.5 268.5q0 135 -64.5 228.5t-223.5 183.5l-62 -41q-19 -13 -27 -27.5t-8 -40.5v-37v-555zM137 338v485q22 2 42 19q4 4 7 6l137 94l-9 6q-251 160 -251 285q0 93 64 151t168 58v-43h-16q-47 0 -79 -26.5
t-32 -65.5q0 -42 36.5 -82t137.5 -103q19 -12 57 -35q373 -230 373 -469q0 -163 -86 -320t-280 -345h-35q-4 41 -92.5 92t-210.5 76v41q39 14 54 42.5t15 117.5v16z" />
    <glyph glyph-name="e" unicode="e" horiz-adv-x="721" 
d="M256 741v-352l250 203q4 3 7 9.5t3 12.5q0 2 -1.5 6.5t-8.5 18.5l-146 254q-71 -52 -87.5 -78.5t-16.5 -73.5zM627 242l24 -25l-278 -264l-27 16l6 17q-125 54 -179 127t-54 188v299q0 24 -1 55t-1 39q0 34 8 50t35 38l268 228h45l174 -305q5 -8 7.5 -15t2.5 -14
t-2.5 -13.5t-7.5 -11.5l-387 -313q10 -85 63 -140t121 -55q42 0 86 24t97 75z" />
    <glyph glyph-name="f" unicode="f" horiz-adv-x="487" 
d="M291 811l-2 -268q0 -125 -16.5 -380t-45.5 -560h-43q-23 307 -35 562t-12 462v184h-96v47q78 23 113 217q12 66 20 103q26 120 87 192t132 72q37 0 85 -11.5t57 -11.5q10 0 17 5t13 16l37 -15l-84 -172q-42 31 -87.5 46.5t-92.5 15.5q-50 0 -78.5 -30.5t-28.5 -84.5
q0 -46 27 -137t35 -133h194v-119h-196z" />
    <glyph glyph-name="g" unicode="g" horiz-adv-x="844" 
d="M551 277q-2 23 -3 51t-1 84q0 101 12.5 183.5t38.5 145.5q-54 15 -120 50.5t-134 87.5q-82 -76 -123 -167t-41 -198q0 -132 73.5 -244t131.5 -112q9 0 18.5 4.5t27.5 18.5zM557 229l-307 -249l-39 10q0 1 2 7q4 14 4 21q0 26 -30 66q-7 9 -11 14q-73 100 -101 174
t-28 156q0 132 68.5 251t298.5 331h39q0 -1 -1 -2t-1 -2q0 -26 88 -75.5t209 -82.5v-39q-35 -51 -50.5 -124.5t-15.5 -188.5q0 -141 20.5 -236.5t65.5 -161.5q0 -11 1 -26t1 -19q0 -197 -108 -323.5t-279 -126.5q-143 0 -233 72t-105 198h122q3 -109 62 -169t164 -60
q112 0 191.5 81.5t79.5 178.5q0 15 -47 121t-60 204z" />
    <glyph glyph-name="h" unicode="h" horiz-adv-x="815" 
d="M76 115q33 4 47 22.5t14 59.5v55v956q0 32 -8.5 61.5t-28.5 61.5l29 21q25 -25 39 -51t20 -58q31 98 100.5 148.5t174.5 50.5v-43q-103 -6 -146 -64.5t-43 -197.5v-369l263 242l24 -21q-3 -8 -4.5 -14t-1.5 -8q0 -16 17 -35q4 -4 6 -7q108 -135 149 -234.5t41 -211.5
q0 -172 -103 -394.5t-307 -487.5l-36 24q157 215 240 409t83 343q0 122 -53.5 237.5t-167.5 235.5l-150 -135v-480q0 -38 5.5 -54t16.5 -23l34 -19l92 78l27 -31q-73 -72 -119 -132t-58 -97h-39q-8 31 -54.5 69t-102.5 56v37z" />
    <glyph glyph-name="i" unicode="i" horiz-adv-x="469" 
d="M190 1165q3 14 7 38q45 257 129 257q33 0 51 -17t18 -48q0 -29 -28.5 -70.5t-139.5 -159.5h-37zM268 -47l-32 16l8 19q-51 39 -66.5 64.5t-15.5 66.5q0 26 2 68t2 57v467q0 51 -7 69.5t-24 18.5q-13 0 -27 -8t-38 -31l-27 26q51 50 99.5 105t97.5 119l28 -19
q-7 -13 -11.5 -25t-4.5 -18q0 -19 42 -49.5t52 -30.5q1 0 6 -2l10 -4v-45q-34 -7 -46.5 -28t-12.5 -80v-490q0 -33 14.5 -55.5t32.5 -22.5q10 0 25.5 11.5t40.5 37.5l30 -30q-47 -47 -92 -98.5t-86 -108.5z" />
    <glyph glyph-name="j" unicode="j" horiz-adv-x="440" 
d="M166 236v475q0 51 -7 69.5t-24 18.5q-13 0 -27 -8t-38 -31l-27 26q51 50 99.5 105t97.5 119l28 -19q-7 -13 -11.5 -25t-4.5 -18q0 -18 29.5 -41t80.5 -45v-45q-34 -7 -46.5 -28t-12.5 -80v-537q0 -52 9 -107t26 -112h-39q-15 43 -21.5 65t-11.5 41q-15 -95 -60.5 -210
t-119.5 -246h-47q67 122 97 266t30 367zM190 1165q3 14 7 38q45 257 129 257q33 0 51 -17t18 -48q0 -29 -28.5 -70.5t-139.5 -159.5h-37z" />
    <glyph glyph-name="k" unicode="k" horiz-adv-x="768" 
d="M455 868l-181 -123v-309l193 125q43 27 61.5 52.5t18.5 58.5q0 34 -39 99.5t-53 96.5zM274 231q0 -41 5 -54.5t17 -22.5l40 -25l47 43l27 -29q-73 -82 -101 -122t-37 -68h-39q-8 31 -54.5 69t-102.5 56v37q33 4 47 22.5t14 59.5v55v956q0 32 -8.5 61.5t-28.5 61.5l29 21
q25 -25 39 -51t20 -58q31 98 100.5 148.5t174.5 50.5v-43q-103 -6 -146 -64.5t-43 -197.5v-340l318 213l16 -27q-8 -12 -12 -21t-4 -16q0 -9 43 -79t43 -124q0 -43 -32.5 -84.5t-131.5 -115.5q79 -56 136 -313q10 -46 16 -70l34 -23l39 33l29 -25q-15 -18 -46 -56
q-75 -91 -110 -136l-28 14l8 21q-65 58 -80 178q-5 42 -10 67q-16 77 -41.5 131.5t-65.5 100.5l-121 -78v-156z" />
    <glyph glyph-name="l" unicode="l" horiz-adv-x="440" 
d="M274 231q0 -40 5 -52.5t18 -20.5l47 -29q10 -5 15.5 -6.5t11.5 -1.5t15 3.5t19 10.5l72 51l29 -30l-252 -203l-27 16l11 15v2q0 16 -45.5 42.5t-116.5 49.5v37q33 4 47 22.5t14 59.5v55v956q0 32 -8.5 61.5t-28.5 61.5l29 21q25 -25 39 -51t20 -58q31 98 100.5 148.5
t174.5 50.5v-43q-103 -6 -146 -64.5t-43 -197.5v-906z" />
    <glyph glyph-name="m" unicode="m" horiz-adv-x="1341" 
d="M303 682v-469q0 -53 17 -81t53 -34l-1 -41q-44 -9 -73 -36t-43 -72h-43q-14 45 -43 72t-73 36l-1 41q36 6 53 34t17 81v512q0 45 -9.5 64.5t-33.5 39.5l-47 -45l-33 27l174 199l33 -23q-5 -7 -7.5 -14.5t-2.5 -14.5q0 -11 18 -32t27 -33q15 -23 16 -97q1 -34 2 -54
l221 212q21 21 29 32.5t12 22.5l35 1v-4q0 -21 51 -63q17 -15 26 -23q40 -34 51 -64t11 -86v-29l267 269h34q21 -46 76 -84.5t106 -42.5l1 -41q-24 -11 -35.5 -33.5t-11.5 -58.5v-549q0 -34 9 -51t27 -17q15 0 30 12t28 33l33 -22l-158 -207l-33 20l14 23q-57 38 -74.5 63.5
t-17.5 63.5q0 29 2 80.5t2 72.5v473q0 35 -40.5 72t-61.5 37q-11 0 -26 -9.5t-33 -27.5l-138 -135v-469q0 -53 17 -81t53 -34v-40q-45 -10 -74 -37t-43 -72h-43q-13 45 -42 72t-74 36l-1 41q36 6 53 34t17 81v532q0 34 -39.5 71.5t-58.5 37.5q-10 0 -24 -8.5t-36 -28.5z" />
    <glyph glyph-name="n" unicode="n" horiz-adv-x="909" 
d="M303 680v-467q0 -53 17 -81t53 -34l-1 -41q-44 -9 -73 -36t-43 -72h-43q-14 45 -43 72t-73 36l-1 41q36 6 53 34t17 81v510q0 45 -9.5 64.5t-33.5 39.5l-47 -45l-33 27l174 201l33 -23l-10 -14q-2 -2 -3 -5t-1 -12q0 -5 12 -17q57 -53 57 -157q0 -16 -0.5 -25t-1.5 -15
l262 268h43q32 -54 84.5 -90.5t97.5 -38.5l1 -39q-24 -11 -36 -33.5t-12 -58.5v-549q0 -34 9.5 -51t27.5 -17q15 0 30 12t28 33l32 -22l-159 -207l-31 20l12 23q-57 38 -74.5 63.5t-17.5 63.5q0 28 3 79.5t3 73.5v473q0 35 -41 71t-63 36q-11 0 -24 -8t-34 -29z" />
    <glyph glyph-name="o" unicode="o" horiz-adv-x="811" 
d="M403 895l-129 -53v-643q36 -18 92 -47q98 -50 115 -50q37 0 97.5 99t60.5 202q0 135 -139 339q-67 97 -97 153zM571 1010l21 -37l-31 -17q20 -43 111.5 -183t91.5 -253q0 -190 -302 -519q-29 -32 -44 -48h-41q-7 34 -74.5 67t-212.5 70v41q26 8 36.5 44.5t10.5 125.5v352
q0 55 -2.5 96.5t-7.5 77.5z" />
    <glyph glyph-name="p" unicode="p" horiz-adv-x="844" 
d="M299 201q106 -58 142 -75t48 -17q41 0 118 115t77 208q0 104 -146 323q-45 68 -69 105l-170 -123v-536zM252 -397h-43q-12 116 -21.5 231.5t-15.5 228.5q-9 4 -15.5 5.5t-13.5 1.5q-15 0 -32 -9.5t-33 -27.5l-33 20l117 164v377q0 79 -5 113.5t-18 54.5q-9 15 -35 47
t-26 51q0 25 76 134q25 36 39 57l36 -21q-10 -19 -14 -30t-4 -19q0 -24 44 -78t44 -104v-11l303 222l31 -31l-29 -21q15 -41 104 -168.5t89 -234.5q0 -147 -196 -399q-102 -131 -144 -203h-39q-5 16 -37 36t-94 46q-13 -150 -21 -245.5t-14 -186.5z" />
    <glyph glyph-name="q" unicode="q" horiz-adv-x="815" 
d="M545 212q-86 -67 -160.5 -131.5t-138.5 -127.5l-27 18q1 2 3 5q7 12 7 16q0 6 -24 35q-158 189 -158 415q0 252 329 542l30 26h40q42 -40 114 -80.5t169 -77.5v-39q-45 -17 -51 -434t-45 -776h-43q-16 114 -38 489q-5 80 -7 120zM545 776q-56 26 -105 57t-92 66
q-84 -63 -127 -153t-43 -203q0 -149 66.5 -277.5t120.5 -128.5q7 0 19.5 6.5t27.5 18.5l133 104v510z" />
    <glyph glyph-name="r" unicode="r" horiz-adv-x="616" 
d="M166 719q0 46 -10 64.5t-39 39.5l-47 -41l-27 27l43 50q95 112 129 151l33 -21q-4 -9 -6 -17t-2 -14q0 -13 31.5 -48t31.5 -83v-59q36 61 94.5 139t61.5 102l35 1q7 -39 29.5 -75.5t62.5 -74.5v-53q-24 -26 -43 -57t-35 -68h-39q-12 35 -31.5 68.5t-50.5 70.5l-43 -65
q-23 -35 -32 -61.5t-9 -78.5v-409q0 -15 4 -24t12 -15l54 -39q9 -6 16.5 -9t13.5 -3q8 0 14 2.5t11 7.5l104 90l31 -31l-239 -233l-33 14l8 15q-47 41 -99.5 72.5t-107.5 51.5v37q40 5 57 28t17 73v475z" />
    <glyph glyph-name="s" unicode="s" horiz-adv-x="786" 
d="M199 248q31 -23 85 -63q132 -99 167 -99q57 0 118.5 62t61.5 137q0 87 -74 166t-123 79q-8 0 -16 -6t-21 -22zM344 504l209 266q-90 5 -170.5 56t-91.5 51q-23 0 -63 -40.5t-40 -68.5q0 -24 61 -106.5t95 -157.5zM59 145v39q67 30 114.5 92.5t47.5 114.5
q0 51 -76.5 157.5t-76.5 145.5q0 21 12 43.5t41 53.5q93 98 162 158.5t88 60.5q5 0 33 -21q99 -74 167 -74q62 0 95.5 31.5t33.5 89.5q0 68 -36.5 113t-90.5 45q-40 0 -65.5 -27.5t-34.5 -78.5q-24 20 -44.5 32t-41.5 19q21 51 63.5 79.5t96.5 28.5q81 0 138.5 -61.5
t57.5 -149.5q0 -41 -17.5 -86.5t-49.5 -87.5l-150 -192q102 -53 156.5 -129t54.5 -164t-47 -163.5t-139 -135.5q-24 -15 -71 -40q-91 -48 -124 -85h-37q-6 26 -70.5 74t-189.5 118z" />
    <glyph glyph-name="t" unicode="t" horiz-adv-x="494" 
d="M109 68v38q33 8 45 27.5t12 79.5v29v569h-103v47q71 48 127.5 135t114.5 242h43q-22 -87 -33.5 -163t-11.5 -142h182v-119h-182v-641l47 -35q8 -6 14.5 -9t12.5 -3q5 0 11 2.5t13 7.5l58 45l24 -28q-50 -46 -99 -96t-97 -105l-35 14l8 23q-45 31 -81.5 51t-69.5 31z" />
    <glyph glyph-name="u" unicode="u" horiz-adv-x="905" 
d="M299 -47l-29 12q0 3 1 7.5t1 7.5q0 16 -122 72l-29 14v43q26 6 35.5 26.5t9.5 91.5v502q0 40 -10.5 61t-38.5 44l-39 -35l-33 26l160 185l30 -17q-3 -6 -5.5 -11.5t-2.5 -6.5q0 -11 24 -32t36 -38q9 -12 12.5 -29.5t3.5 -50.5v-47v-549q0 -34 4.5 -46t14.5 -17l51 -29
q9 -5 16.5 -7.5t13.5 -2.5q22 0 78 42.5t121 111.5v469q0 52 -17 79t-53 33v43q45 9 74 35t43 70h43q15 -44 44 -70t73 -35v-43q-36 -6 -53 -33t-17 -79v-543q0 -35 7 -51.5t22 -16.5q11 0 26 14.5t33 41.5l33 -27q-52 -64 -146 -175l-34 -40l-29 16l13 19q-36 23 -50 50.5
t-14 80.5q0 12 1 44.5t1 53.5q-68 -64 -174 -149t-129 -115z" />
    <glyph glyph-name="v" unicode="v" horiz-adv-x="840" 
d="M299 184l168 -82q4 -2 9 -3t11 -1q41 0 112 106.5t71 229.5q0 93 -49.5 204.5t-141.5 223.5l-180 -151v-527zM162 205v399q0 65 -52.5 134t-52.5 96q0 26 34.5 84.5t96.5 136.5l33 -15q-12 -23 -18 -43t-6 -39q0 -43 47 -102t55 -90l287 244h32v-17v-10
q0 -17 87.5 -160.5t87.5 -273.5q0 -230 -321 -541q-37 -36 -56 -55h-43q-57 47 -121 77.5t-137 45.5v41q28 5 37.5 21.5t9.5 66.5z" />
    <glyph glyph-name="w" unicode="w" horiz-adv-x="1229" 
d="M711 170l162 -78q3 -2 6.5 -3t9.5 -1q37 0 103.5 106.5t66.5 217.5q0 104 -42 208t-140 238l-166 -147v-541zM532 1010h33v-17q0 -21 61.5 -86t75.5 -145l281 248h33v-35q0 -33 82 -169t82 -267q0 -239 -348 -584l-3 -2h-43q-38 31 -105.5 59.5t-152.5 48.5v41
q28 6 36.5 21.5t8.5 66.5v414q0 100 -33 167t-75 67q-15 0 -35 -10.5t-35 -24.5l-96 -94v-496q0 -53 17 -81t53 -34l-1 -41q-44 -9 -73 -35t-43 -69h-43q-14 43 -43 69t-74 36v40q36 6 53 34t17 81v391q0 82 -44 149t-44 87q0 27 31 87t83 128l33 -15q-8 -24 -12 -40t-4 -27
q0 -31 44.5 -98.5t45.5 -110.5z" />
    <glyph glyph-name="x" unicode="x" horiz-adv-x="829" 
d="M162 -43q-21 48 -43.5 85.5t-48.5 68.5v43q20 26 40 57t37 63h37q13 -34 29.5 -63t36.5 -55q37 73 68 142t59 136l-109 256q-13 32 -28.5 59t-30.5 44l-39 45l-55 -58l-33 31l180 203l27 -27l-8 -29q54 -45 104 -179q10 -26 14 -37l47 -119q53 108 98.5 200t88.5 176h41
q12 -45 31.5 -79.5t48.5 -63.5v-43q-24 -31 -41 -62.5t-31 -68.5h-37q-11 27 -26.5 56t-36.5 61q-26 -46 -53.5 -101.5t-59.5 -126.5l145 -342q19 -44 37 -69t31 -25q8 0 22 11.5t33 33.5l29 -22q-45 -56 -86.5 -109.5t-79.5 -105.5l-31 18l12 27q-13 5 -29 30t-32 66
l-117 299q-47 -106 -99 -212t-109 -214h-33z" />
    <glyph glyph-name="y" unicode="y" horiz-adv-x="840" 
d="M162 231v420q0 84 -44 131t-44 66q0 22 32.5 75.5t96.5 137.5l35 -19q-9 -20 -13 -34t-4 -23q0 -24 39 -86.5t39 -118.5v-12l262 242l24 -20l-3.5 -14t-1.5 -9q0 -16 17 -35q4 -5 5 -6q109 -136 150 -235.5t41 -211.5q0 -172 -103.5 -394.5t-306.5 -487.5l-37 24
q157 215 240.5 409t83.5 343q0 122 -54 237.5t-167 235.5l-150 -135v-502q0 -35 12 -54.5t33 -19.5l86 58l27 -31q-108 -97 -145 -137.5t-52 -71.5h-39q-21 37 -50 66t-71 53v41q37 6 49.5 25.5t12.5 92.5z" />
    <glyph glyph-name="z" unicode="z" horiz-adv-x="578" 
d="M256 240q-92 -80 -136 -166.5t-44 -188.5q0 -101 49.5 -167t124.5 -66q65 0 104 61.5t39 165.5q0 97 -35 189t-102 172zM231 272q-19 25 -48.5 50t-71.5 51v37q107 56 161 122.5t54 141.5q0 62 -33.5 104.5t-79.5 42.5q-30 0 -51.5 -10.5t-55.5 -46.5l-32 27l207 253
l34 -20q-4 -7 -6 -13t-2 -12t82 -61t82 -147q0 -64 -46 -138.5t-149 -177.5q53 -46 77 -70.5t38 -44.5q22 13 47 24t56 22l12 -39q-25 -10 -47.5 -21t-42.5 -22q47 -71 69.5 -151t22.5 -177q0 -172 -71.5 -282.5t-180.5 -110.5q-99 0 -161 78t-62 204q0 113 50.5 211
t147.5 176z" />
    <glyph glyph-name="braceleft" unicode="{" 
d="M846 1516v-51q-142 -2 -194 -55.5t-52 -209.5v-143q0 -226 -61 -308.5t-226 -113.5q165 -31 226 -113.5t61 -308.5v-143q0 -156 51.5 -208.5t194.5 -54.5v-51h-10q-217 0 -298 73.5t-81 272.5v213q0 158 -59 218t-222 73v60q165 15 223 74t58 216v213q0 200 81 273.5
t298 73.5h10z" />
    <glyph glyph-name="bar" unicode="|" 
d="M449 1565h126v-2048h-126v2048z" />
    <glyph glyph-name="braceright" unicode="}" 
d="M178 1516h10q216 0 297.5 -74t81.5 -273v-213q0 -157 58 -216t223 -74v-60q-163 -13 -222 -73t-59 -218v-213q0 -198 -81.5 -272t-297.5 -74h-10v51q143 2 194.5 54.5t51.5 208.5v143q0 226 61 308.5t226 113.5q-165 31 -226 113.5t-61 308.5v143q0 156 -52 209.5
t-194 55.5v51z" />
    <glyph glyph-name="asciitilde" unicode="~" horiz-adv-x="1706" 
d="M1530 758v-131q-101 -72 -197.5 -108t-189.5 -36q-43 0 -90.5 9t-100.5 26q-30 10 -87 31q-202 72 -302 72q-83 0 -173.5 -37.5t-211.5 -122.5v133q105 73 202 109t185 36q56 0 116.5 -12.5t174.5 -52.5q12 -4 35 -13q164 -59 254 -59q85 0 176 36.5t209 119.5z" />
    <glyph glyph-name="euro" horiz-adv-x="1063" 
d="M995 291q-54 -166 -136 -241t-226 -75q-172 0 -301.5 168.5t-153.5 429.5h-125l19 56h102v45q0 23 1.5 48.5t4.5 53.5h-127l19 58h118q49 249 178.5 414t297.5 165q148 0 230.5 -74.5t82.5 -197.5q0 -40 -22 -66t-58 -26q-42 0 -65 29.5t-23 82.5q0 15 2 36t2 28
q0 68 -39.5 103.5t-116.5 35.5q-113 0 -192 -146t-98 -384h479l-17 -58h-466q-2 -15 -2.5 -32.5t-0.5 -53.5v-61h422l-16 -56h-401q17 -250 101.5 -396t213.5 -146q96 0 160 63.5t114 210.5z" />
    <glyph glyph-name="euro" unicode="&#x20ac;" horiz-adv-x="1063" 
d="M995 291q-54 -166 -136 -241t-226 -75q-172 0 -301.5 168.5t-153.5 429.5h-125l19 56h102v45q0 23 1.5 48.5t4.5 53.5h-127l19 58h118q49 249 178.5 414t297.5 165q148 0 230.5 -74.5t82.5 -197.5q0 -40 -22 -66t-58 -26q-42 0 -65 29.5t-23 82.5q0 15 2 36t2 28
q0 68 -39.5 103.5t-116.5 35.5q-113 0 -192 -146t-98 -384h479l-17 -58h-466q-2 -15 -2.5 -32.5t-0.5 -53.5v-61h422l-16 -56h-401q17 -250 101.5 -396t213.5 -146q96 0 160 63.5t114 210.5z" />
    <glyph glyph-name="nonbreakingspace" unicode="&#xa0;" horiz-adv-x="1063" 
 />
    <glyph glyph-name="exclamdown" unicode="&#xa1;" horiz-adv-x="530" 
d="M289 930l63 -754q2 -29 5 -65.5t3 -40.5q0 -59 -23 -88t-71 -29q-47 0 -71.5 28.5t-24.5 84.5q0 7 3 44.5t5 65.5l64 754h47zM123 1317q52 14 80 42.5t39 76.5h47q10 -48 38.5 -76.5t80.5 -42.5v-47q-52 -14 -80.5 -42.5t-38.5 -76.5h-47q-11 48 -39 76.5t-80 42.5v47z
" />
    <glyph glyph-name="cent" unicode="&#xa2;" horiz-adv-x="1063" 
d="M870 340h48q-16 -148 -101 -238t-217 -98v-213h-57v209q-195 17 -306.5 154t-111.5 360q0 208 117.5 351.5t300.5 160.5v154h57v-152q137 -15 225 -92.5t88 -179.5q0 -38 -21 -59t-58 -21q-42 0 -65.5 27.5t-23.5 76.5q0 15 2.5 36t2.5 28q0 58 -39 95t-111 46v-931
q106 1 180.5 79.5t89.5 206.5zM543 981q-119 -29 -178.5 -150.5t-59.5 -334.5q0 -190 63.5 -306.5t174.5 -132.5v924z" />
    <glyph glyph-name="sterling" unicode="&#xa3;" horiz-adv-x="1063" 
d="M35 86q47 75 93.5 167.5t61.5 92.5q8 0 61 -16q23 -7 35 -10q66 31 101 77.5t35 102.5q0 32 -14.5 67.5t-47.5 81.5h-284v58h248q-101 109 -146 194.5t-45 167.5q0 146 123.5 245t314.5 99q166 0 283 -81t117 -191q0 -45 -22.5 -67.5t-65.5 -22.5q-48 0 -72.5 25
t-24.5 75q0 15 3.5 40t3.5 36q0 67 -62 103t-176 36q-125 0 -202 -57.5t-77 -151.5q0 -89 111 -232.5t152 -217.5h356v-58h-331q2 -12 3.5 -24.5t1.5 -26.5q0 -82 -52 -150.5t-181 -150.5q25 -12 71 -34q292 -140 375 -140q70 0 167 127q10 13 16 20l39 -26
q-48 -67 -103 -132.5t-116 -129.5q-15 -4 -28.5 -5.5t-31.5 -1.5q-62 0 -147 28.5t-213 92.5q-74 36 -125.5 56t-71.5 20q-22 0 -76 -76q-14 -19 -22 -30z" />
    <glyph glyph-name="currency" unicode="&#xa4;" horiz-adv-x="1063" 
d="M995 291q-54 -166 -136 -241t-226 -75q-172 0 -301.5 168.5t-153.5 429.5h-125l19 56h102v45q0 23 1.5 48.5t4.5 53.5h-127l19 58h118q49 249 178.5 414t297.5 165q148 0 230.5 -74.5t82.5 -197.5q0 -40 -22 -66t-58 -26q-42 0 -65 29.5t-23 82.5q0 15 2 36t2 28
q0 68 -39.5 103.5t-116.5 35.5q-113 0 -192 -146t-98 -384h479l-17 -58h-466q-2 -15 -2.5 -32.5t-0.5 -53.5v-61h422l-16 -56h-401q17 -250 101.5 -396t213.5 -146q96 0 160 63.5t114 210.5z" />
    <glyph glyph-name="yen" unicode="&#xa5;" horiz-adv-x="1063" 
d="M616 633v-490q0 -54 26 -75t93 -21h80v-47h-549v47h80q69 0 94 21.5t25 81.5v57v426h-459v55h440l-122 209h-318v57h283l-168 281q-31 52 -76.5 79t-101.5 27h-17v48h504v-48h-22q-60 0 -91.5 -14t-31.5 -41q0 -13 8 -34t26 -54l275 -481l244 440q21 39 35 75.5t14 47.5
q0 32 -29 46.5t-92 14.5h-14v48h370v-48h-18q-59 0 -105.5 -36.5t-93.5 -120.5l-125 -230h277v-57h-309l-115 -209h424v-55h-441z" />
    <glyph glyph-name="brokenbar" unicode="&#xa6;" 
d="M449 408h126v-758h-126v758zM449 1432h126v-758h-126v758z" />
    <glyph glyph-name="section" unicode="&#xa7;" 
d="M743 168q12 34 17.5 66.5t5.5 64.5q0 172 -223 415q-38 42 -58 64q-86 97 -135.5 182t-54.5 143q-15 -33 -22 -66.5t-7 -75.5q0 -102 39.5 -186.5t186.5 -244.5q20 -21 59 -62q167 -174 192 -300zM403 -195q-71 0 -115 33t-44 84q0 38 25 63t63 25q50 0 96.5 -54
t81.5 -54q58 0 101.5 51t43.5 127q0 119 -188 318q-32 34 -49 53q-136 144 -178.5 232t-42.5 187q0 89 34 203.5t88 200.5q66 104 144.5 157.5t165.5 53.5q62 0 103.5 -30.5t41.5 -74.5q0 -37 -22 -60.5t-56 -23.5q-35 0 -87 43t-91 43q-54 0 -94.5 -53.5t-40.5 -132.5
q0 -78 42.5 -157.5t176.5 -227.5q146 -159 185.5 -245t39.5 -189q0 -83 -22.5 -169t-65.5 -163q-63 -116 -149.5 -178t-186.5 -62z" />
    <glyph glyph-name="dieresis" unicode="&#xa8;" 
d="M795 1260q-40 -12 -61.5 -34t-28.5 -58l-37 -1q-8 37 -29.5 59t-60.5 34v34q39 11 60.5 33t29.5 57h37q7 -35 28.5 -57t61.5 -33v-34zM446 1260q-39 -12 -60.5 -34t-29.5 -59l-37 1q-7 36 -28.5 58t-61.5 34v34q40 11 61.5 33t28.5 57h37q8 -35 29.5 -57t60.5 -33v-34z
" />
    <glyph glyph-name="copyright" unicode="&#xa9;" horiz-adv-x="1683" 
d="M1120 1096h35l2 -314h-41q-34 137 -104 206t-176 69q-123 0 -185.5 -94.5t-62.5 -278.5q0 -189 67 -285t199 -96q86 0 156 43t127 131l34 -24q-58 -105 -143 -157t-199 -52q-167 0 -285 123t-118 297q0 186 116 312t285 126q74 0 148 -34t82 -34q27 0 42 14.5t21 47.5z
M844 1303q-123 0 -237.5 -48.5t-200.5 -136.5q-88 -89 -134.5 -202.5t-46.5 -237.5q0 -125 47 -238.5t136 -201.5q88 -89 198.5 -135t235.5 -46q126 0 236.5 46t197.5 135q88 90 135 203t47 237t-47.5 240.5t-132.5 201.5q-86 87 -200.5 135t-233.5 48zM844 1382
q137 0 266.5 -53.5t226.5 -150.5q98 -97 152.5 -228.5t54.5 -271.5t-53 -268t-154 -230q-98 -100 -225 -152.5t-270 -52.5t-269 52.5t-227 152.5t-154 227t-53 271q0 140 53 268.5t152 229.5q98 99 228 152.5t272 53.5z" />
    <glyph glyph-name="ordfeminine" unicode="&#xaa;" horiz-adv-x="637" 
d="M410 1317q-42 18 -79 39.5t-69 46.5q-63 -42 -96 -105t-33 -143q0 -105 50 -195t91 -90q5 0 13.5 4.5t21.5 12.5l101 74v356zM410 924q-72 -54 -126.5 -98t-99.5 -85l-20 13q4 5 6 9t2 5q0 4 -18 25q-119 131 -119 290q0 177 245 377l25 21h31v-6q41 -28 98 -54.5
t125 -50.5v-27q-28 -7 -37.5 -22.5t-9.5 -56.5v-297q0 -48 15 -73.5t42 -25.5q7 0 15 5.5t26 25.5l23 -16l-125 -142l-23 13l11 14q-56 43 -71 70.5t-15 72.5v13z" />
    <glyph glyph-name="guillemotleft" unicode="&#xab;" horiz-adv-x="639" 
d="M569 86l-274 401v58l274 346v-113l-137 -262l137 -305v-125zM322 86l-275 401v58l275 346v-113l-138 -262l138 -305v-125z" />
    <glyph glyph-name="logicalnot" unicode="&#xac;" horiz-adv-x="1706" 
d="M254 858h1198v-502h-115v385h-1083v117z" />
    <glyph glyph-name="sfthyphen" unicode="&#xad;" horiz-adv-x="541" 
d="M47 412v94l447 295v-92zM47 178v92l447 297v-94z" />
    <glyph glyph-name="registered" unicode="&#xae;" horiz-adv-x="1683" 
d="M729 719q16 -1 32 -1.5t34 -0.5q112 0 173.5 45.5t61.5 128.5q0 73 -53 117.5t-143 44.5q-52 0 -78.5 -18.5t-26.5 -53.5v-262zM469 1092h393q147 0 232.5 -54.5t85.5 -146.5q0 -76 -69.5 -124t-217.5 -75q93 -29 142 -77.5t71 -133.5q6 -22 11 -63q13 -88 59 -88
q32 0 49.5 34t17.5 99h43v-12q0 -88 -40.5 -133.5t-119.5 -45.5q-46 0 -78.5 17t-48.5 49q-18 40 -21 113.5t-9 95.5q-20 68 -70.5 100.5t-136.5 32.5h-33v-248q0 -54 26.5 -75.5t98.5 -25.5v-40h-385v40q72 3 99.5 24.5t27.5 76.5v516q0 55 -26 76t-101 25v43zM844 1303
q-122 0 -236 -48t-202 -137t-134.5 -202.5t-46.5 -237.5q0 -127 46.5 -239t136.5 -201q88 -89 198.5 -135t235.5 -46q126 0 236.5 46t197.5 135q88 90 135 203t47 237t-47.5 241.5t-132.5 200.5q-86 87 -200.5 135t-233.5 48zM844 1382q138 0 268.5 -54t228.5 -152
q97 -97 150 -228t53 -272q0 -137 -55.5 -267.5t-157.5 -232.5q-99 -99 -224.5 -150t-270.5 -51q-137 0 -263 52.5t-227 152.5t-154 227t-53 271q0 140 53 268.5t152 229.5q98 99 228 152.5t272 53.5z" />
    <glyph glyph-name="macron" unicode="&#xaf;" 
d="M256 1323h512v-96h-512v96z" />
    <glyph glyph-name="degree" unicode="&#xb0;" horiz-adv-x="674" 
d="M338 1372q-84 0 -143.5 -58.5t-59.5 -142.5t59.5 -143t143.5 -59t142.5 59t58.5 143t-58.5 142.5t-142.5 58.5zM338 1454q117 0 200 -83t83 -200q0 -116 -83.5 -199t-201.5 -83t-199.5 82t-81.5 200q0 119 82.5 201t200.5 82z" />
    <glyph glyph-name="plusminus" unicode="&#xb1;" horiz-adv-x="1706" 
d="M254 158h1198v-117h-1198v117zM795 1180h118v-344h539v-117h-539v-344h-118v344h-541v117h541v344z" />
    <glyph glyph-name="twosuperior" unicode="&#xb2;" horiz-adv-x="702" 
d="M47 555v18q26 37 69.5 82.5t135.5 128.5q150 132 197 203t47 143q0 80 -55 131.5t-140 51.5q-83 0 -142 -48.5t-77 -131.5h-31q15 125 93.5 197.5t197.5 72.5q110 0 184 -67.5t74 -168.5q0 -71 -44 -139t-148 -156q-15 -11 -45 -36q-136 -108 -203 -189h260
q82 0 115.5 22.5t64.5 98.5l27 -6q-21 -50 -37 -101t-27 -106h-516z" />
    <glyph glyph-name="threesuperior" unicode="&#xb3;" horiz-adv-x="702" 
d="M205 995q134 34 203 85.5t69 117.5q0 60 -50 100.5t-126 40.5q-52 0 -101 -26.5t-91 -77.5l-25 10q49 83 112.5 120.5t153.5 37.5q98 0 165 -50.5t67 -121.5q0 -69 -50.5 -116.5t-181.5 -96.5h21q116 0 191 -59.5t75 -153.5q0 -113 -87 -188.5t-220 -75.5
q-112 0 -189.5 50t-77.5 116q0 28 16.5 44.5t43.5 16.5q28 0 44.5 -13.5t16.5 -35.5q0 -13 -2 -29.5t-2 -21.5q0 -43 42 -71t108 -28q92 0 142 47.5t50 135.5q0 102 -61.5 163.5t-163.5 61.5q-27 0 -47.5 -2t-40.5 -6z" />
    <glyph glyph-name="acute" unicode="&#xb4;" 
d="M709 1356l-273 -236h-49l242 307q22 27 38 38.5t33 11.5q24 0 40 -15t16 -37q0 -15 -10 -30t-37 -39z" />
    <glyph glyph-name="mu" unicode="&#xb5;" horiz-adv-x="1120" 
d="M164 193q-27 -136 -52 -339q-34 -272 -112 -272q-37 0 -58.5 23.5t-21.5 64.5q0 40 64.5 273.5t105.5 427.5l109 514h147l-104 -492q-6 -30 -9.5 -58.5t-3.5 -53.5q0 -83 42 -129t118 -46q98 0 163.5 68.5t94.5 200.5l111 510h149l-114 -531q-13 -59 -17 -87.5t-4 -49.5
q0 -48 26 -78t66 -30q35 0 65.5 18t51.5 51t41 93.5t39 60.5q12 0 19 -10t7 -27q0 -25 -11 -66.5t-29 -83.5q-38 -82 -95 -122.5t-135 -40.5q-68 0 -108.5 51t-40.5 139v23q-46 -110 -116 -164t-165 -54q-96 0 -152.5 54.5t-70.5 161.5z" />
    <glyph glyph-name="paragraph" unicode="&#xb6;" 
d="M948 1479v-78h-125v-1401h-94v1401h-182v-1401h-96v782q-173 8 -274 102.5t-101 245.5q0 157 107.5 253t285.5 96h479z" />
    <glyph glyph-name="glyph122" unicode="&#xb7;" horiz-adv-x="530" 
d="M156 694q0 45 32 77t76 32q46 0 78.5 -32t32.5 -77q0 -44 -33 -76t-78 -32q-44 0 -76 32t-32 76z" />
    <glyph glyph-name="cedilla" unicode="&#xb8;" 
d="M762 -113v-182h39v-29q-77 -21 -133 -74t-58 -53q-31 0 -117 46.5t-106 46.5q-12 0 -54 -45q-10 -11 -16 -17l-32 21q53 63 91.5 97t57.5 34q23 0 107 -46t110 -46q4 0 8.5 4t4.5 8v168h-220l29 33v147h66v-113h223z" />
    <glyph glyph-name="onesuperior" unicode="&#xb9;" horiz-adv-x="700" 
d="M432 680v-39q0 -32 16.5 -44.5t61.5 -12.5h53v-29h-362v29h51q47 0 63.5 12.5t16.5 48.5v35v571q0 33 -3 51.5t-7 18.5q-5 0 -16 -8t-25 -23l-131 -112l-23 20l205 178l10 10q18 17 49 17h41v-723z" />
    <glyph glyph-name="ordmasculine" unicode="&#xba;" horiz-adv-x="608" 
d="M303 1401l-96 -37v-451q20 -9 54 -26q85 -41 99 -41q29 0 74 69t45 142q0 92 -103 235q-50 69 -73 109zM428 1481l16 -25l-22 -12q15 -32 83 -129.5t68 -175.5q0 -135 -229 -367l-31 -31h-30q-6 25 -57 48t-158 49v28q19 6 26.5 31t7.5 88v246q0 52 -1 76t-4 47z" />
    <glyph glyph-name="guillemotright" unicode="&#xbb;" horiz-adv-x="639" 
d="M317 891l275 -404v-55l-275 -346v113l138 262l-138 305v125zM72 891l274 -404v-55l-274 -346v113l137 262l-137 305v125z" />
    <glyph glyph-name="onequarter" unicode="&#xbc;" horiz-adv-x="1681" 
d="M1092 293h284l4 416zM1470 117v-37q0 -30 16.5 -41.5t59.5 -11.5h49v-27h-346v27h49q45 0 60.5 11.5t15.5 45.5v33v108h-321v68l344 495l73 3v-498h150v-68h-150v-108zM328 -25l923 1438h101l-922 -1438h-102zM412 727v-37q0 -30 16.5 -41.5t58.5 -11.5h52v-27h-349v27
h52q43 0 58 12t15 45v33v535q0 28 -2.5 45.5t-5.5 17.5q-4 0 -14.5 -7t-26.5 -22l-125 -106l-20 20l194 168q4 3 8 7q19 16 52 16h37v-674z" />
    <glyph glyph-name="onehalf" unicode="&#xbd;" horiz-adv-x="1681" 
d="M1057 0v16q26 38 72 83.5t124 113.5q141 123 186.5 190.5t45.5 135.5q0 73 -52.5 120.5t-134.5 47.5q-79 0 -134.5 -45t-73.5 -123h-29q14 115 88.5 183.5t187.5 68.5q106 0 177 -62.5t71 -157.5q0 -66 -42.5 -130t-141.5 -144q-9 -7 -28 -22q-138 -109 -210 -189h250
q78 0 109.5 20.5t62.5 92.5l25 -4q-20 -44 -34.5 -92.5t-25.5 -102.5h-493zM328 -25l923 1438h101l-922 -1438h-102zM412 727v-37q0 -30 16.5 -41.5t58.5 -11.5h52v-27h-349v27h52q43 0 58 12t15 45v33v535q0 28 -2.5 45.5t-5.5 17.5q-4 0 -14.5 -7t-26.5 -22l-125 -106
l-20 20l194 168q4 3 8 7q19 16 52 16h37v-674z" />
    <glyph glyph-name="threequarters" unicode="&#xbe;" horiz-adv-x="1681" 
d="M1092 293h284l4 416zM1470 117v-37q0 -30 16.5 -41.5t59.5 -11.5h49v-27h-346v27h49q45 0 60.5 11.5t15.5 45.5v33v108h-321v68l344 495l73 3v-498h150v-68h-150v-108zM328 -25l923 1438h101l-922 -1438h-102zM195 1022q128 30 194 78t66 110q0 56 -48 93.5t-120 37.5
q-51 0 -97.5 -24t-87.5 -72l-22 10q45 76 106 111t148 35q94 0 158.5 -47t64.5 -113q0 -64 -48.5 -108t-174.5 -91h20q110 0 182 -55.5t72 -142.5q0 -106 -82.5 -177t-210.5 -71q-106 0 -180 47t-74 109q0 26 15.5 41.5t40.5 15.5q27 0 43 -12.5t16 -34.5q0 -12 -2 -26.5
t-2 -18.5q0 -41 40 -66.5t103 -25.5q88 0 135.5 44t47.5 126q0 95 -59 152t-156 57q-22 0 -42.5 -1.5t-41.5 -5.5z" />
    <glyph glyph-name="questiondown" unicode="&#xbf;" horiz-adv-x="692" 
d="M436 1001q16 -43 23.5 -81.5t7.5 -79.5q0 -81 -32.5 -155t-104.5 -158l-8 -10q-164 -188 -164 -294q0 -85 58 -147t134 -62q46 0 79.5 24t51.5 71q6 13 14 40q31 95 99 95q30 0 51 -23t21 -57q0 -86 -76 -149.5t-184 -63.5q-140 0 -237 105t-97 255q0 89 34.5 168.5
t108.5 159.5q17 19 50 52q138 145 138 224q0 19 -2 38.5t-8 47.5h43zM283 1317q51 14 79.5 42.5t38.5 76.5h48q10 -48 38 -76.5t80 -42.5v-47q-52 -14 -80 -42.5t-38 -76.5h-48q-10 48 -38.5 76.5t-79.5 42.5v47z" />
    <glyph glyph-name="Agrave" unicode="&#xc0;" horiz-adv-x="1360" 
d="M1011 274q-120 -88 -312 -186.5t-246 -138.5l-35 26q3 3 8 9q20 19 20 26q0 14 -41.5 53.5t-128.5 106.5q-61 48 -85.5 61t-45.5 13q-11 0 -29 -4t-40 -10l-15 44q342 98 491.5 247t149.5 386q0 183 -84 290.5t-227 107.5q-118 0 -197 -91t-79 -229t81 -226t232 -114
l-14 -43q-169 25 -263 135.5t-94 284.5q0 199 111.5 331t277.5 132q177 0 290.5 -139t113.5 -361q0 -203 -120 -362.5t-368 -286.5l193 -164q26 -23 46 -32t42 -9q42 0 142.5 55t224.5 148v844q0 50 -5 95t-16 91l37 12l35 -108q15 90 86.5 154.5t146.5 64.5q1 0 6.5 1
t10.5 1v-39q-72 -33 -106 -104.5t-34 -190.5v-813q0 -87 12 -109t44 -22q18 0 40.5 11.5t51.5 35.5l29 -29q-73 -80 -130.5 -150.5t-103.5 -135.5l-37 12q1 3 2 7q6 20 6 32q0 6 -37.5 69t-37.5 166q0 18 0.5 27.5t0.5 17.5zM757 1900l242 -307h-49l-273 236q-27 24 -37 39
t-10 30q0 22 16 37t40 15q17 0 33 -11.5t38 -38.5z" />
    <glyph glyph-name="Aacute" unicode="&#xc1;" horiz-adv-x="1360" 
d="M1011 274q-120 -88 -312 -186.5t-246 -138.5l-35 26q3 3 8 9q20 19 20 26q0 14 -41.5 53.5t-128.5 106.5q-61 48 -85.5 61t-45.5 13q-11 0 -29 -4t-40 -10l-15 44q342 98 491.5 247t149.5 386q0 183 -84 290.5t-227 107.5q-118 0 -197 -91t-79 -229t81 -226t232 -114
l-14 -43q-169 25 -263 135.5t-94 284.5q0 199 111.5 331t277.5 132q177 0 290.5 -139t113.5 -361q0 -203 -120 -362.5t-368 -286.5l193 -164q26 -23 46 -32t42 -9q42 0 142.5 55t224.5 148v844q0 50 -5 95t-16 91l37 12l35 -108q15 90 86.5 154.5t146.5 64.5q1 0 6.5 1
t10.5 1v-39q-72 -33 -106 -104.5t-34 -190.5v-813q0 -87 12 -109t44 -22q18 0 40.5 11.5t51.5 35.5l29 -29q-73 -80 -130.5 -150.5t-103.5 -135.5l-37 12q1 3 2 7q6 20 6 32q0 6 -37.5 69t-37.5 166q0 18 0.5 27.5t0.5 17.5zM1071 1829l-273 -236h-49l242 307q22 27 38 38.5
t33 11.5q24 0 40 -15t16 -37q0 -15 -10 -30t-37 -39z" />
    <glyph glyph-name="Acircumflex" unicode="&#xc2;" horiz-adv-x="1360" 
d="M1011 274q-120 -88 -312 -186.5t-246 -138.5l-35 26q3 3 8 9q20 19 20 26q0 14 -41.5 53.5t-128.5 106.5q-61 48 -85.5 61t-45.5 13q-11 0 -29 -4t-40 -10l-15 44q342 98 491.5 247t149.5 386q0 183 -84 290.5t-227 107.5q-118 0 -197 -91t-79 -229t81 -226t232 -114
l-14 -43q-169 25 -263 135.5t-94 284.5q0 199 111.5 331t277.5 132q177 0 290.5 -139t113.5 -361q0 -203 -120 -362.5t-368 -286.5l193 -164q26 -23 46 -32t42 -9q42 0 142.5 55t224.5 148v844q0 50 -5 95t-16 91l37 12l35 -108q15 90 86.5 154.5t146.5 64.5q1 0 6.5 1
t10.5 1v-39q-72 -33 -106 -104.5t-34 -190.5v-813q0 -87 12 -109t44 -22q18 0 40.5 11.5t51.5 35.5l29 -29q-73 -80 -130.5 -150.5t-103.5 -135.5l-37 12q1 3 2 7q6 20 6 32q0 6 -37.5 69t-37.5 166q0 18 0.5 27.5t0.5 17.5zM827 1943h94l223 -350h-47l-223 232l-223 -232
h-47z" />
    <glyph glyph-name="Atilde" unicode="&#xc3;" horiz-adv-x="1360" 
d="M1011 274q-120 -88 -312 -186.5t-246 -138.5l-35 26q3 3 8 9q20 19 20 26q0 14 -41.5 53.5t-128.5 106.5q-61 48 -85.5 61t-45.5 13q-11 0 -29 -4t-40 -10l-15 44q342 98 491.5 247t149.5 386q0 183 -84 290.5t-227 107.5q-118 0 -197 -91t-79 -229t81 -226t232 -114
l-14 -43q-169 25 -263 135.5t-94 284.5q0 199 111.5 331t277.5 132q177 0 290.5 -139t113.5 -361q0 -203 -120 -362.5t-368 -286.5l193 -164q26 -23 46 -32t42 -9q42 0 142.5 55t224.5 148v844q0 50 -5 95t-16 91l37 12l35 -108q15 90 86.5 154.5t146.5 64.5q1 0 6.5 1
t10.5 1v-39q-72 -33 -106 -104.5t-34 -190.5v-813q0 -87 12 -109t44 -22q18 0 40.5 11.5t51.5 35.5l29 -29q-73 -80 -130.5 -150.5t-103.5 -135.5l-37 12q1 3 2 7q6 20 6 32q0 6 -37.5 69t-37.5 166q0 18 0.5 27.5t0.5 17.5zM1116 1862h43l-2 -6q-62 -187 -109 -187
q-35 0 -70.5 5.5t-71.5 17.5l-116 36q-30 9 -52.5 14t-35.5 5q-21 0 -35 -18.5t-35 -77.5h-43q6 17 17 47q52 147 98 147q23 0 60.5 -7.5t84.5 -21.5l117 -32q29 -8 45.5 -11.5t30.5 -3.5q25 0 38.5 14t35.5 79z" />
    <glyph glyph-name="Adieresis" unicode="&#xc4;" horiz-adv-x="1360" 
d="M1011 274q-120 -88 -312 -186.5t-246 -138.5l-35 26q3 3 8 9q20 19 20 26q0 14 -41.5 53.5t-128.5 106.5q-61 48 -85.5 61t-45.5 13q-11 0 -29 -4t-40 -10l-15 44q342 98 491.5 247t149.5 386q0 183 -84 290.5t-227 107.5q-118 0 -197 -91t-79 -229t81 -226t232 -114
l-14 -43q-169 25 -263 135.5t-94 284.5q0 199 111.5 331t277.5 132q177 0 290.5 -139t113.5 -361q0 -203 -120 -362.5t-368 -286.5l193 -164q26 -23 46 -32t42 -9q42 0 142.5 55t224.5 148v844q0 50 -5 95t-16 91l37 12l35 -108q15 90 86.5 154.5t146.5 64.5q1 0 6.5 1
t10.5 1v-39q-72 -33 -106 -104.5t-34 -190.5v-813q0 -87 12 -109t44 -22q18 0 40.5 11.5t51.5 35.5l29 -29q-73 -80 -130.5 -150.5t-103.5 -135.5l-37 12q1 3 2 7q6 20 6 32q0 6 -37.5 69t-37.5 166q0 18 0.5 27.5t0.5 17.5zM1157 1733q-40 -12 -61.5 -34t-28.5 -58l-37 -1
q-8 37 -29.5 59t-60.5 34v34q39 11 60.5 33t29.5 57h37q7 -35 28.5 -57t61.5 -33v-34zM808 1733q-39 -12 -60.5 -34t-29.5 -59l-37 1q-7 36 -28.5 58t-61.5 34v34q40 11 61.5 33t28.5 57h37q8 -35 29.5 -57t60.5 -33v-34z" />
    <glyph glyph-name="Aring" unicode="&#xc5;" horiz-adv-x="1360" 
d="M856 2017q97 0 165.5 -68t68.5 -165t-68.5 -165.5t-165.5 -68.5q-98 0 -165.5 68t-67.5 166t67.5 165.5t165.5 67.5zM856 1935q-63 0 -108.5 -44.5t-45.5 -106.5q0 -64 44.5 -108t109.5 -44t108.5 43.5t43.5 108.5q0 63 -44.5 107t-107.5 44zM1011 274
q-120 -88 -312 -186.5t-246 -138.5l-35 26q3 3 8 9q20 19 20 26q0 14 -41.5 53.5t-128.5 106.5q-61 48 -85.5 61t-45.5 13q-11 0 -29 -4t-40 -10l-15 44q342 99 493 247.5t151 385.5q0 182 -85 290t-229 108q-118 0 -197 -91t-79 -229t81 -226t232 -114l-14 -43
q-169 25 -263 135.5t-94 284.5q0 199 111.5 331t277.5 132q177 0 290.5 -139t113.5 -361q0 -203 -120 -362.5t-368 -286.5l193 -164q26 -23 46 -32t42 -9q42 0 142.5 55t224.5 148v844q0 50 -5 95t-16 91l37 12l35 -108q15 90 86.5 154.5t146.5 64.5q1 0 6.5 1t10.5 1v-39
q-72 -33 -106 -104.5t-34 -190.5v-813q0 -87 12 -109t44 -22q18 0 40.5 11.5t51.5 35.5l29 -29q-73 -80 -130.5 -150.5t-103.5 -135.5l-37 12q1 3 2 7q6 20 6 32q0 6 -37.5 69t-37.5 166q0 18 0.5 27.5t0.5 17.5z" />
    <glyph glyph-name="AE" unicode="&#xc6;" horiz-adv-x="2052" 
d="M1687 -37q-20 -5 -43 -7.5t-53 -2.5q-183 0 -327 93t-222 263q-149 -108 -357 -215.5t-251 -140.5l-35 27q15 12 21 20t6 14q0 12 -38 49.5t-120 106.5q-48 41 -76.5 57.5t-50.5 16.5q-9 0 -23 -3t-44 -12l-15 45q327 98 472 247.5t145 385.5q0 177 -80 287.5t-205 110.5
q-117 0 -196.5 -91.5t-79.5 -228.5q0 -138 81 -226t232 -114l-14 -43q-169 25 -263 135.5t-94 284.5q0 194 109.5 328.5t263.5 134.5q168 0 276.5 -139t108.5 -361q0 -203 -115 -362.5t-352 -286.5l203 -180q12 -11 30.5 -17t41.5 -6q43 0 142.5 55.5t256.5 165.5
q-39 112 -56.5 239.5t-17.5 371.5v190q0 63 -5.5 112.5t-16.5 96.5l39 12l36 -114q56 107 140.5 166t183.5 59q70 0 125 -33t82 -92q15 18 40 47q64 78 77 78q33 0 112 -24.5t109 -24.5q17 0 32 11.5t33 39.5l35 -16q-29 -56 -65 -134q-36 -75 -45 -75q-35 0 -126 38.5
t-143 38.5q-27 0 -69.5 -52.5t-42.5 -86.5q0 -23 47.5 -105t124.5 -188q83 77 109 107t36 55h31q29 -43 63.5 -71t77.5 -44v-36q-32 -23 -53.5 -48.5t-36.5 -58.5h-33q-23 33 -52.5 57.5t-70.5 44.5l-45 -41q47 -74 64.5 -111.5t17.5 -57.5q0 -4 -15 -68.5t-36 -144.5
q-29 -114 -81 -163.5t-138 -49.5q-88 0 -141.5 61.5t-53.5 165.5v6l43 2v-6q0 -83 41.5 -132.5t110.5 -49.5q70 0 114 50t44 130q0 54 -22.5 112t-78.5 146q-21 33 -58 92q-149 233 -149 260q0 17 103 143q35 43 55 68q-21 52 -66.5 82.5t-101.5 30.5q-122 0 -179.5 -114.5
t-57.5 -354.5q0 -412 134 -622t398 -210q94 0 182.5 27t169.5 80l25 -35q-73 -64 -151 -125.5t-163 -122.5z" />
    <glyph glyph-name="Ccedilla" unicode="&#xc7;" horiz-adv-x="1298" 
d="M645 197q59 87 79.5 139t20.5 104q0 41 -17.5 100t-61.5 160q-28 64 -77 167q-73 157 -73 192q0 24 134 172q29 32 44 49q-6 73 -53.5 116.5t-120.5 43.5q-125 0 -201.5 -154t-76.5 -409q0 -251 107.5 -432t295.5 -248zM1239 229l25 -30q-89 -82 -144 -135t-102 -103
q-32 -7 -66 -10.5t-71 -3.5q-348 0 -567.5 229t-219.5 598q0 314 120 513.5t304 199.5q83 0 139.5 -42.5t77.5 -121.5l20 22q129 140 148 140q18 0 107.5 -45t130.5 -45q17 0 40 22.5t46 61.5l35 -25l-140 -201q-4 -6 -13.5 -11t-16.5 -5q-30 0 -128.5 45t-140.5 45
q-24 0 -87.5 -67.5t-63.5 -100.5q0 -35 98 -272l21 -49q9 -24 28 -68q92 -219 92 -260q0 -25 -84.5 -137.5t-138.5 -194.5q56 -18 115 -27.5t119 -9.5q89 0 164 21t153 67zM1004 -113v-182h39v-29q-77 -21 -133 -74t-58 -53q-31 0 -117 46.5t-106 46.5q-12 0 -54 -45
q-10 -11 -16 -17l-32 21q53 63 91.5 97t57.5 34q23 0 107 -46t110 -46q4 0 8.5 4t4.5 8v168h-220l29 33v147h66v-113h223z" />
    <glyph glyph-name="Egrave" unicode="&#xc8;" horiz-adv-x="1319" 
d="M1239 246l27 -35q-75 -59 -159.5 -120.5t-183.5 -127.5q-22 -5 -49.5 -7.5t-66.5 -2.5q-327 0 -520 228.5t-193 615.5q0 317 118.5 503.5t317.5 186.5q84 0 146.5 -40.5t79.5 -90.5l1 1q107 130 126 130q35 0 121 -24.5t120 -24.5q20 0 36 12t34 39l37 -16
q-33 -58 -73 -137q-36 -72 -46 -72q-29 0 -127 35.5t-158 35.5q-28 0 -75 -53.5t-47 -83.5q0 -22 47 -102t130 -196l3 1q137 113 159 162h33q33 -43 70.5 -71t83.5 -44v-37q-33 -21 -56 -46t-40 -60h-37q-23 32 -55 56.5t-78 45.5l-60 -49q43 -67 61.5 -104.5t18.5 -57.5
q0 -15 -21.5 -80.5t-31.5 -119.5q-23 -116 -73 -166.5t-140 -50.5q-94 0 -158 53t-96 157l45 15q32 -91 81 -134.5t118 -43.5q74 0 119.5 45t45.5 116q0 39 -19 91t-62 129q-63 110 -148.5 242.5t-85.5 150.5t108 150q34 43 54 67q-18 55 -70 89t-116 34q-136 0 -216.5 -141
t-80.5 -384q0 -372 157.5 -574t448.5 -202q110 0 208 26.5t187 80.5zM628 1900l242 -307h-49l-273 236q-27 24 -37 39t-10 30q0 22 16 37t40 15q17 0 33 -11.5t38 -38.5z" />
    <glyph glyph-name="Eacute" unicode="&#xc9;" horiz-adv-x="1319" 
d="M1239 246l27 -35q-75 -59 -159.5 -120.5t-183.5 -127.5q-22 -5 -49.5 -7.5t-66.5 -2.5q-327 0 -520 228.5t-193 615.5q0 317 118.5 503.5t317.5 186.5q84 0 146.5 -40.5t79.5 -90.5l1 1q107 130 126 130q35 0 121 -24.5t120 -24.5q20 0 36 12t34 39l37 -16
q-33 -58 -73 -137q-36 -72 -46 -72q-29 0 -127 35.5t-158 35.5q-28 0 -75 -53.5t-47 -83.5q0 -22 47 -102t130 -196l3 1q137 113 159 162h33q33 -43 70.5 -71t83.5 -44v-37q-33 -21 -56 -46t-40 -60h-37q-23 32 -55 56.5t-78 45.5l-60 -49q43 -67 61.5 -104.5t18.5 -57.5
q0 -15 -21.5 -80.5t-31.5 -119.5q-23 -116 -73 -166.5t-140 -50.5q-94 0 -158 53t-96 157l45 15q32 -91 81 -134.5t118 -43.5q74 0 119.5 45t45.5 116q0 39 -19 91t-62 129q-63 110 -148.5 242.5t-85.5 150.5t108 150q34 43 54 67q-18 55 -70 89t-116 34q-136 0 -216.5 -141
t-80.5 -384q0 -372 157.5 -574t448.5 -202q110 0 208 26.5t187 80.5zM942 1829l-273 -236h-49l242 307q22 27 38 38.5t33 11.5q24 0 40 -15t16 -37q0 -15 -10 -30t-37 -39z" />
    <glyph glyph-name="Ecircumflex" unicode="&#xca;" horiz-adv-x="1319" 
d="M1239 246l27 -35q-75 -59 -159.5 -120.5t-183.5 -127.5q-22 -5 -49.5 -7.5t-66.5 -2.5q-327 0 -520 228.5t-193 615.5q0 317 118.5 503.5t317.5 186.5q84 0 146.5 -40.5t79.5 -90.5l1 1q107 130 126 130q35 0 121 -24.5t120 -24.5q20 0 36 12t34 39l37 -16
q-33 -58 -73 -137q-36 -72 -46 -72q-29 0 -127 35.5t-158 35.5q-28 0 -75 -53.5t-47 -83.5q0 -22 47 -102t130 -196l3 1q137 113 159 162h33q33 -43 70.5 -71t83.5 -44v-37q-33 -21 -56 -46t-40 -60h-37q-23 32 -55 56.5t-78 45.5l-60 -49q43 -67 61.5 -104.5t18.5 -57.5
q0 -15 -21.5 -80.5t-31.5 -119.5q-23 -116 -73 -166.5t-140 -50.5q-94 0 -158 53t-96 157l45 15q32 -91 81 -134.5t118 -43.5q74 0 119.5 45t45.5 116q0 39 -19 91t-62 129q-63 110 -148.5 242.5t-85.5 150.5t108 150q34 43 54 67q-18 55 -70 89t-116 34q-136 0 -216.5 -141
t-80.5 -384q0 -372 157.5 -574t448.5 -202q110 0 208 26.5t187 80.5zM698 1943h94l223 -350h-47l-223 232l-223 -232h-47z" />
    <glyph glyph-name="Edieresis" unicode="&#xcb;" horiz-adv-x="1319" 
d="M1239 246l27 -35q-75 -59 -159.5 -120.5t-183.5 -127.5q-22 -5 -49.5 -7.5t-66.5 -2.5q-327 0 -520 228.5t-193 615.5q0 317 118.5 503.5t317.5 186.5q84 0 146.5 -40.5t79.5 -90.5l1 1q107 130 126 130q35 0 121 -24.5t120 -24.5q20 0 36 12t34 39l37 -16
q-33 -58 -73 -137q-36 -72 -46 -72q-29 0 -127 35.5t-158 35.5q-28 0 -75 -53.5t-47 -83.5q0 -22 47 -102t130 -196l3 1q137 113 159 162h33q33 -43 70.5 -71t83.5 -44v-37q-33 -21 -56 -46t-40 -60h-37q-23 32 -55 56.5t-78 45.5l-60 -49q43 -67 61.5 -104.5t18.5 -57.5
q0 -15 -21.5 -80.5t-31.5 -119.5q-23 -116 -73 -166.5t-140 -50.5q-94 0 -158 53t-96 157l45 15q32 -91 81 -134.5t118 -43.5q74 0 119.5 45t45.5 116q0 39 -19 91t-62 129q-63 110 -148.5 242.5t-85.5 150.5t108 150q34 43 54 67q-18 55 -70 89t-116 34q-136 0 -216.5 -141
t-80.5 -384q0 -372 157.5 -574t448.5 -202q110 0 208 26.5t187 80.5zM1028 1733q-40 -12 -61.5 -34t-28.5 -58l-37 -1q-8 37 -29.5 59t-60.5 34v34q39 11 60.5 33t29.5 57h37q7 -35 28.5 -57t61.5 -33v-34zM679 1733q-39 -12 -60.5 -34t-29.5 -59l-37 1q-7 36 -28.5 58
t-61.5 34v34q40 11 61.5 33t28.5 57h37q8 -35 29.5 -57t60.5 -33v-34z" />
    <glyph glyph-name="Igrave" unicode="&#xcc;" horiz-adv-x="1194" 
d="M352 879l-12 -48q-130 23 -206.5 102t-76.5 191q0 113 76.5 195.5t222.5 126.5q22 6 59 13q56 10 56 34h45v-2q0 -20 125 -89q66 -37 107 -61q76 -45 109 -59t56 -14q32 0 66.5 22.5t34.5 40.5q0 10 -5.5 18.5t-17.5 14.5l-2.5 10l-1.5 6q0 18 14.5 30.5t36.5 12.5
q23 0 37.5 -17.5t14.5 -45.5q0 -24 -19 -50.5t-53 -49.5q-64 -45 -141.5 -78t-102.5 -33q-41 0 -155 73q-62 39 -99 60q-46 27 -94.5 41t-93.5 14q-95 0 -161.5 -62.5t-66.5 -150.5q0 -94 68 -161.5t180 -83.5zM82 84l-45 12q29 81 80.5 120.5t126.5 39.5q32 0 82 -9t65 -9
q16 0 30 4.5t28 13.5l32 -18v-19q0 -72 66.5 -126t154.5 -54q98 0 165 62t67 151q0 61 -76 189l-27 45q-70 122 -110.5 215.5t-40.5 129.5q0 32 28.5 87t75.5 108q47 54 101 85.5t98 31.5q40 0 62 -19t22 -53q0 -28 -13 -43.5t-36 -15.5q-10 0 -16.5 3t-14.5 11
q3 8 3.5 11.5t0.5 6.5q0 15 -12.5 23t-34.5 8q-48 0 -81.5 -40.5t-33.5 -100.5q0 -64 85 -220q13 -23 20 -36q14 -26 40 -73q105 -193 105 -247q0 -61 -37.5 -131.5t-103.5 -134.5q-62 -59 -144 -85.5t-206 -26.5h-35q-53 0 -76.5 -7.5t-40.5 -25.5l-39 18
q-14 96 -69.5 158.5t-120.5 62.5q-42 0 -73.5 -26t-51.5 -76zM530 1900l242 -307h-49l-273 236q-27 24 -37 39t-10 30q0 22 16 37t40 15q17 0 33 -11.5t38 -38.5z" />
    <glyph glyph-name="Iacute" unicode="&#xcd;" horiz-adv-x="1194" 
d="M352 879l-12 -48q-130 23 -206.5 102t-76.5 191q0 113 76.5 195.5t222.5 126.5q22 6 59 13q56 10 56 34h45v-2q0 -20 125 -89q66 -37 107 -61q76 -45 109 -59t56 -14q32 0 66.5 22.5t34.5 40.5q0 10 -5.5 18.5t-17.5 14.5l-2.5 10l-1.5 6q0 18 14.5 30.5t36.5 12.5
q23 0 37.5 -17.5t14.5 -45.5q0 -24 -19 -50.5t-53 -49.5q-64 -45 -141.5 -78t-102.5 -33q-41 0 -155 73q-62 39 -99 60q-46 27 -94.5 41t-93.5 14q-95 0 -161.5 -62.5t-66.5 -150.5q0 -94 68 -161.5t180 -83.5zM82 84l-45 12q29 81 80.5 120.5t126.5 39.5q32 0 82 -9t65 -9
q16 0 30 4.5t28 13.5l32 -18v-19q0 -72 66.5 -126t154.5 -54q98 0 165 62t67 151q0 61 -76 189l-27 45q-70 122 -110.5 215.5t-40.5 129.5q0 32 28.5 87t75.5 108q47 54 101 85.5t98 31.5q40 0 62 -19t22 -53q0 -28 -13 -43.5t-36 -15.5q-10 0 -16.5 3t-14.5 11
q3 8 3.5 11.5t0.5 6.5q0 15 -12.5 23t-34.5 8q-48 0 -81.5 -40.5t-33.5 -100.5q0 -64 85 -220q13 -23 20 -36q14 -26 40 -73q105 -193 105 -247q0 -61 -37.5 -131.5t-103.5 -134.5q-62 -59 -144 -85.5t-206 -26.5h-35q-53 0 -76.5 -7.5t-40.5 -25.5l-39 18
q-14 96 -69.5 158.5t-120.5 62.5q-42 0 -73.5 -26t-51.5 -76zM844 1829l-273 -236h-49l242 307q22 27 38 38.5t33 11.5q24 0 40 -15t16 -37q0 -15 -10 -30t-37 -39z" />
    <glyph glyph-name="Icircumflex" unicode="&#xce;" horiz-adv-x="1194" 
d="M352 879l-12 -48q-130 23 -206.5 102t-76.5 191q0 113 76.5 195.5t222.5 126.5q22 6 59 13q56 10 56 34h45v-2q0 -20 125 -89q66 -37 107 -61q76 -45 109 -59t56 -14q32 0 66.5 22.5t34.5 40.5q0 10 -5.5 18.5t-17.5 14.5l-2.5 10l-1.5 6q0 18 14.5 30.5t36.5 12.5
q23 0 37.5 -17.5t14.5 -45.5q0 -24 -19 -50.5t-53 -49.5q-64 -45 -141.5 -78t-102.5 -33q-41 0 -155 73q-62 39 -99 60q-46 27 -94.5 41t-93.5 14q-95 0 -161.5 -62.5t-66.5 -150.5q0 -94 68 -161.5t180 -83.5zM82 84l-45 12q29 81 80.5 120.5t126.5 39.5q32 0 82 -9t65 -9
q16 0 30 4.5t28 13.5l32 -18v-19q0 -72 66.5 -126t154.5 -54q98 0 165 62t67 151q0 61 -76 189l-27 45q-70 122 -110.5 215.5t-40.5 129.5q0 32 28.5 87t75.5 108q47 54 101 85.5t98 31.5q40 0 62 -19t22 -53q0 -28 -13 -43.5t-36 -15.5q-10 0 -16.5 3t-14.5 11
q3 8 3.5 11.5t0.5 6.5q0 15 -12.5 23t-34.5 8q-48 0 -81.5 -40.5t-33.5 -100.5q0 -64 85 -220q13 -23 20 -36q14 -26 40 -73q105 -193 105 -247q0 -61 -37.5 -131.5t-103.5 -134.5q-62 -59 -144 -85.5t-206 -26.5h-35q-53 0 -76.5 -7.5t-40.5 -25.5l-39 18
q-14 96 -69.5 158.5t-120.5 62.5q-42 0 -73.5 -26t-51.5 -76zM600 1943h94l223 -350h-47l-223 232l-223 -232h-47z" />
    <glyph glyph-name="Idieresis" unicode="&#xcf;" horiz-adv-x="1194" 
d="M352 879l-12 -48q-130 23 -206.5 102t-76.5 191q0 113 76.5 195.5t222.5 126.5q22 6 59 13q56 10 56 34h45v-2q0 -20 125 -89q66 -37 107 -61q76 -45 109 -59t56 -14q32 0 66.5 22.5t34.5 40.5q0 10 -5.5 18.5t-17.5 14.5l-2.5 10l-1.5 6q0 18 14.5 30.5t36.5 12.5
q23 0 37.5 -17.5t14.5 -45.5q0 -24 -19 -50.5t-53 -49.5q-64 -45 -141.5 -78t-102.5 -33q-41 0 -155 73q-62 39 -99 60q-46 27 -94.5 41t-93.5 14q-95 0 -161.5 -62.5t-66.5 -150.5q0 -94 68 -161.5t180 -83.5zM82 84l-45 12q29 81 80.5 120.5t126.5 39.5q32 0 82 -9t65 -9
q16 0 30 4.5t28 13.5l32 -18v-19q0 -72 66.5 -126t154.5 -54q98 0 165 62t67 151q0 61 -76 189l-27 45q-70 122 -110.5 215.5t-40.5 129.5q0 32 28.5 87t75.5 108q47 54 101 85.5t98 31.5q40 0 62 -19t22 -53q0 -28 -13 -43.5t-36 -15.5q-10 0 -16.5 3t-14.5 11
q3 8 3.5 11.5t0.5 6.5q0 15 -12.5 23t-34.5 8q-48 0 -81.5 -40.5t-33.5 -100.5q0 -64 85 -220q13 -23 20 -36q14 -26 40 -73q105 -193 105 -247q0 -61 -37.5 -131.5t-103.5 -134.5q-62 -59 -144 -85.5t-206 -26.5h-35q-53 0 -76.5 -7.5t-40.5 -25.5l-39 18
q-14 96 -69.5 158.5t-120.5 62.5q-42 0 -73.5 -26t-51.5 -76zM930 1733q-40 -12 -61.5 -34t-28.5 -58l-37 -1q-8 37 -29.5 59t-60.5 34v34q39 11 60.5 33t29.5 57h37q7 -35 28.5 -57t61.5 -33v-34zM581 1733q-39 -12 -60.5 -34t-29.5 -59l-37 1q-7 36 -28.5 58t-61.5 34v34
q40 11 61.5 33t28.5 57h37q8 -35 29.5 -57t60.5 -33v-34z" />
    <glyph glyph-name="Eth" unicode="&#xd0;" horiz-adv-x="1655" 
d="M129 170q88 88 161.5 128t145.5 40q17 0 33.5 -1.5t31.5 -4.5q95 38 142 75t47 72q0 15 -7 36.5t-24 53.5h-311v58h279q-32 51 -90 132q-93 131 -93 185q0 94 136 171t354 99q-118 61 -239 94t-226 33q-167 0 -270 -97.5t-103 -252.5q0 -93 48.5 -160.5t138.5 -101.5
l-17 -43q-106 40 -161.5 121t-55.5 197q0 209 151.5 350t379.5 141q161 0 315 -55.5t281 -159.5q175 -142 274.5 -337t99.5 -392q0 -146 -50.5 -262t-153.5 -207q-82 -73 -204 -124.5t-204 -51.5q-51 0 -110 24t-138 76q-32 22 -89 61q-211 146 -282 146q-38 0 -74.5 -15
t-90.5 -57zM561 303q67 -39 179 -117q218 -151 339 -151q155 0 268 113.5t113 273.5q0 205 -121.5 403.5t-343.5 350.5q-166 -11 -274.5 -62.5t-108.5 -109.5q0 -42 86.5 -168t132.5 -209h308v-58h-283q5 -20 6.5 -29t1.5 -16q0 -66 -229 -183q-48 -24 -74 -38z" />
    <glyph glyph-name="Ntilde" unicode="&#xd1;" horiz-adv-x="1497" 
d="M58 -17q4 13 7 27.5t3 30.5q0 48 -10.5 84t-30.5 59l28 39q17 -8 35.5 -12t40.5 -4q36 0 61 8.5t44 26.5l34 -25q-11 -23 -16.5 -47t-5.5 -45q0 -60 40.5 -94.5t110.5 -34.5q142 0 218.5 169t76.5 484q0 323 -93 497.5t-263 174.5q-111 0 -182.5 -78t-71.5 -201
q0 -126 70.5 -218.5t191.5 -123.5l-20 -43q-139 40 -216 145.5t-77 254.5q0 176 109 300t259 124q135 0 229.5 -71t143.5 -210q34 146 113.5 214.5t216.5 68.5q158 0 238.5 -97.5t80.5 -287.5q0 -25 -0.5 -38.5t-0.5 -23.5h24v-47q-138 -20 -190 -72.5t-52 -193.5v-490
q0 -18 2 -26t6 -14q14 -24 56 -54t55 -30q10 0 81 49q16 12 26 18l24 -31q-58 -55 -127.5 -120t-79.5 -74h-41q-4 26 -84 76t-80 141v504q0 115 45 173.5t179 133.5v45q0 186 -54 262t-180 76q-94 0 -152.5 -53.5t-86.5 -165.5q26 -96 39.5 -202.5t13.5 -217.5
q0 -340 -129.5 -557t-327.5 -217q-51 0 -126.5 16.5t-100.5 16.5q-20 0 -36.5 -5t-33.5 -16zM1164 1862h43l-2 -6q-62 -187 -109 -187q-35 0 -70.5 5.5t-71.5 17.5l-116 36q-30 9 -52.5 14t-35.5 5q-21 0 -35 -18.5t-35 -77.5h-43q6 17 17 47q52 147 98 147q23 0 60.5 -7.5
t84.5 -21.5l117 -32q29 -8 45.5 -11.5t30.5 -3.5q25 0 38.5 14t35.5 79z" />
    <glyph glyph-name="Ograve" unicode="&#xd2;" horiz-adv-x="1583" 
d="M33 156q133 102 189.5 138t78.5 36q23 0 118 -51l9 -5q34 -18 98 -52q248 -136 355 -136q74 0 157 40t156 112q92 90 139 208.5t47 260.5q0 228 -134.5 354.5t-412.5 161.5q-24 3 -68 7q-223 23 -276 130q-126 -75 -182.5 -138t-56.5 -128q0 -47 23.5 -100t72.5 -115
q23 -30 65 -81q124 -149 124 -210q0 -78 -80 -130t-203 -52q-31 0 -56 3.5t-44 10.5v47q23 -7 45 -10.5t47 -3.5q59 0 92 22.5t33 63.5q0 38 -96 154q-44 54 -68 85q-54 69 -78.5 123.5t-24.5 106.5q0 86 60 160.5t284 222.5q54 35 79.5 66.5t25.5 64.5v4l39 -6
q17 -57 65.5 -84t196.5 -43q162 -18 249.5 -47t158.5 -80q108 -80 168.5 -210t60.5 -284q0 -165 -69 -313t-201 -266q-116 -103 -264.5 -171.5t-237.5 -68.5q-46 0 -112 25.5t-179 87.5q-29 15 -80 43q-137 75 -164 75q-14 0 -47.5 -17.5t-71.5 -45.5zM725 1900l242 -307
h-49l-273 236q-27 24 -37 39t-10 30q0 22 16 37t40 15q17 0 33 -11.5t38 -38.5z" />
    <glyph glyph-name="Oacute" unicode="&#xd3;" horiz-adv-x="1583" 
d="M33 156q133 102 189.5 138t78.5 36q23 0 118 -51l9 -5q34 -18 98 -52q248 -136 355 -136q74 0 157 40t156 112q92 90 139 208.5t47 260.5q0 228 -134.5 354.5t-412.5 161.5q-24 3 -68 7q-223 23 -276 130q-126 -75 -182.5 -138t-56.5 -128q0 -47 23.5 -100t72.5 -115
q23 -30 65 -81q124 -149 124 -210q0 -78 -80 -130t-203 -52q-31 0 -56 3.5t-44 10.5v47q23 -7 45 -10.5t47 -3.5q59 0 92 22.5t33 63.5q0 38 -96 154q-44 54 -68 85q-54 69 -78.5 123.5t-24.5 106.5q0 86 60 160.5t284 222.5q54 35 79.5 66.5t25.5 64.5v4l39 -6
q17 -57 65.5 -84t196.5 -43q162 -18 249.5 -47t158.5 -80q108 -80 168.5 -210t60.5 -284q0 -165 -69 -313t-201 -266q-116 -103 -264.5 -171.5t-237.5 -68.5q-46 0 -112 25.5t-179 87.5q-29 15 -80 43q-137 75 -164 75q-14 0 -47.5 -17.5t-71.5 -45.5zM1039 1829l-273 -236
h-49l242 307q22 27 38 38.5t33 11.5q24 0 40 -15t16 -37q0 -15 -10 -30t-37 -39z" />
    <glyph glyph-name="Ocircumflex" unicode="&#xd4;" horiz-adv-x="1583" 
d="M33 156q133 102 189.5 138t78.5 36q23 0 118 -51l9 -5q34 -18 98 -52q248 -136 355 -136q74 0 157 40t156 112q92 90 139 208.5t47 260.5q0 228 -134.5 354.5t-412.5 161.5q-24 3 -68 7q-223 23 -276 130q-126 -75 -182.5 -138t-56.5 -128q0 -47 23.5 -100t72.5 -115
q23 -30 65 -81q124 -149 124 -210q0 -78 -80 -130t-203 -52q-31 0 -56 3.5t-44 10.5v47q23 -7 45 -10.5t47 -3.5q59 0 92 22.5t33 63.5q0 38 -96 154q-44 54 -68 85q-54 69 -78.5 123.5t-24.5 106.5q0 86 60 160.5t284 222.5q54 35 79.5 66.5t25.5 64.5v4l39 -6
q17 -57 65.5 -84t196.5 -43q162 -18 249.5 -47t158.5 -80q108 -80 168.5 -210t60.5 -284q0 -165 -69 -313t-201 -266q-116 -103 -264.5 -171.5t-237.5 -68.5q-46 0 -112 25.5t-179 87.5q-29 15 -80 43q-137 75 -164 75q-14 0 -47.5 -17.5t-71.5 -45.5zM795 1943h94l223 -350
h-47l-223 232l-223 -232h-47z" />
    <glyph glyph-name="Otilde" unicode="&#xd5;" horiz-adv-x="1583" 
d="M33 156q133 102 189.5 138t78.5 36q23 0 118 -51l9 -5q34 -18 98 -52q248 -136 355 -136q74 0 157 40t156 112q92 90 139 208.5t47 260.5q0 228 -134.5 354.5t-412.5 161.5q-24 3 -68 7q-223 23 -276 130q-126 -75 -182.5 -138t-56.5 -128q0 -47 23.5 -100t72.5 -115
q23 -30 65 -81q124 -149 124 -210q0 -78 -80 -130t-203 -52q-31 0 -56 3.5t-44 10.5v47q23 -7 45 -10.5t47 -3.5q59 0 92 22.5t33 63.5q0 38 -96 154q-44 54 -68 85q-54 69 -78.5 123.5t-24.5 106.5q0 86 60 160.5t284 222.5q54 35 79.5 66.5t25.5 64.5v4l39 -6
q17 -57 65.5 -84t196.5 -43q162 -18 249.5 -47t158.5 -80q108 -80 168.5 -210t60.5 -284q0 -165 -69 -313t-201 -266q-116 -103 -264.5 -171.5t-237.5 -68.5q-46 0 -112 25.5t-179 87.5q-29 15 -80 43q-137 75 -164 75q-14 0 -47.5 -17.5t-71.5 -45.5zM1084 1862h43l-2 -6
q-62 -187 -109 -187q-35 0 -70.5 5.5t-71.5 17.5l-116 36q-30 9 -52.5 14t-35.5 5q-21 0 -35 -18.5t-35 -77.5h-43q6 17 17 47q52 147 98 147q23 0 60.5 -7.5t84.5 -21.5l117 -32q29 -8 45.5 -11.5t30.5 -3.5q25 0 38.5 14t35.5 79z" />
    <glyph glyph-name="Odieresis" unicode="&#xd6;" horiz-adv-x="1583" 
d="M33 156q133 102 189.5 138t78.5 36q23 0 118 -51l9 -5q34 -18 98 -52q248 -136 355 -136q74 0 157 40t156 112q92 90 139 208.5t47 260.5q0 228 -134.5 354.5t-412.5 161.5q-24 3 -68 7q-223 23 -276 130q-126 -75 -182.5 -138t-56.5 -128q0 -47 23.5 -100t72.5 -115
q23 -30 65 -81q124 -149 124 -210q0 -78 -80 -130t-203 -52q-31 0 -56 3.5t-44 10.5v47q23 -7 45 -10.5t47 -3.5q59 0 92 22.5t33 63.5q0 38 -96 154q-44 54 -68 85q-54 69 -78.5 123.5t-24.5 106.5q0 86 60 160.5t284 222.5q54 35 79.5 66.5t25.5 64.5v4l39 -6
q17 -57 65.5 -84t196.5 -43q162 -18 249.5 -47t158.5 -80q108 -80 168.5 -210t60.5 -284q0 -165 -69 -313t-201 -266q-116 -103 -264.5 -171.5t-237.5 -68.5q-46 0 -112 25.5t-179 87.5q-29 15 -80 43q-137 75 -164 75q-14 0 -47.5 -17.5t-71.5 -45.5zM1125 1733
q-40 -12 -61.5 -34t-28.5 -58l-37 -1q-8 37 -29.5 59t-60.5 34v34q39 11 60.5 33t29.5 57h37q7 -35 28.5 -57t61.5 -33v-34zM776 1733q-39 -12 -60.5 -34t-29.5 -59l-37 1q-7 36 -28.5 58t-61.5 34v34q40 11 61.5 33t28.5 57h37q8 -35 29.5 -57t60.5 -33v-34z" />
    <glyph glyph-name="multiply" unicode="&#xd7;" horiz-adv-x="1706" 
d="M381 1169l477 -477l475 477l82 -82l-475 -477l475 -475l-82 -82l-475 475l-477 -475l-80 82l475 475l-475 477z" />
    <glyph glyph-name="Oslash" unicode="&#xd8;" horiz-adv-x="1583" 
d="M559 199q107 -60 185.5 -86.5t144.5 -26.5q69 0 152 41t153 111q92 92 139 210.5t47 258.5q0 161 -75.5 280.5t-214.5 177.5zM33 156q133 102 189.5 138t78.5 36q19 0 65.5 -22.5t145.5 -80.5l522 959q-96 24 -255 42q-242 28 -290 132q-126 -75 -182.5 -138t-56.5 -128
q0 -47 23.5 -100t72.5 -115q23 -30 65 -81q124 -149 124 -210q0 -78 -80 -130t-203 -52q-31 0 -56 3.5t-44 10.5v47q23 -7 45 -10.5t47 -3.5q59 0 92 22.5t33 63.5q0 38 -96 154q-44 54 -68 85q-54 69 -78.5 123.5t-24.5 106.5q0 86 60 160.5t284 222.5q54 35 79.5 66.5
t25.5 64.5v4l39 -6q28 -95 257 -127q169 -24 273 -54l107 197h65l-121 -219q149 -70 233.5 -214.5t84.5 -330.5q0 -165 -69 -313t-201 -266q-116 -104 -264 -172t-238 -68q-40 0 -98 20.5t-146 67.5l-104 -193h-66l119 220l-39 21q-171 95 -201 95q-14 0 -47.5 -17.5
t-71.5 -45.5z" />
    <glyph glyph-name="Ugrave" unicode="&#xd9;" horiz-adv-x="1214" 
d="M135 117v45q30 12 42.5 47t12.5 113v882q0 40 -15 59t-46 19q-20 0 -36 -4t-34 -12l-22 34q70 56 115 106.5t51 78.5h38q4 -21 56.5 -53t52.5 -82v-19v-1075q0 -8 4.5 -17.5t10.5 -15.5l147 -114q10 -9 19 -13t18 -4q17 0 91.5 44t221.5 140v902q0 60 -21.5 87.5
t-72.5 35.5v47q57 7 97.5 43t58.5 94h39q17 -58 58 -94t99 -43v-47q-51 -8 -73.5 -36t-22.5 -87v-928q0 -54 13 -77t42 -23q19 0 42 12t50 37l29 -33q-56 -42 -107.5 -94.5t-101.5 -118.5h-43q0 2 1 10.5t1 13.5q0 8 -26.5 32t-44.5 50q-9 13 -13 30t-4 48v62v24
q-141 -101 -289.5 -182t-148.5 -88h-43v6q0 28 -59 65l-5 3q-68 43 -112 65.5t-60 22.5l-3 1t-7 1zM465 1900l242 -307h-49l-273 236q-27 24 -37 39t-10 30q0 22 16 37t40 15q17 0 33 -11.5t38 -38.5z" />
    <glyph glyph-name="Uacute" unicode="&#xda;" horiz-adv-x="1214" 
d="M135 117v45q30 12 42.5 47t12.5 113v882q0 40 -15 59t-46 19q-20 0 -36 -4t-34 -12l-22 34q70 56 115 106.5t51 78.5h38q4 -21 56.5 -53t52.5 -82v-19v-1075q0 -8 4.5 -17.5t10.5 -15.5l147 -114q10 -9 19 -13t18 -4q17 0 91.5 44t221.5 140v902q0 60 -21.5 87.5
t-72.5 35.5v47q57 7 97.5 43t58.5 94h39q17 -58 58 -94t99 -43v-47q-51 -8 -73.5 -36t-22.5 -87v-928q0 -54 13 -77t42 -23q19 0 42 12t50 37l29 -33q-56 -42 -107.5 -94.5t-101.5 -118.5h-43q0 2 1 10.5t1 13.5q0 8 -26.5 32t-44.5 50q-9 13 -13 30t-4 48v62v24
q-141 -101 -289.5 -182t-148.5 -88h-43v6q0 28 -59 65l-5 3q-68 43 -112 65.5t-60 22.5l-3 1t-7 1zM779 1829l-273 -236h-49l242 307q22 27 38 38.5t33 11.5q24 0 40 -15t16 -37q0 -15 -10 -30t-37 -39z" />
    <glyph glyph-name="Ucircumflex" unicode="&#xdb;" horiz-adv-x="1214" 
d="M135 117v45q30 12 42.5 47t12.5 113v882q0 40 -15 59t-46 19q-20 0 -36 -4t-34 -12l-22 34q70 56 115 106.5t51 78.5h38q4 -21 56.5 -53t52.5 -82v-19v-1075q0 -8 4.5 -17.5t10.5 -15.5l147 -114q10 -9 19 -13t18 -4q17 0 91.5 44t221.5 140v902q0 60 -21.5 87.5
t-72.5 35.5v47q57 7 97.5 43t58.5 94h39q17 -58 58 -94t99 -43v-47q-51 -8 -73.5 -36t-22.5 -87v-928q0 -54 13 -77t42 -23q19 0 42 12t50 37l29 -33q-56 -42 -107.5 -94.5t-101.5 -118.5h-43q0 2 1 10.5t1 13.5q0 8 -26.5 32t-44.5 50q-9 13 -13 30t-4 48v62v24
q-141 -101 -289.5 -182t-148.5 -88h-43v6q0 28 -59 65l-5 3q-68 43 -112 65.5t-60 22.5l-3 1t-7 1zM535 1943h94l223 -350h-47l-223 232l-223 -232h-47z" />
    <glyph glyph-name="Udieresis" unicode="&#xdc;" horiz-adv-x="1214" 
d="M135 117v45q30 12 42.5 47t12.5 113v882q0 40 -15 59t-46 19q-20 0 -36 -4t-34 -12l-22 34q70 56 115 106.5t51 78.5h38q4 -21 56.5 -53t52.5 -82v-19v-1075q0 -8 4.5 -17.5t10.5 -15.5l147 -114q10 -9 19 -13t18 -4q17 0 91.5 44t221.5 140v902q0 60 -21.5 87.5
t-72.5 35.5v47q57 7 97.5 43t58.5 94h39q17 -58 58 -94t99 -43v-47q-51 -8 -73.5 -36t-22.5 -87v-928q0 -54 13 -77t42 -23q19 0 42 12t50 37l29 -33q-56 -42 -107.5 -94.5t-101.5 -118.5h-43q0 2 1 10.5t1 13.5q0 8 -26.5 32t-44.5 50q-9 13 -13 30t-4 48v62v24
q-141 -101 -289.5 -182t-148.5 -88h-43v6q0 28 -59 65l-5 3q-68 43 -112 65.5t-60 22.5l-3 1t-7 1zM865 1733q-40 -12 -61.5 -34t-28.5 -58l-37 -1q-8 37 -29.5 59t-60.5 34v34q39 11 60.5 33t29.5 57h37q7 -35 28.5 -57t61.5 -33v-34zM516 1733q-39 -12 -60.5 -34
t-29.5 -59l-37 1q-7 36 -28.5 58t-61.5 34v34q40 11 61.5 33t28.5 57h37q8 -35 29.5 -57t60.5 -33v-34z" />
    <glyph glyph-name="Yacute" unicode="&#xdd;" horiz-adv-x="1470" 
d="M233 285q232 49 334.5 168t102.5 338q0 235 -100.5 385.5t-256.5 150.5q-104 0 -177 -84.5t-73 -206.5q0 -132 76.5 -219.5t206.5 -105.5l-6 -45q-147 15 -236.5 118.5t-89.5 257.5q0 182 114.5 312.5t266.5 130.5q119 0 217.5 -84.5t155.5 -235.5q86 103 167.5 183.5
t162.5 142.5l26 -25q-5 -9 -8.5 -19.5t-3.5 -16.5q0 -38 79 -169q25 -41 38 -63q70 -120 105.5 -248t35.5 -260q0 -265 -117.5 -518.5t-322.5 -427.5q-85 -73 -169 -110t-163 -37q-104 0 -178 54.5t-74 127.5q0 40 26.5 66t67.5 26q34 0 57 -18t23 -43q0 -21 -7 -41t-7 -23
q0 -27 38 -50.5t87 -23.5q119 0 225.5 76t198.5 225q70 115 111.5 275t41.5 317q0 183 -49.5 340.5t-200.5 399.5q-66 -67 -104.5 -110t-67.5 -83q11 -66 16 -114.5t5 -88.5q0 -172 -70 -311.5t-207 -241.5q60 -46 146.5 -124t116.5 -78q14 0 40.5 10t67.5 33l29 -41
q-79 -47 -155.5 -97t-147.5 -102l-37 27q15 18 21.5 28t6.5 15q0 12 -57.5 67t-136.5 113q-33 23 -53.5 31t-42.5 8q-23 0 -44.5 -2t-41.5 -6zM981 1829l-273 -236h-49l242 307q22 27 38 38.5t33 11.5q24 0 40 -15t16 -37q0 -15 -10 -30t-37 -39z" />
    <glyph glyph-name="Thorn" unicode="&#xde;" horiz-adv-x="1360" 
d="M616 971v-715l232 -82q24 -9 40.5 -13.5t24.5 -4.5q60 0 138.5 111t78.5 218q0 102 -136 364q-36 71 -56 109l-4 8q-74 148 -76 214q-72 -48 -131.5 -100t-110.5 -109zM504 -397q-25 115 -37 231.5t-12 235.5q0 12 1 37.5t1 37.5l-22 8q-85 29 -103 29t-43.5 -19
t-55.5 -54l-32 20l129 258l36 -10q0 -3 -0.5 -6t-0.5 -6q0 -24 49 -40q25 -8 41 -14v688q0 167 -54.5 252.5t-160.5 85.5q-85 0 -138 -59t-53 -154q0 -99 57 -170.5t156 -95.5l-8 -47q-115 28 -184.5 116t-69.5 208q0 144 91 248t220 104q146 0 222.5 -106.5t76.5 -309.5
v-39q90 97 195.5 169.5t228.5 123.5l25 -33q-23 -17 -33 -31.5t-10 -27.5q0 -24 58 -137q28 -55 44 -88q95 -195 121.5 -274t26.5 -140q0 -108 -62 -214.5t-207 -242.5q-12 -11 -35 -33q-85 -79 -94 -104h-34q0 17 -149 66q-46 15 -72 24q-4 -111 -18.5 -232t-41.5 -255h-49
z" />
    <glyph glyph-name="germandbls" unicode="&#xdf;" horiz-adv-x="797" 
d="M184 -397q-23 307 -35 562t-12 462v184h-96v47q79 24 113 214q16 88 28 138q29 113 91.5 172.5t152.5 59.5q56 0 115 -12.5t61 -12.5q11 0 18.5 5t12.5 16l37 -15l-92 -186l-16 7q-154 71 -224 71q-50 0 -78.5 -30.5t-28.5 -84.5q0 -44 34 -161.5t34 -198.5l246 170
l33 -9q1 -5 86.5 -72.5t85.5 -158.5q0 -75 -45 -148.5t-148 -164.5q89 -29 130.5 -96t41.5 -183q0 -172 -102 -287.5t-252 -115.5q-38 0 -68.5 5.5t-60.5 16.5q-7 -53 -11.5 -101t-7.5 -93h-43zM248 -155q21 -14 45 -20.5t57 -6.5q111 0 173.5 75.5t62.5 210.5
q0 111 -50 172.5t-139 61.5q-31 0 -60.5 -8t-55.5 -25q-12 -181 -19 -279.5t-14 -180.5zM285 355q164 56 251 141t87 190q0 77 -56.5 135t-113.5 58q-9 0 -23.5 -6t-28.5 -15l-101 -71q-8 -166 -11 -259.5t-4 -172.5z" />
    <glyph glyph-name="agrave" unicode="&#xe0;" horiz-adv-x="848" 
d="M545 776q-56 26 -105 57t-92 66q-84 -63 -127 -153t-43 -203q0 -149 66.5 -277.5t120.5 -128.5q7 0 19.5 6.5t27.5 18.5l133 104v510zM545 213q-86 -68 -160.5 -132.5t-138.5 -127.5l-27 18q1 2 3 5q7 12 7 16q0 6 -24 35q-158 189 -158 415q0 252 329 542l30 26h40
l3 -11q49 -36 124.5 -74t171.5 -73v-39q-38 -11 -50.5 -33.5t-12.5 -81.5v-424q0 -67 20 -104t56 -37q9 0 19.5 8t35.5 37l31 -24l-166 -201l-31 16l15 23q-74 58 -95.5 98t-21.5 105v18zM307 1427l242 -307h-49l-273 236q-27 24 -37 39t-10 30q0 22 16 37t40 15
q17 0 33 -11.5t38 -38.5z" />
    <glyph glyph-name="aacute" unicode="&#xe1;" horiz-adv-x="848" 
d="M545 776q-56 26 -105 57t-92 66q-84 -63 -127 -153t-43 -203q0 -149 66.5 -277.5t120.5 -128.5q7 0 19.5 6.5t27.5 18.5l133 104v510zM545 213q-86 -68 -160.5 -132.5t-138.5 -127.5l-27 18q1 2 3 5q7 12 7 16q0 6 -24 35q-158 189 -158 415q0 252 329 542l30 26h40
l3 -11q49 -36 124.5 -74t171.5 -73v-39q-38 -11 -50.5 -33.5t-12.5 -81.5v-424q0 -67 20 -104t56 -37q9 0 19.5 8t35.5 37l31 -24l-166 -201l-31 16l15 23q-74 58 -95.5 98t-21.5 105v18zM621 1356l-273 -236h-49l242 307q22 27 38 38.5t33 11.5q24 0 40 -15t16 -37
q0 -15 -10 -30t-37 -39z" />
    <glyph glyph-name="acircumflex" unicode="&#xe2;" horiz-adv-x="848" 
d="M545 776q-56 26 -105 57t-92 66q-84 -63 -127 -153t-43 -203q0 -149 66.5 -277.5t120.5 -128.5q7 0 19.5 6.5t27.5 18.5l133 104v510zM545 213q-86 -68 -160.5 -132.5t-138.5 -127.5l-27 18q1 2 3 5q7 12 7 16q0 6 -24 35q-158 189 -158 415q0 252 329 542l30 26h40
l3 -11q49 -36 124.5 -74t171.5 -73v-39q-38 -11 -50.5 -33.5t-12.5 -81.5v-424q0 -67 20 -104t56 -37q9 0 19.5 8t35.5 37l31 -24l-166 -201l-31 16l15 23q-74 58 -95.5 98t-21.5 105v18zM377 1470h94l223 -350h-47l-223 232l-223 -232h-47z" />
    <glyph glyph-name="atilde" unicode="&#xe3;" horiz-adv-x="848" 
d="M545 776q-56 26 -105 57t-92 66q-84 -63 -127 -153t-43 -203q0 -149 66.5 -277.5t120.5 -128.5q7 0 19.5 6.5t27.5 18.5l133 104v510zM545 213q-86 -68 -160.5 -132.5t-138.5 -127.5l-27 18q1 2 3 5q7 12 7 16q0 6 -24 35q-158 189 -158 415q0 252 329 542l30 26h40
l3 -11q49 -36 124.5 -74t171.5 -73v-39q-38 -11 -50.5 -33.5t-12.5 -81.5v-424q0 -67 20 -104t56 -37q9 0 19.5 8t35.5 37l31 -24l-166 -201l-31 16l15 23q-74 58 -95.5 98t-21.5 105v18zM666 1389h43l-2 -6q-62 -187 -109 -187q-35 0 -70.5 5.5t-71.5 17.5l-116 36
q-30 9 -52.5 14t-35.5 5q-21 0 -35 -18.5t-35 -77.5h-43q6 17 17 47q52 147 98 147q23 0 60.5 -7.5t84.5 -21.5l117 -32q29 -8 45.5 -11.5t30.5 -3.5q25 0 38.5 14t35.5 79z" />
    <glyph glyph-name="adieresis" unicode="&#xe4;" horiz-adv-x="848" 
d="M545 776q-56 26 -105 57t-92 66q-84 -63 -127 -153t-43 -203q0 -149 66.5 -277.5t120.5 -128.5q7 0 19.5 6.5t27.5 18.5l133 104v510zM545 213q-86 -68 -160.5 -132.5t-138.5 -127.5l-27 18q1 2 3 5q7 12 7 16q0 6 -24 35q-158 189 -158 415q0 252 329 542l30 26h40
l3 -11q49 -36 124.5 -74t171.5 -73v-39q-38 -11 -50.5 -33.5t-12.5 -81.5v-424q0 -67 20 -104t56 -37q9 0 19.5 8t35.5 37l31 -24l-166 -201l-31 16l15 23q-74 58 -95.5 98t-21.5 105v18zM707 1260q-40 -12 -61.5 -34t-28.5 -58l-37 -1q-8 37 -29.5 59t-60.5 34v34
q39 11 60.5 33t29.5 57h37q7 -35 28.5 -57t61.5 -33v-34zM358 1260q-39 -12 -60.5 -34t-29.5 -59l-37 1q-7 36 -28.5 58t-61.5 34v34q40 11 61.5 33t28.5 57h37q8 -35 29.5 -57t60.5 -33v-34z" />
    <glyph glyph-name="aring" unicode="&#xe5;" horiz-adv-x="848" 
d="M449 1460q-64 0 -108 -43.5t-44 -105.5q0 -65 43.5 -109.5t108.5 -44.5q64 0 107.5 44.5t43.5 109.5q0 61 -43 105t-104 44h-4zM449 1542q97 0 165 -67.5t68 -163.5q0 -97 -68.5 -166.5t-164.5 -69.5q-98 0 -166 68.5t-68 167.5q0 98 67.5 164.5t166.5 66.5zM545 776
q-56 26 -105 57t-92 66q-84 -63 -127 -153t-43 -203q0 -149 66.5 -277.5t120.5 -128.5q7 0 19.5 6.5t27.5 18.5l133 104v510zM545 213q-86 -68 -160.5 -132.5t-138.5 -127.5l-27 18q1 2 3 5q7 12 7 16q0 6 -24 35q-158 189 -158 415q0 252 329 542l30 26h40l3 -11
q49 -36 124.5 -74t171.5 -73v-39q-38 -11 -50.5 -33.5t-12.5 -81.5v-424q0 -67 20 -104t56 -37q9 0 19.5 8t35.5 37l31 -24l-166 -201l-31 16l15 23q-74 58 -95.5 98t-21.5 105v18z" />
    <glyph glyph-name="ae" unicode="&#xe6;" horiz-adv-x="1147" 
d="M854 1010h45l174 -305q5 -8 7.5 -15t2.5 -14t-2.5 -13.5t-7.5 -11.5l-387 -313q10 -85 63 -140t121 -55q42 0 86 24t97 75l24 -25l-276 -264l-29 16l8 17q-103 44 -159.5 103t-67.5 132q-78 -62 -155 -129t-152 -139l-27 18q1 2 3 5q7 12 7 16q0 6 -24 35
q-158 189 -158 415q0 252 329 542l30 26h40l3 -11q46 -33 106.5 -65t134.5 -62zM545 776q-56 26 -105 57t-92 66q-84 -63 -127 -153t-43 -203q0 -149 66.5 -277.5t120.5 -128.5q7 0 19.5 6.5t27.5 18.5l133 104v510zM682 741v-352l250 203q4 3 7 9.5t3 12.5q0 4 -2 10.5
t-6 14.5l-146 254q-73 -53 -89.5 -80t-16.5 -72z" />
    <glyph glyph-name="ccedilla" unicode="&#xe7;" horiz-adv-x="645" 
d="M324 -47l-25 14l14 25q-113 68 -153.5 134.5t-40.5 190.5v349q0 63 10 87.5t39 51.5l194 180q12 12 22.5 18.5t16.5 6.5q28 0 77 -46t71 -46q10 0 33 13l2 1l26 -23l-102 -96q-11 -10 -19 -14t-14 -4q-5 0 -17.5 7t-29.5 19l-98 74l-29 -25q-25 -22 -35 -46t-10 -72v-371
q0 -60 4 -89.5t12 -45.5q21 -39 65.5 -71t76.5 -32q20 0 51 20.5t102 84.5l31 -25q-104 -101 -163.5 -160t-110.5 -110zM574 -113v-182h39v-29q-77 -21 -133 -74t-58 -53q-31 0 -117 46.5t-106 46.5q-12 0 -54 -45q-10 -11 -16 -17l-32 21q53 63 91.5 97t57.5 34
q23 0 107 -46t110 -46q4 0 8.5 4t4.5 8v168h-220l29 33v147h66v-113h223z" />
    <glyph glyph-name="egrave" unicode="&#xe8;" horiz-adv-x="721" 
d="M256 741v-352l250 203q4 3 7 9.5t3 12.5q0 2 -1.5 6.5t-8.5 18.5l-146 254q-71 -52 -87.5 -78.5t-16.5 -73.5zM627 242l24 -25l-278 -264l-27 16l6 17q-125 54 -179 127t-54 188v299q0 24 -1 55t-1 39q0 34 8 50t35 38l268 228h45l174 -305q5 -8 7.5 -15t2.5 -14
t-2.5 -13.5t-7.5 -11.5l-387 -313q10 -85 63 -140t121 -55q42 0 86 24t97 75zM280 1427l242 -307h-49l-273 236q-27 24 -37 39t-10 30q0 22 16 37t40 15q17 0 33 -11.5t38 -38.5z" />
    <glyph glyph-name="eacute" unicode="&#xe9;" horiz-adv-x="721" 
d="M256 741v-352l250 203q4 3 7 9.5t3 12.5q0 2 -1.5 6.5t-8.5 18.5l-146 254q-71 -52 -87.5 -78.5t-16.5 -73.5zM627 242l24 -25l-278 -264l-27 16l6 17q-125 54 -179 127t-54 188v299q0 24 -1 55t-1 39q0 34 8 50t35 38l268 228h45l174 -305q5 -8 7.5 -15t2.5 -14
t-2.5 -13.5t-7.5 -11.5l-387 -313q10 -85 63 -140t121 -55q42 0 86 24t97 75zM594 1356l-273 -236h-49l242 307q22 27 38 38.5t33 11.5q24 0 40 -15t16 -37q0 -15 -10 -30t-37 -39z" />
    <glyph glyph-name="ecircumflex" unicode="&#xea;" horiz-adv-x="721" 
d="M256 741v-352l250 203q4 3 7 9.5t3 12.5q0 2 -1.5 6.5t-8.5 18.5l-146 254q-71 -52 -87.5 -78.5t-16.5 -73.5zM627 242l24 -25l-278 -264l-27 16l6 17q-125 54 -179 127t-54 188v299q0 24 -1 55t-1 39q0 34 8 50t35 38l268 228h45l174 -305q5 -8 7.5 -15t2.5 -14
t-2.5 -13.5t-7.5 -11.5l-387 -313q10 -85 63 -140t121 -55q42 0 86 24t97 75zM350 1470h94l223 -350h-47l-223 232l-223 -232h-47z" />
    <glyph glyph-name="edieresis" unicode="&#xeb;" horiz-adv-x="721" 
d="M256 741v-352l250 203q4 3 7 9.5t3 12.5q0 2 -1.5 6.5t-8.5 18.5l-146 254q-71 -52 -87.5 -78.5t-16.5 -73.5zM627 242l24 -25l-278 -264l-27 16l6 17q-125 54 -179 127t-54 188v299q0 24 -1 55t-1 39q0 34 8 50t35 38l268 228h45l174 -305q5 -8 7.5 -15t2.5 -14
t-2.5 -13.5t-7.5 -11.5l-387 -313q10 -85 63 -140t121 -55q42 0 86 24t97 75zM680 1260q-40 -12 -61.5 -34t-28.5 -58l-37 -1q-8 37 -29.5 59t-60.5 34v34q39 11 60.5 33t29.5 57h37q7 -35 28.5 -57t61.5 -33v-34zM331 1260q-39 -12 -60.5 -34t-29.5 -59l-37 1
q-7 36 -28.5 58t-61.5 34v34q40 11 61.5 33t28.5 57h37q8 -35 29.5 -57t60.5 -33v-34z" />
    <glyph glyph-name="igrave" unicode="&#xec;" horiz-adv-x="469" 
d="M268 -47l-32 16l8 19q-51 39 -66.5 64.5t-15.5 66.5q0 26 2 68t2 57v467q0 51 -7 69.5t-24 18.5q-13 0 -27 -8t-38 -31l-27 26q51 50 99.5 105t97.5 119l28 -19q-7 -13 -11.5 -25t-4.5 -18q0 -19 42 -49.5t52 -30.5q1 0 6 -2l10 -4v-45q-34 -7 -46.5 -28t-12.5 -80v-490
q0 -33 14.5 -55.5t32.5 -22.5q10 0 25.5 11.5t40.5 37.5l30 -30q-47 -47 -92 -98.5t-86 -108.5zM123 1427l242 -307h-49l-273 236q-27 24 -37 39t-10 30q0 22 16 37t40 15q17 0 33 -11.5t38 -38.5z" />
    <glyph glyph-name="iacute" unicode="&#xed;" horiz-adv-x="469" 
d="M268 -47l-32 16l8 19q-51 39 -66.5 64.5t-15.5 66.5q0 26 2 68t2 57v467q0 51 -7 69.5t-24 18.5q-13 0 -27 -8t-38 -31l-27 26q51 50 99.5 105t97.5 119l28 -19q-7 -13 -11.5 -25t-4.5 -18q0 -19 42 -49.5t52 -30.5q1 0 6 -2l10 -4v-45q-34 -7 -46.5 -28t-12.5 -80v-490
q0 -33 14.5 -55.5t32.5 -22.5q10 0 25.5 11.5t40.5 37.5l30 -30q-47 -47 -92 -98.5t-86 -108.5zM437 1356l-273 -236h-49l242 307q22 27 38 38.5t33 11.5q24 0 40 -15t16 -37q0 -15 -10 -30t-37 -39z" />
    <glyph glyph-name="icircumflex" unicode="&#xee;" horiz-adv-x="469" 
d="M268 -47l-32 16l8 19q-51 39 -66.5 64.5t-15.5 66.5q0 26 2 68t2 57v467q0 51 -7 69.5t-24 18.5q-13 0 -27 -8t-38 -31l-27 26q51 50 99.5 105t97.5 119l28 -19q-7 -13 -11.5 -25t-4.5 -18q0 -19 42 -49.5t52 -30.5q1 0 6 -2l10 -4v-45q-34 -7 -46.5 -28t-12.5 -80v-490
q0 -33 14.5 -55.5t32.5 -22.5q10 0 25.5 11.5t40.5 37.5l30 -30q-47 -47 -92 -98.5t-86 -108.5zM193 1470h94l223 -350h-47l-223 232l-223 -232h-47z" />
    <glyph glyph-name="idieresis" unicode="&#xef;" horiz-adv-x="469" 
d="M268 -47l-32 16l8 19q-51 39 -66.5 64.5t-15.5 66.5q0 26 2 68t2 57v467q0 51 -7 69.5t-24 18.5q-13 0 -27 -8t-38 -31l-27 26q51 50 99.5 105t97.5 119l28 -19q-7 -13 -11.5 -25t-4.5 -18q0 -19 42 -49.5t52 -30.5q1 0 6 -2l10 -4v-45q-34 -7 -46.5 -28t-12.5 -80v-490
q0 -33 14.5 -55.5t32.5 -22.5q10 0 25.5 11.5t40.5 37.5l30 -30q-47 -47 -92 -98.5t-86 -108.5zM523 1260q-40 -12 -61.5 -34t-28.5 -58l-37 -1q-8 37 -29.5 59t-60.5 34v34q39 11 60.5 33t29.5 57h37q7 -35 28.5 -57t61.5 -33v-34zM174 1260q-39 -12 -60.5 -34t-29.5 -59
l-37 1q-7 36 -28.5 58t-61.5 34v34q40 11 61.5 33t28.5 57h37q8 -35 29.5 -57t60.5 -33v-34z" />
    <glyph glyph-name="eth" unicode="&#xf0;" horiz-adv-x="811" 
d="M274 199q36 -18 92 -47q98 -50 115 -50q37 0 97.5 99t60.5 202q0 88 -46 200.5t-165 303.5l-154 -65v-643zM90 90v41q26 8 36.5 44.5t10.5 125.5v352q0 55 -2.5 96.5t-7.5 77.5l280 116l-8 13q-61 98 -104 154l-238 -115l-22 47l229 111q-64 78 -103 117t-52 39
q-5 0 -10 -3t-15 -12l-29 27l133 111q3 2 6.5 3t14.5 1q17 0 60.5 -46t133.5 -161l230 110l24 -47l-223 -108q161 -219 245.5 -389.5t84.5 -276.5q0 -188 -301 -516q-30 -32 -45 -49h-41q-7 34 -74.5 67t-212.5 70z" />
    <glyph glyph-name="ntilde" unicode="&#xf1;" horiz-adv-x="909" 
d="M303 680v-467q0 -53 17 -81t53 -34l-1 -41q-44 -9 -73 -36t-43 -72h-43q-14 45 -43 72t-73 36l-1 41q36 6 53 34t17 81v510q0 45 -9.5 64.5t-33.5 39.5l-47 -45l-33 27l174 201l33 -23l-10 -14q-2 -2 -3 -5t-1 -12q0 -5 12 -17q57 -53 57 -157q0 -16 -0.5 -25t-1.5 -15
l262 268h43q32 -54 84.5 -90.5t97.5 -38.5l1 -39q-24 -11 -36 -33.5t-12 -58.5v-549q0 -34 9.5 -51t27.5 -17q15 0 30 12t28 33l32 -22l-159 -207l-31 20l12 23q-57 38 -74.5 63.5t-17.5 63.5q0 28 3 79.5t3 73.5v473q0 35 -41 71t-63 36q-11 0 -24 -8t-34 -29zM697 1389h43
l-2 -6q-62 -187 -109 -187q-35 0 -70.5 5.5t-71.5 17.5l-116 36q-30 9 -52.5 14t-35.5 5q-21 0 -35 -18.5t-35 -77.5h-43q6 17 17 47q52 147 98 147q23 0 60.5 -7.5t84.5 -21.5l117 -32q29 -8 45.5 -11.5t30.5 -3.5q25 0 38.5 14t35.5 79z" />
    <glyph glyph-name="ograve" unicode="&#xf2;" horiz-adv-x="811" 
d="M403 895l-129 -53v-643q36 -18 92 -47q98 -50 115 -50q37 0 97.5 99t60.5 202q0 135 -139 339q-67 97 -97 153zM571 1010l21 -37l-31 -17q20 -43 111.5 -183t91.5 -253q0 -190 -302 -519q-29 -32 -44 -48h-41q-7 34 -74.5 67t-212.5 70v41q26 8 36.5 44.5t10.5 125.5v352
q0 55 -2.5 96.5t-7.5 77.5zM289 1427l242 -307h-49l-273 236q-27 24 -37 39t-10 30q0 22 16 37t40 15q17 0 33 -11.5t38 -38.5z" />
    <glyph glyph-name="oacute" unicode="&#xf3;" horiz-adv-x="811" 
d="M403 895l-129 -53v-643q36 -18 92 -47q98 -50 115 -50q37 0 97.5 99t60.5 202q0 135 -139 339q-67 97 -97 153zM571 1010l21 -37l-31 -17q20 -43 111.5 -183t91.5 -253q0 -190 -302 -519q-29 -32 -44 -48h-41q-7 34 -74.5 67t-212.5 70v41q26 8 36.5 44.5t10.5 125.5v352
q0 55 -2.5 96.5t-7.5 77.5zM603 1356l-273 -236h-49l242 307q22 27 38 38.5t33 11.5q24 0 40 -15t16 -37q0 -15 -10 -30t-37 -39z" />
    <glyph glyph-name="ocircumflex" unicode="&#xf4;" horiz-adv-x="811" 
d="M403 895l-129 -53v-643q36 -18 92 -47q98 -50 115 -50q37 0 97.5 99t60.5 202q0 135 -139 339q-67 97 -97 153zM571 1010l21 -37l-31 -17q20 -43 111.5 -183t91.5 -253q0 -190 -302 -519q-29 -32 -44 -48h-41q-7 34 -74.5 67t-212.5 70v41q26 8 36.5 44.5t10.5 125.5v352
q0 55 -2.5 96.5t-7.5 77.5zM359 1470h94l223 -350h-47l-223 232l-223 -232h-47z" />
    <glyph glyph-name="otilde" unicode="&#xf5;" horiz-adv-x="811" 
d="M403 895l-129 -53v-643q36 -18 92 -47q98 -50 115 -50q37 0 97.5 99t60.5 202q0 135 -139 339q-67 97 -97 153zM571 1010l21 -37l-31 -17q20 -43 111.5 -183t91.5 -253q0 -190 -302 -519q-29 -32 -44 -48h-41q-7 34 -74.5 67t-212.5 70v41q26 8 36.5 44.5t10.5 125.5v352
q0 55 -2.5 96.5t-7.5 77.5zM648 1389h43l-2 -6q-62 -187 -109 -187q-35 0 -70.5 5.5t-71.5 17.5l-116 36q-30 9 -52.5 14t-35.5 5q-21 0 -35 -18.5t-35 -77.5h-43q6 17 17 47q52 147 98 147q23 0 60.5 -7.5t84.5 -21.5l117 -32q29 -8 45.5 -11.5t30.5 -3.5q25 0 38.5 14
t35.5 79z" />
    <glyph glyph-name="odieresis" unicode="&#xf6;" horiz-adv-x="811" 
d="M403 895l-129 -53v-643q36 -18 92 -47q98 -50 115 -50q37 0 97.5 99t60.5 202q0 135 -139 339q-67 97 -97 153zM571 1010l21 -37l-31 -17q20 -43 111.5 -183t91.5 -253q0 -190 -302 -519q-29 -32 -44 -48h-41q-7 34 -74.5 67t-212.5 70v41q26 8 36.5 44.5t10.5 125.5v352
q0 55 -2.5 96.5t-7.5 77.5zM689 1260q-40 -12 -61.5 -34t-28.5 -58l-37 -1q-8 37 -29.5 59t-60.5 34v34q39 11 60.5 33t29.5 57h37q7 -35 28.5 -57t61.5 -33v-34zM340 1260q-39 -12 -60.5 -34t-29.5 -59l-37 1q-7 36 -28.5 58t-61.5 34v34q40 11 61.5 33t28.5 57h37
q8 -35 29.5 -57t60.5 -33v-34z" />
    <glyph glyph-name="divide" unicode="&#xf7;" horiz-adv-x="1706" 
d="M854 365q47 0 81 -34t34 -81t-33.5 -81t-81.5 -34t-81.5 33.5t-33.5 81.5t34 81.5t81 33.5zM254 670h1198v-117h-1198v117zM854 1085q48 0 81.5 -33.5t33.5 -80.5q0 -48 -33.5 -81.5t-81.5 -33.5q-49 0 -82 33.5t-33 81.5q0 47 34 80.5t81 33.5z" />
    <glyph glyph-name="oslash" unicode="&#xf8;" horiz-adv-x="811" 
d="M309 182q12 -6 34 -18q119 -62 138 -62q37 0 97.5 99t60.5 202q0 63 -18 122t-56 122zM90 91v40q26 8 36.5 44.5t10.5 125.5v352q0 55 -2.5 96.5t-7.5 77.5l444 183l21 -37l-31 -17q12 -29 25.5 -54t29.5 -50l109 201h59l-135 -248q58 -76 86.5 -146t28.5 -139
q0 -191 -298 -515q-32 -34 -48 -52h-41q-9 29 -42.5 50.5t-101.5 41.5l-86 -160h-59l96 178q-26 10 -49 16.5t-45 11.5zM274 229l258 465l-50 75q-66 95 -78 125l-130 -52v-613z" />
    <glyph glyph-name="ugrave" unicode="&#xf9;" horiz-adv-x="905" 
d="M299 -47l-29 12q0 3 1 7.5t1 7.5q0 16 -122 72l-29 14v43q26 6 35.5 26.5t9.5 91.5v502q0 40 -10.5 61t-38.5 44l-39 -35l-33 26l160 185l30 -17q-3 -6 -5.5 -11.5t-2.5 -6.5q0 -11 24 -32t36 -38q9 -12 12.5 -29.5t3.5 -50.5v-47v-549q0 -34 4.5 -46t14.5 -17l51 -29
q9 -5 16.5 -7.5t13.5 -2.5q22 0 78 42.5t121 111.5v469q0 52 -17 79t-53 33v43q45 9 74 35t43 70h43q15 -44 44 -70t73 -35v-43q-36 -6 -53 -33t-17 -79v-543q0 -35 7 -51.5t22 -16.5q11 0 26 14.5t33 41.5l33 -27q-52 -64 -146 -175l-34 -40l-29 16l13 19q-36 23 -50 50.5
t-14 80.5q0 12 1 44.5t1 53.5q-68 -64 -174 -149t-129 -115zM336 1427l242 -307h-49l-273 236q-27 24 -37 39t-10 30q0 22 16 37t40 15q17 0 33 -11.5t38 -38.5z" />
    <glyph glyph-name="uacute" unicode="&#xfa;" horiz-adv-x="905" 
d="M299 -47l-29 12q0 3 1 7.5t1 7.5q0 16 -122 72l-29 14v43q26 6 35.5 26.5t9.5 91.5v502q0 40 -10.5 61t-38.5 44l-39 -35l-33 26l160 185l30 -17q-3 -6 -5.5 -11.5t-2.5 -6.5q0 -11 24 -32t36 -38q9 -12 12.5 -29.5t3.5 -50.5v-47v-549q0 -34 4.5 -46t14.5 -17l51 -29
q9 -5 16.5 -7.5t13.5 -2.5q22 0 78 42.5t121 111.5v469q0 52 -17 79t-53 33v43q45 9 74 35t43 70h43q15 -44 44 -70t73 -35v-43q-36 -6 -53 -33t-17 -79v-543q0 -35 7 -51.5t22 -16.5q11 0 26 14.5t33 41.5l33 -27q-52 -64 -146 -175l-34 -40l-29 16l13 19q-36 23 -50 50.5
t-14 80.5q0 12 1 44.5t1 53.5q-68 -64 -174 -149t-129 -115zM650 1356l-273 -236h-49l242 307q22 27 38 38.5t33 11.5q24 0 40 -15t16 -37q0 -15 -10 -30t-37 -39z" />
    <glyph glyph-name="ucircumflex" unicode="&#xfb;" horiz-adv-x="905" 
d="M299 -47l-29 12q0 3 1 7.5t1 7.5q0 16 -122 72l-29 14v43q26 6 35.5 26.5t9.5 91.5v502q0 40 -10.5 61t-38.5 44l-39 -35l-33 26l160 185l30 -17q-3 -6 -5.5 -11.5t-2.5 -6.5q0 -11 24 -32t36 -38q9 -12 12.5 -29.5t3.5 -50.5v-47v-549q0 -34 4.5 -46t14.5 -17l51 -29
q9 -5 16.5 -7.5t13.5 -2.5q22 0 78 42.5t121 111.5v469q0 52 -17 79t-53 33v43q45 9 74 35t43 70h43q15 -44 44 -70t73 -35v-43q-36 -6 -53 -33t-17 -79v-543q0 -35 7 -51.5t22 -16.5q11 0 26 14.5t33 41.5l33 -27q-52 -64 -146 -175l-34 -40l-29 16l13 19q-36 23 -50 50.5
t-14 80.5q0 12 1 44.5t1 53.5q-68 -64 -174 -149t-129 -115zM406 1470h94l223 -350h-47l-223 232l-223 -232h-47z" />
    <glyph glyph-name="udieresis" unicode="&#xfc;" horiz-adv-x="905" 
d="M299 -47l-29 12q0 3 1 7.5t1 7.5q0 16 -122 72l-29 14v43q26 6 35.5 26.5t9.5 91.5v502q0 40 -10.5 61t-38.5 44l-39 -35l-33 26l160 185l30 -17q-3 -6 -5.5 -11.5t-2.5 -6.5q0 -11 24 -32t36 -38q9 -12 12.5 -29.5t3.5 -50.5v-47v-549q0 -34 4.5 -46t14.5 -17l51 -29
q9 -5 16.5 -7.5t13.5 -2.5q22 0 78 42.5t121 111.5v469q0 52 -17 79t-53 33v43q45 9 74 35t43 70h43q15 -44 44 -70t73 -35v-43q-36 -6 -53 -33t-17 -79v-543q0 -35 7 -51.5t22 -16.5q11 0 26 14.5t33 41.5l33 -27q-52 -64 -146 -175l-34 -40l-29 16l13 19q-36 23 -50 50.5
t-14 80.5q0 12 1 44.5t1 53.5q-68 -64 -174 -149t-129 -115zM736 1260q-40 -12 -61.5 -34t-28.5 -58l-37 -1q-8 37 -29.5 59t-60.5 34v34q39 11 60.5 33t29.5 57h37q7 -35 28.5 -57t61.5 -33v-34zM387 1260q-39 -12 -60.5 -34t-29.5 -59l-37 1q-7 36 -28.5 58t-61.5 34v34
q40 11 61.5 33t28.5 57h37q8 -35 29.5 -57t60.5 -33v-34z" />
    <glyph glyph-name="yacute" unicode="&#xfd;" horiz-adv-x="840" 
d="M162 231v420q0 84 -44 131t-44 66q0 22 32.5 75.5t96.5 137.5l35 -19q-9 -20 -13 -34t-4 -23q0 -24 39 -86.5t39 -118.5v-12l262 242l24 -20l-3.5 -14t-1.5 -9q0 -16 17 -35q4 -5 5 -6q109 -136 150 -235.5t41 -211.5q0 -172 -103.5 -394.5t-306.5 -487.5l-37 24
q157 215 240.5 409t83.5 343q0 122 -54 237.5t-167 235.5l-150 -135v-502q0 -35 12 -54.5t33 -19.5l86 58l27 -31q-108 -97 -145 -137.5t-52 -71.5h-39q-21 37 -50 66t-71 53v41q37 6 49.5 25.5t12.5 92.5zM617 1356l-273 -236h-49l242 307q22 27 38 38.5t33 11.5
q24 0 40 -15t16 -37q0 -15 -10 -30t-37 -39z" />
    <glyph glyph-name="thorn" unicode="&#xfe;" horiz-adv-x="819" 
d="M274 201q106 -58 142.5 -75t48.5 -17q41 0 117.5 115t76.5 208q0 104 -146 323q-45 68 -69 105l-170 -123v-536zM227 -397h-43q-12 116 -21 231.5t-16 229.5q-8 3 -15 4.5t-13 1.5q-16 0 -32.5 -9.5t-33.5 -27.5l-33 20l117 164v991q0 32 -8.5 61.5t-28.5 61.5l29 21
q25 -25 39 -51t20 -58q31 98 100.5 148.5t174.5 50.5v-43q-103 -6 -146 -64.5t-43 -197.5v-349l304 222l30 -31l-26 -21q14 -40 102 -167.5t88 -235.5q0 -147 -195 -401q-101 -129 -143 -201h-40q-5 16 -37 36t-95 45q-9 -98 -26 -319q-6 -75 -9 -112z" />
    <glyph glyph-name="ydieresis" unicode="&#xff;" horiz-adv-x="840" 
d="M162 231v420q0 84 -44 131t-44 66q0 22 32.5 75.5t96.5 137.5l35 -19q-9 -20 -13 -34t-4 -23q0 -24 39 -86.5t39 -118.5v-12l262 242l24 -20l-3.5 -14t-1.5 -9q0 -16 17 -35q4 -5 5 -6q109 -136 150 -235.5t41 -211.5q0 -172 -103.5 -394.5t-306.5 -487.5l-37 24
q157 215 240.5 409t83.5 343q0 122 -54 237.5t-167 235.5l-150 -135v-502q0 -35 12 -54.5t33 -19.5l86 58l27 -31q-108 -97 -145 -137.5t-52 -71.5h-39q-21 37 -50 66t-71 53v41q37 6 49.5 25.5t12.5 92.5zM703 1260q-40 -12 -61.5 -34t-28.5 -58l-37 -1q-8 37 -29.5 59
t-60.5 34v34q39 11 60.5 33t29.5 57h37q7 -35 28.5 -57t61.5 -33v-34zM354 1260q-39 -12 -60.5 -34t-29.5 -59l-37 1q-7 36 -28.5 58t-61.5 34v34q40 11 61.5 33t28.5 57h37q8 -35 29.5 -57t60.5 -33v-34z" />
    <glyph glyph-name="Cacute" unicode="&#x106;" horiz-adv-x="1298" 
d="M645 197q59 87 79.5 139t20.5 104q0 41 -17.5 100t-61.5 160q-28 64 -77 167q-73 157 -73 192q0 24 134 172q29 32 44 49q-6 73 -53.5 116.5t-120.5 43.5q-125 0 -201.5 -154t-76.5 -409q0 -251 107.5 -432t295.5 -248zM1239 229l25 -30q-89 -82 -144 -135t-102 -103
q-32 -7 -66 -10.5t-71 -3.5q-348 0 -567.5 229t-219.5 598q0 314 120 513.5t304 199.5q83 0 139.5 -42.5t77.5 -121.5l20 22q129 140 148 140q18 0 107.5 -45t130.5 -45q17 0 40 22.5t46 61.5l35 -25l-140 -201q-4 -6 -13.5 -11t-16.5 -5q-30 0 -128.5 45t-140.5 45
q-24 0 -87.5 -67.5t-63.5 -100.5q0 -35 98 -272l21 -49q9 -24 28 -68q92 -219 92 -260q0 -25 -84.5 -137.5t-138.5 -194.5q56 -18 115 -27.5t119 -9.5q89 0 164 21t153 67zM951 1829l-273 -236h-49l242 307q22 27 38 38.5t33 11.5q24 0 40 -15t16 -37q0 -15 -10 -30t-37 -39
z" />
    <glyph glyph-name="cacute" unicode="&#x107;" horiz-adv-x="645" 
d="M324 -47l-25 14l14 25q-113 68 -153.5 134.5t-40.5 190.5v349q0 63 10 87.5t39 51.5l194 180q12 12 22.5 18.5t16.5 6.5q28 0 77 -46t71 -46q10 0 33 13l2 1l26 -23l-102 -96q-11 -10 -19 -14t-14 -4q-5 0 -17.5 7t-29.5 19l-98 74l-29 -25q-25 -22 -35 -46t-10 -72v-371
q0 -60 4 -89.5t12 -45.5q21 -39 65.5 -71t76.5 -32q20 0 51 20.5t102 84.5l31 -25q-104 -101 -163.5 -160t-110.5 -110zM559 1356l-273 -236h-49l242 307q22 27 38 38.5t33 11.5q24 0 40 -15t16 -37q0 -15 -10 -30t-37 -39z" />
    <glyph glyph-name="Ccaron" unicode="&#x10c;" horiz-adv-x="1298" 
d="M645 197q59 87 79.5 139t20.5 104q0 41 -17.5 100t-61.5 160q-28 64 -77 167q-73 157 -73 192q0 24 134 172q29 32 44 49q-6 73 -53.5 116.5t-120.5 43.5q-125 0 -201.5 -154t-76.5 -409q0 -251 107.5 -432t295.5 -248zM1239 229l25 -30q-89 -82 -144 -135t-102 -103
q-32 -7 -66 -10.5t-71 -3.5q-348 0 -567.5 229t-219.5 598q0 314 120 513.5t304 199.5q83 0 139.5 -42.5t77.5 -121.5l20 22q129 140 148 140q18 0 107.5 -45t130.5 -45q17 0 40 22.5t46 61.5l35 -25l-140 -201q-4 -6 -13.5 -11t-16.5 -5q-30 0 -128.5 45t-140.5 45
q-24 0 -87.5 -67.5t-63.5 -100.5q0 -35 98 -272l21 -49q9 -24 28 -68q92 -219 92 -260q0 -25 -84.5 -137.5t-138.5 -194.5q56 -18 115 -27.5t119 -9.5q89 0 164 21t153 67zM484 1943h47l223 -233l223 233h47l-223 -350h-94z" />
    <glyph glyph-name="ccaron" unicode="&#x10d;" horiz-adv-x="645" 
d="M324 -47l-25 14l14 25q-113 68 -153.5 134.5t-40.5 190.5v349q0 63 10 87.5t39 51.5l194 180q12 12 22.5 18.5t16.5 6.5q28 0 77 -46t71 -46q10 0 33 13l2 1l26 -23l-102 -96q-11 -10 -19 -14t-14 -4q-5 0 -17.5 7t-29.5 19l-98 74l-29 -25q-25 -22 -35 -46t-10 -72v-371
q0 -60 4 -89.5t12 -45.5q21 -39 65.5 -71t76.5 -32q20 0 51 20.5t102 84.5l31 -25q-104 -101 -163.5 -160t-110.5 -110zM92 1470h47l223 -233l223 233h47l-223 -350h-94z" />
    <glyph glyph-name="dcroat" unicode="&#x111;" horiz-adv-x="819" 
d="M274 219l183 -98q6 -4 13.5 -6t14.5 -2q45 0 109.5 126.5t64.5 268.5q0 126 -53 223.5t-190 214.5l-107 -67q-19 -13 -27 -29t-8 -45v-31v-555zM137 338v485q16 2 42 19l9 6l197 129q-29 30 -80 100l-6 8h-215v54h180q-10 22 -15 45t-5 49q0 88 70 148.5t178 60.5l-1 -43
q-63 -2 -96 -28t-33 -75q0 -28 24 -68t71 -89h248v-54h-207q179 -176 226.5 -270t47.5 -211q0 -152 -90 -312.5t-276 -338.5h-35q-4 41 -92.5 92t-210.5 76v41q39 14 54 42.5t15 117.5v16z" />
    <glyph glyph-name="Gbreve" unicode="&#x11e;" horiz-adv-x="1546" 
d="M270 793q41 -386 196.5 -590.5t405.5 -204.5q184 0 302 109t118 276q0 165 -97 279t-234 114q-70 0 -188 -74.5t-206 -74.5q-75 0 -145.5 39t-151.5 127zM268 865q85 -98 152.5 -142.5t130.5 -44.5q75 0 119.5 43.5t44.5 118.5q0 69 -62.5 205.5t-62.5 162.5
q0 37 33.5 91t99.5 122q-24 7 -46 10t-44 3q-180 0 -271.5 -144t-93.5 -425zM1169 899q134 -61 208.5 -168.5t74.5 -241.5q0 -239 -165 -387.5t-437 -148.5q-345 0 -550.5 221t-205.5 590q0 319 147.5 520t374.5 201q38 0 74 -6.5t70 -20.5q8 7 23 19q32 28 48 41l27 -27
q-11 -10 -21 -21.5t-28 -33.5q36 -20 63 -37.5t52 -36.5l-29 -39q-24 23 -52.5 41t-62.5 33q-16 -24 -24 -45.5t-8 -40.5q0 -46 63 -171t63 -186q0 -24 -21 -75.5t-58 -116.5q57 46 178 90q33 12 49 18q100 41 163.5 109.5t63.5 130.5q0 50 -115 155q-27 25 -42 40
q-19 16 -25 24.5t-6 16.5q0 18 121 145l2 2l28 -23q-1 -2 -3 -5q-9 -15 -9 -19q0 -12 26 -44.5t79 -84.5q9 -10 25 -26q47 -48 65 -48q8 0 13.5 1t10.5 3l19 -22q-56 -44 -134 -161t-135 -165zM540 1900h45q19 -82 75 -118.5t163 -36.5q109 0 164.5 37t71.5 118h47
q-19 -128 -91.5 -196t-191.5 -68q-118 0 -190.5 67.5t-92.5 196.5z" />
    <glyph glyph-name="gbreve" unicode="&#x11f;" horiz-adv-x="844" 
d="M551 277q-2 23 -3 51t-1 84q0 101 12.5 183.5t38.5 145.5q-54 15 -120 50.5t-134 87.5q-82 -76 -123 -167t-41 -198q0 -132 73.5 -244t131.5 -112q9 0 18.5 4.5t27.5 18.5zM557 229l-307 -249l-39 10q0 1 2 7q4 14 4 21q0 26 -30 66q-7 9 -11 14q-73 100 -101 174
t-28 156q0 132 68.5 251t298.5 331h39q0 -1 -1 -2t-1 -2q0 -26 88 -75.5t209 -82.5v-39q-35 -51 -50.5 -124.5t-15.5 -188.5q0 -141 20.5 -236.5t65.5 -161.5q0 -11 1 -26t1 -19q0 -197 -108 -323.5t-279 -126.5q-143 0 -233 72t-105 198h122q3 -109 62 -169t164 -60
q112 0 191.5 81.5t79.5 178.5q0 15 -47 121t-60 204zM139 1427h45q19 -82 75 -118.5t163 -36.5q109 0 164.5 37t71.5 118h47q-19 -128 -91.5 -196t-191.5 -68q-118 0 -190.5 67.5t-92.5 196.5z" />
    <glyph glyph-name="Idotaccent" unicode="&#x130;" horiz-adv-x="1194" 
d="M352 879l-12 -48q-130 23 -206.5 102t-76.5 191q0 113 76.5 195.5t222.5 126.5q22 6 59 13q56 10 56 34h45v-2q0 -20 125 -89q66 -37 107 -61q76 -45 109 -59t56 -14q32 0 66.5 22.5t34.5 40.5q0 10 -5.5 18.5t-17.5 14.5l-2.5 10l-1.5 6q0 18 14.5 30.5t36.5 12.5
q23 0 37.5 -17.5t14.5 -45.5q0 -24 -19 -50.5t-53 -49.5q-64 -45 -141.5 -78t-102.5 -33q-41 0 -155 73q-62 39 -99 60q-46 27 -94.5 41t-93.5 14q-95 0 -161.5 -62.5t-66.5 -150.5q0 -94 68 -161.5t180 -83.5zM82 84l-45 12q29 81 80.5 120.5t126.5 39.5q32 0 82 -9t65 -9
q16 0 30 4.5t28 13.5l32 -18v-19q0 -72 66.5 -126t154.5 -54q98 0 165 62t67 151q0 61 -76 189l-27 45q-70 122 -110.5 215.5t-40.5 129.5q0 32 28.5 87t75.5 108q47 54 101 85.5t98 31.5q40 0 62 -19t22 -53q0 -28 -13 -43.5t-36 -15.5q-10 0 -16.5 3t-14.5 11
q3 8 3.5 11.5t0.5 6.5q0 15 -12.5 23t-34.5 8q-48 0 -81.5 -40.5t-33.5 -100.5q0 -64 85 -220q13 -23 20 -36q14 -26 40 -73q105 -193 105 -247q0 -61 -37.5 -131.5t-103.5 -134.5q-62 -59 -144 -85.5t-206 -26.5h-35q-53 0 -76.5 -7.5t-40.5 -25.5l-39 18
q-14 96 -69.5 158.5t-120.5 62.5q-42 0 -73.5 -26t-51.5 -76zM756 1733q-40 -12 -61.5 -34t-29.5 -59h-36q-8 37 -29.5 59t-61.5 34v34q40 11 61.5 33t29.5 57h36q8 -35 29.5 -57t61.5 -33v-34z" />
    <glyph glyph-name="dotlessi" unicode="&#x131;" horiz-adv-x="469" 
d="M268 -47l-32 16l8 19q-51 39 -66.5 64.5t-15.5 66.5q0 26 2 68t2 57v467q0 51 -7 69.5t-24 18.5q-13 0 -27 -8t-38 -31l-27 26q51 50 99.5 105t97.5 119l28 -19q-7 -13 -11.5 -25t-4.5 -18q0 -19 42 -49.5t52 -30.5q1 0 6 -2l10 -4v-45q-34 -7 -46.5 -28t-12.5 -80v-490
q0 -33 14.5 -55.5t32.5 -22.5q10 0 25.5 11.5t40.5 37.5l30 -30q-47 -47 -92 -98.5t-86 -108.5z" />
    <glyph glyph-name="Lslash" unicode="&#x141;" horiz-adv-x="1110" 
d="M20 57q45 77 94 178t66 101q8 0 61 -16q23 -7 35 -11q63 32 97.5 74.5t34.5 89.5q0 34 -18.5 75t-59.5 99l-209 -88l-25 53l199 80q-122 166 -157.5 235t-35.5 120q0 49 22.5 114.5t59.5 122.5q69 105 175.5 158t246.5 53q170 0 276.5 -81.5t106.5 -207.5
q0 -52 -8 -106.5t-8 -55.5q0 -10 2 -16.5t8 -15.5l-21 -33q-9 3 -17.5 4.5t-16.5 1.5q-56 0 -99 -35.5t-43 -79.5q0 -36 25.5 -57.5t69.5 -21.5q17 0 37.5 6.5t44.5 19.5l16 -41q-27 -14 -53 -21t-52 -7q-65 0 -103 44t-38 121q0 41 16.5 85t16.5 51q0 6 -2.5 12.5
t-7.5 13.5l32 21q4 -2 9.5 -3t17.5 -1q48 0 83.5 37t35.5 90q0 104 -92.5 166.5t-251.5 62.5q-148 0 -242 -79.5t-94 -201.5q0 -107 168 -332q29 -39 45 -61l195 80l22 -53l-186 -76q29 -44 44 -85.5t15 -80.5q0 -74 -58 -141t-177 -129q31 -15 88 -42q288 -134 372 -134
q72 0 168 123q12 16 19 24l39 -27q-45 -60 -101 -126t-137 -152q-18 -4 -32.5 -6t-24.5 -2q-63 0 -149.5 28.5t-213.5 92.5q-73 36 -125 55.5t-71 19.5q-23 0 -77 -75q-14 -20 -22 -31z" />
    <glyph glyph-name="lslash" unicode="&#x142;" horiz-adv-x="440" 
d="M274 774l138 92v-61l-138 -92v-482q0 -40 5 -52.5t18 -20.5l47 -29q10 -5 15.5 -6.5t11.5 -1.5t15 3.5t19 10.5l72 51l29 -30l-252 -203l-27 16l11 15v2q0 16 -45.5 42.5t-116.5 49.5v37q33 4 47 22.5t14 59.5v55v375l-137 -92v63l137 92v518q0 32 -8.5 61.5t-28.5 61.5
l29 21q25 -25 39 -51t20 -58q31 98 100.5 148.5t174.5 50.5v-43q-103 -6 -146 -64.5t-43 -197.5v-363z" />
    <glyph glyph-name="OE" unicode="&#x152;" horiz-adv-x="2109" 
d="M1196 420q29 59 43 121.5t14 136.5q0 137 -40.5 246t-110.5 163q-8 -54 -11.5 -99t-3.5 -91q0 -143 27.5 -262t81.5 -215zM2032 246l22 -35q-81 -69 -158 -130.5t-155 -117.5q-20 -5 -45.5 -7.5t-61.5 -2.5q-164 0 -291 68t-223 206q-126 -120 -253 -198t-179 -78
q-31 0 -119.5 37t-203.5 100q-83 44 -125.5 64t-55.5 20q-19 0 -37 -7.5t-41 -25.5l-28 35q127 102 167 129t56 27q18 0 89 -39q24 -13 38 -21q28 -14 81 -43q196 -106 298 -106q77 0 147 36.5t142 114.5q-62 123 -90.5 248t-28.5 273q0 96 10.5 182t32.5 162
q-104 57 -294.5 103.5t-236.5 119.5q-126 -75 -182.5 -138t-56.5 -128q0 -47 24.5 -101.5t71.5 -113.5q22 -29 63 -78q126 -153 126 -213q0 -75 -77 -128.5t-186 -53.5q-15 0 -33.5 1.5t-39.5 4.5v42q11 0 21.5 -0.5t23.5 -0.5q58 0 91.5 23t33.5 63q0 39 -96 155
q-44 53 -68 84q-53 68 -78 123t-25 107q0 153 337 378l10 7q49 32 72.5 61.5t29.5 64.5l39 1q24 -68 208 -120t283 -110q49 94 126 145.5t167 51.5q73 0 131 -35.5t82 -95.5q59 77 84 104t35 27q22 0 102 -24.5t117 -24.5q18 0 33 12t31 39l34 -16q-33 -62 -67 -135.5
t-41 -73.5q-30 0 -119.5 35.5t-140.5 35.5q-28 0 -72.5 -53t-44.5 -86q0 -20 46.5 -101.5t123.5 -195.5l18 18q109 105 125 146h31q32 -45 65.5 -72.5t73.5 -42.5v-37q-30 -21 -51 -46.5t-37 -59.5h-32q-23 33 -53 57.5t-70 44.5l-49 -49q46 -79 60.5 -111t14.5 -51
q0 -17 -19.5 -81t-29.5 -113q-22 -113 -67 -166t-117 -53q-74 0 -127.5 54t-73.5 148l47 11q17 -80 56.5 -123t97.5 -43q54 0 89.5 47t35.5 121q0 35 -18.5 87t-55.5 122q-59 107 -141 240.5t-82 152.5q0 17 93 138q38 49 60 79q-15 54 -64 88.5t-112 34.5q-73 0 -132.5 -50
t-98.5 -145q89 -87 136.5 -212t47.5 -269q0 -101 -26 -197.5t-80 -193.5q77 -115 190 -174.5t252 -59.5q103 0 194.5 26.5t172.5 80.5z" />
    <glyph glyph-name="oe" unicode="&#x153;" horiz-adv-x="1237" 
d="M90 90v41q26 8 36.5 44.5t10.5 125.5v352q0 55 -2.5 96.5t-7.5 77.5l440 183l23 -37l-31 -17q16 -41 57 -104.5t54 -87.5l274 246h45l174 -305q5 -8 7.5 -15t3.5 -14q0 -7 -3 -13.5t-8 -11.5l-387 -313q11 -85 63.5 -140t121.5 -55q41 0 85 24t97 75l24 -25l-276 -264
l-29 16l8 17q-101 44 -158 102t-65 125q-47 -65 -128.5 -147.5t-100.5 -112.5h-41q-7 34 -74.5 67t-212.5 70zM274 199q36 -18 92 -47q98 -50 115 -50q37 0 97.5 99t60.5 202q0 135 -139 339q-67 97 -97 153l-129 -53v-643zM772 723v-334l250 203q4 3 7 9.5t3 12.5
q0 4 -2 10.5t-6 14.5l-145 252q-69 -52 -88 -83t-19 -85z" />
    <glyph glyph-name="Scedilla" unicode="&#x15e;" horiz-adv-x="1593" 
d="M883 1051q-30 63 -86.5 100t-120.5 37q-85 0 -144 -57t-59 -140q0 -70 47 -116t119 -46q77 0 233.5 89.5t214.5 89.5q34 0 84 -20t99 -54q111 -78 168 -180t57 -224q0 -249 -179 -414t-454 -165q-334 0 -551 212t-217 544q0 156 63 301t177 249q108 100 259.5 167
t254.5 67q65 0 191 -80l42 -27q103 -62 154.5 -85t85.5 -23q44 0 77.5 27t33.5 61q0 18 -16.5 38.5t-16.5 35.5q0 18 9.5 29.5t25.5 11.5q21 0 34 -23.5t13 -62.5q0 -41 -14 -72.5t-42 -54.5q-52 -46 -140 -85.5t-111 -39.5q-27 0 -124 65q-78 53 -130 84
q-78 45 -127.5 60.5t-104.5 15.5q-196 0 -339.5 -164t-143.5 -399q0 -151 59.5 -276t184.5 -234q103 -92 235.5 -143.5t263.5 -51.5q216 0 358 120.5t142 303.5q0 139 -81 236.5t-191 97.5q-77 0 -306 -117q-72 -37 -112 -57q-26 -13 -49.5 -22t-28.5 -9q-14 0 -60 46
q-33 33 -54 52l-8 7q-134 120 -134 235q0 101 74.5 172.5t175.5 71.5q77 0 142 -41.5t106 -116.5zM1047 -113v-182h39v-29q-77 -21 -133 -74t-58 -53q-31 0 -117 46.5t-106 46.5q-12 0 -54 -45q-10 -11 -16 -17l-32 21q53 63 91.5 97t57.5 34q23 0 107 -46t110 -46
q4 0 8.5 4t4.5 8v168h-220l29 33v147h66v-113h223z" />
    <glyph glyph-name="scedilla" unicode="&#x15f;" horiz-adv-x="786" 
d="M199 248q31 -23 85 -63q132 -99 167 -99q57 0 118.5 62t61.5 137q0 87 -74 166t-123 79q-8 0 -16 -6t-21 -22zM344 504l209 266q-90 5 -170.5 56t-91.5 51q-23 0 -63 -40.5t-40 -68.5q0 -24 61 -106.5t95 -157.5zM59 145v39q67 30 114.5 92.5t47.5 114.5
q0 51 -76.5 157.5t-76.5 145.5q0 21 12 43.5t41 53.5q93 98 162 158.5t88 60.5q5 0 33 -21q99 -74 167 -74q62 0 95.5 31.5t33.5 89.5q0 68 -36.5 113t-90.5 45q-40 0 -65.5 -27.5t-34.5 -78.5q-24 20 -44.5 32t-41.5 19q21 51 63.5 79.5t96.5 28.5q81 0 138.5 -61.5
t57.5 -149.5q0 -41 -17.5 -86.5t-49.5 -87.5l-150 -192q102 -53 156.5 -129t54.5 -164t-47 -163.5t-139 -135.5q-24 -15 -71 -40q-91 -48 -124 -85h-37q-6 26 -70.5 74t-189.5 118zM643 -113v-182h39v-29q-77 -21 -133 -74t-58 -53q-31 0 -117 46.5t-106 46.5q-12 0 -54 -45
q-10 -11 -16 -17l-32 21q53 63 91.5 97t57.5 34q23 0 107 -46t110 -46q4 0 8.5 4t4.5 8v168h-220l29 33v147h66v-113h223z" />
    <glyph glyph-name="Scaron" unicode="&#x160;" horiz-adv-x="1593" 
d="M883 1051q-30 63 -86.5 100t-120.5 37q-85 0 -144 -57t-59 -140q0 -70 47 -116t119 -46q77 0 233.5 89.5t214.5 89.5q34 0 84 -20t99 -54q111 -78 168 -180t57 -224q0 -249 -179 -414t-454 -165q-334 0 -551 212t-217 544q0 156 63 301t177 249q108 100 259.5 167
t254.5 67q65 0 191 -80l42 -27q103 -62 154.5 -85t85.5 -23q44 0 77.5 27t33.5 61q0 18 -16.5 38.5t-16.5 35.5q0 18 9.5 29.5t25.5 11.5q21 0 34 -23.5t13 -62.5q0 -41 -14 -72.5t-42 -54.5q-52 -46 -140 -85.5t-111 -39.5q-27 0 -124 65q-78 53 -130 84
q-78 45 -127.5 60.5t-104.5 15.5q-196 0 -339.5 -164t-143.5 -399q0 -151 59.5 -276t184.5 -234q103 -92 235.5 -143.5t263.5 -51.5q216 0 358 120.5t142 303.5q0 139 -81 236.5t-191 97.5q-77 0 -306 -117q-72 -37 -112 -57q-26 -13 -49.5 -22t-28.5 -9q-14 0 -60 46
q-33 33 -54 52l-8 7q-134 120 -134 235q0 101 74.5 172.5t175.5 71.5q77 0 142 -41.5t106 -116.5zM576 1943h47l223 -233l223 233h47l-223 -350h-94z" />
    <glyph glyph-name="scaron" unicode="&#x161;" horiz-adv-x="786" 
d="M123 1708h49l221 -233l223 233h50l-226 -350h-94zM199 248q31 -23 85 -63q132 -99 167 -99q59 0 119.5 62.5t60.5 136.5q0 46 -16.5 83.5t-57.5 82.5q-32 33 -69.5 56t-53.5 23q-8 0 -16 -6t-21 -22zM344 504l209 266q-89 6 -170.5 56.5t-91.5 50.5q-24 0 -63.5 -40.5
t-39.5 -68.5q0 -22 60.5 -105.5t95.5 -158.5zM59 145v39q70 34 116 94.5t46 112.5q0 47 -64 137q-17 24 -26 37q-37 54 -50 82t-13 47q0 22 13 45.5t40 51.5q103 105 167.5 162t82.5 57q5 0 32 -20q96 -75 168 -75q63 0 96 31.5t33 89.5q0 68 -36.5 113t-90.5 45
q-40 0 -65.5 -27.5t-34.5 -78.5q-20 18 -42 31t-44 20q23 51 65 79.5t95 28.5q81 0 138.5 -61t57.5 -150q0 -42 -17 -87t-50 -87l-150 -192q103 -55 157 -130t54 -163t-47 -163.5t-139 -135.5q-23 -15 -94 -53.5t-101 -71.5h-37q-6 26 -70.5 74t-189.5 118z" />
    <glyph glyph-name="Ydieresis" unicode="&#x178;" horiz-adv-x="1470" 
d="M233 285q232 49 334.5 168t102.5 338q0 235 -100.5 385.5t-256.5 150.5q-104 0 -177 -84.5t-73 -206.5q0 -132 76.5 -219.5t206.5 -105.5l-6 -45q-147 15 -236.5 118.5t-89.5 257.5q0 182 114.5 312.5t266.5 130.5q119 0 217.5 -84.5t155.5 -235.5q86 103 167.5 183.5
t162.5 142.5l26 -25q-5 -9 -8.5 -19.5t-3.5 -16.5q0 -38 79 -169q25 -41 38 -63q70 -120 105.5 -248t35.5 -260q0 -265 -117.5 -518.5t-322.5 -427.5q-85 -73 -169 -110t-163 -37q-104 0 -178 54.5t-74 127.5q0 40 26.5 66t67.5 26q34 0 57 -18t23 -43q0 -21 -7 -41t-7 -23
q0 -27 38 -50.5t87 -23.5q119 0 225.5 76t198.5 225q70 115 111.5 275t41.5 317q0 183 -49.5 340.5t-200.5 399.5q-66 -67 -104.5 -110t-67.5 -83q11 -66 16 -114.5t5 -88.5q0 -172 -70 -311.5t-207 -241.5q60 -46 146.5 -124t116.5 -78q14 0 40.5 10t67.5 33l29 -41
q-79 -47 -155.5 -97t-147.5 -102l-37 27q15 18 21.5 28t6.5 15q0 12 -57.5 67t-136.5 113q-33 23 -53.5 31t-42.5 8q-23 0 -44.5 -2t-41.5 -6zM1067 1733q-40 -12 -61.5 -34t-28.5 -58l-37 -1q-8 37 -29.5 59t-60.5 34v34q39 11 60.5 33t29.5 57h37q7 -35 28.5 -57t61.5 -33
v-34zM718 1733q-39 -12 -60.5 -34t-29.5 -59l-37 1q-7 36 -28.5 58t-61.5 34v34q40 11 61.5 33t28.5 57h37q8 -35 29.5 -57t60.5 -33v-34z" />
    <glyph glyph-name="Zcaron" unicode="&#x17d;" horiz-adv-x="1100" 
d="M109 -422q-34 26 -51 61t-17 78q0 67 39 109.5t162 89.5q5 2 13 5q85 30 85 52v4h45q11 -52 78 -116t112 -64q106 0 189.5 90.5t83.5 218.5q0 189 -152.5 336.5t-343.5 147.5q-76 0 -125 -29t-49 -74q0 -2 1 -7l3 -15q-14 0 -27.5 -3t-24.5 -9q-4 2 -15 11.5t-18 14.5
q20 71 81 118t149 60q-66 10 -115.5 40t-82.5 81l37 29q44 -44 104.5 -66t139.5 -22q170 0 273 89.5t103 240.5q0 144 -103.5 242t-262.5 98q-124 0 -212 -78t-104 -203h-47q19 174 139 275.5t310 101.5q200 0 324 -108.5t124 -280.5q0 -153 -100.5 -261.5t-278.5 -146.5
q180 -21 295 -149.5t115 -307.5q0 -195 -105 -318t-313 -171q-13 -3 -37 -8q-97 -20 -104 -49h-43q-55 80 -98.5 118.5t-79.5 38.5q-46 0 -81.5 -37.5t-35.5 -89.5q0 -29 11.5 -53t35.5 -45zM330 1943h47l223 -233l223 233h47l-223 -350h-94z" />
    <glyph glyph-name="zcaron" unicode="&#x17e;" horiz-adv-x="578" 
d="M256 240q-92 -80 -136 -166.5t-44 -188.5q0 -101 49.5 -167t124.5 -66q65 0 104 61.5t39 165.5q0 97 -35 189t-102 172zM231 272q-19 25 -48.5 50t-71.5 51v37q107 56 161 122.5t54 141.5q0 62 -33.5 104.5t-79.5 42.5q-30 0 -51.5 -10.5t-55.5 -46.5l-32 27l207 253
l34 -20q-4 -7 -6 -13t-2 -12t82 -61t82 -147q0 -64 -46 -138.5t-149 -177.5q53 -46 77 -70.5t38 -44.5q22 13 47 24t56 22l12 -39q-25 -10 -47.5 -21t-42.5 -22q47 -71 69.5 -151t22.5 -177q0 -172 -71.5 -282.5t-180.5 -110.5q-99 0 -161 78t-62 204q0 113 50.5 211
t147.5 176zM19 1470h47l223 -233l223 233h47l-223 -350h-94z" />
    <glyph glyph-name="florin" unicode="&#x192;" horiz-adv-x="1063" 
d="M406 721h-228v57h234q49 331 152 483t276 152q107 0 172 -55t65 -146q0 -40 -21 -62t-59 -22t-57.5 18.5t-19.5 53.5q0 19 3 49t3 41q0 34 -25.5 54t-69.5 20q-86 0 -132.5 -81t-80.5 -310l-28 -195h282v-57h-290l-93 -610q-35 -239 -137.5 -373.5t-247.5 -134.5
q-101 0 -162 53.5t-61 140.5q0 43 22.5 66.5t63.5 23.5q33 0 53.5 -19t20.5 -50q0 -23 -9 -54.5t-9 -42.5q0 -32 23 -52.5t58 -20.5q77 0 118 65.5t69 247.5z" />
    <glyph glyph-name="circumflex" unicode="&#x2c6;" 
d="M465 1470h94l223 -350h-47l-223 232l-223 -232h-47z" />
    <glyph glyph-name="caron" unicode="&#x2c7;" 
d="M242 1470h47l223 -233l223 233h47l-223 -350h-94z" />
    <glyph glyph-name="breve" unicode="&#x2d8;" 
d="M229 1427h45q19 -82 75 -118.5t163 -36.5q109 0 164.5 37t71.5 118h47q-19 -128 -91.5 -196t-191.5 -68q-118 0 -190.5 67.5t-92.5 196.5z" />
    <glyph glyph-name="dotaccent" unicode="&#x2d9;" 
d="M621 1260q-40 -12 -61.5 -34t-29.5 -59h-36q-8 37 -29.5 59t-61.5 34v34q40 11 61.5 33t29.5 57h36q8 -35 29.5 -57t61.5 -33v-34z" />
    <glyph glyph-name="ring" unicode="&#x2da;" 
d="M512 1487q-63 0 -107.5 -44.5t-44.5 -107.5q0 -64 43.5 -107.5t108.5 -43.5t108.5 43.5t43.5 107.5q0 63 -44.5 107.5t-107.5 44.5zM512 1569q97 0 165 -68.5t68 -165.5q0 -96 -68 -164.5t-165 -68.5q-98 0 -165.5 67.5t-67.5 165.5q0 99 67.5 166.5t165.5 67.5z" />
    <glyph glyph-name="ogonek" unicode="&#x2db;" 
d="M616 31l-151 -160q-19 -20 -29 -40.5t-10 -37.5q0 -33 47.5 -85t71.5 -52q15 0 89 62l10 7l24 -26q-32 -29 -94.5 -89.5t-94.5 -90.5l-20 20l10 17q-70 52 -106.5 100t-36.5 88q0 29 18.5 63t50.5 64l176 160h45z" />
    <glyph glyph-name="tilde" unicode="&#x2dc;" 
d="M754 1389h43l-2 -6q-62 -187 -109 -187q-35 0 -70.5 5.5t-71.5 17.5l-116 36q-30 9 -52.5 14t-35.5 5q-21 0 -35 -18.5t-35 -77.5h-43q6 17 17 47q52 147 98 147q23 0 60.5 -7.5t84.5 -21.5l117 -32q29 -8 45.5 -11.5t30.5 -3.5q25 0 38.5 14t35.5 79z" />
    <glyph glyph-name="hungarumlaut" unicode="&#x2dd;" 
d="M561 1366l-166 -246h-43l117 289q15 38 30.5 54t37.5 16q21 0 36 -14t15 -35q0 -11 -7 -27.5t-20 -36.5zM807 1368l-186 -248h-43l141 295q16 33 32.5 48.5t34.5 15.5q21 0 37.5 -15t16.5 -34q0 -11 -7 -24t-26 -38z" />
    <glyph glyph-name="Omega" unicode="&#x3a9;" horiz-adv-x="1567" 
d="M1100 188v-26h313l66 203h61l-108 -365h-500q134 233 202 451t68 413q0 271 -107.5 416t-308.5 145t-309 -145t-108 -416q0 -195 68 -411t204 -453h-500l-110 365h61l68 -203h311v26q-165 203 -234 361.5t-69 327.5q0 272 174.5 446t443.5 174t443 -174.5t174 -445.5
q0 -169 -69 -327.5t-234 -361.5z" />
    <glyph glyph-name="pi" unicode="&#x3c0;" horiz-adv-x="1354" 
d="M1329 885l-35 -162h-329q-34 -179 -54 -452q-23 -314 -120 -314q-38 0 -58 24.5t-20 69.5q0 58 77 280.5t117 391.5h-375q-33 -177 -53 -448q-25 -318 -123 -318q-37 0 -57 25t-20 71q0 56 77.5 277t118.5 393h-133q-136 0 -180 -43.5t-72 -171.5h-59q37 207 117.5 292
t238.5 85h942z" />
    <glyph glyph-name="endash" unicode="&#x2013;" 
d="M1024 557v-80h-1024v80h1024z" />
    <glyph glyph-name="emdash" unicode="&#x2014;" horiz-adv-x="2048" 
d="M2048 557v-80h-2048v80h2048z" />
    <glyph glyph-name="quoteleft" unicode="&#x2018;" horiz-adv-x="530" 
d="M434 1485l-102 -469q-14 -64 -39 -92.5t-66 -28.5q-35 0 -55 17t-20 46q0 17 5.5 35.5t24.5 57.5l213 434h39z" />
    <glyph glyph-name="quoteright" unicode="&#x2019;" horiz-adv-x="530" 
d="M154 895l104 467q14 66 38.5 94.5t65.5 28.5q34 0 54 -19t20 -51q0 -21 -25 -73q-3 -9 -5 -13l-211 -434h-41z" />
    <glyph glyph-name="quotesinglbase" unicode="&#x201a;" horiz-adv-x="530" 
d="M43 -352l102 467q15 66 39 94.5t66 28.5q34 0 54 -18t20 -50q0 -15 -6 -33.5t-23 -54.5l-213 -434h-39z" />
    <glyph glyph-name="quotedblleft" unicode="&#x201c;" horiz-adv-x="883" 
d="M786 1485l-104 -469q-14 -65 -38 -93t-64 -28q-35 0 -55.5 17t-20.5 46q0 17 5.5 35.5t25.5 57.5l210 434h41zM434 1485l-102 -469q-14 -64 -39 -92.5t-66 -28.5q-35 0 -55 17t-20 46q0 17 5.5 35.5t24.5 57.5l213 434h39z" />
    <glyph glyph-name="quotedblright" unicode="&#x201d;" horiz-adv-x="883" 
d="M506 895l102 467q14 66 38.5 94.5t66.5 28.5q34 0 53.5 -19t19.5 -51q0 -21 -24 -73q-4 -9 -6 -13l-211 -434h-39zM154 895l104 467q14 66 38.5 94.5t65.5 28.5q34 0 54 -19t20 -51q0 -21 -25 -73q-3 -9 -5 -13l-211 -434h-41z" />
    <glyph glyph-name="quotedblbase" unicode="&#x201e;" horiz-adv-x="883" 
d="M393 -352l105 467q14 66 38 94.5t66 28.5q35 0 54.5 -18t19.5 -50q0 -23 -28 -82l-3 -6l-213 -434h-39zM43 -352l102 467q15 66 39 94.5t66 28.5q34 0 54 -18t20 -50q0 -15 -6 -33.5t-23 -54.5l-213 -434h-39z" />
    <glyph glyph-name="dagger" unicode="&#x2020;" 
d="M492 1485h40q12 -50 42 -76.5t77 -28.5v-43q-44 -5 -62 -28t-18 -78v-242h68q55 0 78.5 17t28.5 59h40q2 -45 28 -72t71 -31v-36q-46 -5 -71.5 -31t-27.5 -70h-40q-5 42 -28.5 59t-78.5 17h-68v-989q0 -55 18 -78t62 -29v-42q-47 -2 -77.5 -28.5t-41.5 -76.5h-40
q-11 50 -41.5 76.5t-77.5 28.5v42q44 6 62 29t18 78v989h-68q-56 0 -79.5 -17t-27.5 -59h-40q-2 45 -27 70.5t-72 30.5v36q46 5 71.5 31.5t27.5 71.5h40q4 -42 27.5 -59t79.5 -17h68v242q0 55 -18 78t-62 28v43q48 2 78 28.5t41 76.5z" />
    <glyph glyph-name="daggerdbl" unicode="&#x2021;" 
d="M492 1485h40q12 -50 42 -76.5t77 -28.5v-43q-44 -5 -62 -28t-18 -78v-195h68q55 0 78.5 17t28.5 59h40q2 -45 28 -72t71 -31v-36q-46 -5 -71.5 -30.5t-27.5 -70.5l-41 1q-4 41 -27.5 58t-78.5 17h-68v-755h68q55 0 78.5 16.5t28.5 58.5h40q2 -44 27 -70.5t71 -31.5l1 -36
q-47 -6 -72 -31.5t-27 -69.5h-40q-5 41 -28.5 58t-78.5 17h-68v-192q0 -55 18 -78t62 -29v-42q-47 -2 -77.5 -28.5t-41.5 -76.5h-40q-11 50 -41.5 76.5t-77.5 28.5v42q44 6 62 29t18 78v192h-68q-56 0 -80 -17t-27 -58h-40q-2 44 -26.5 69.5t-72.5 31.5l1 36q46 5 71 31
t27 71h40q4 -42 27.5 -58.5t79.5 -16.5h68v755h-68q-56 0 -79.5 -17t-26.5 -58l-41 -1q-2 45 -27 70.5t-72 30.5l1 37q45 4 70.5 30.5t27.5 71.5h40q4 -42 27.5 -59t79.5 -17h68v195q0 55 -18 78t-62 28v43q48 2 78 28.5t41 76.5z" />
    <glyph glyph-name="bullet" unicode="&#x2022;" horiz-adv-x="1208" 
d="M307 762q0 123 87 209t210 86q122 0 208.5 -86.5t86.5 -208.5t-87.5 -209.5t-209.5 -87.5q-123 0 -209 87t-86 210z" />
    <glyph glyph-name="ellipsis" unicode="&#x2026;" horiz-adv-x="2048" 
d="M484 72q-52 -14 -80.5 -42.5t-38.5 -76.5h-47q-11 49 -39 77t-80 42v47q52 14 80 42t39 77h47q10 -49 38.5 -77t80.5 -42v-47zM1166 72q-52 -14 -80.5 -42.5t-38.5 -76.5h-47q-11 49 -39 77t-80 42v47q52 14 80 42t39 77h47q10 -49 38.5 -77t80.5 -42v-47zM1850 72
q-52 -14 -80.5 -42.5t-38.5 -76.5h-47q-11 49 -39 77t-80 42v47q52 14 80 42t39 77h47q10 -49 38.5 -77t80.5 -42v-47z" />
    <glyph glyph-name="perthousand" unicode="&#x2030;" horiz-adv-x="2038" 
d="M1565 367q0 -188 30.5 -267.5t100.5 -79.5q69 0 99 78.5t30 268.5t-30 268t-99 78q-70 0 -100.5 -79t-30.5 -267zM1694 758q113 0 193.5 -113t80.5 -278t-80.5 -278.5t-193.5 -113.5q-111 0 -192 114t-81 278q0 163 81.5 277t191.5 114zM920 367q0 -188 30.5 -267.5
t100.5 -79.5q69 0 99 78.5t30 268.5t-30 268t-99 78q-70 0 -100.5 -79t-30.5 -267zM1049 758q112 0 193 -113t81 -278t-81 -278.5t-193 -113.5q-111 0 -191 114t-80 278t80.5 277.5t190.5 113.5zM213 1020q0 -187 30.5 -265.5t100.5 -78.5t99.5 77.5t29.5 266.5
q0 191 -30 269.5t-99 78.5q-70 0 -100.5 -80t-30.5 -268zM342 1413q113 0 193.5 -113.5t80.5 -279.5q0 -165 -80.5 -277t-193.5 -112q-110 0 -190 112.5t-80 276.5t80.5 278.5t189.5 114.5zM381 -25h-100l731 1438h102z" />
    <glyph glyph-name="guilsinglleft" unicode="&#x2039;" horiz-adv-x="393" 
d="M322 86l-275 401v58l275 346v-113l-138 -262l138 -305v-125z" />
    <glyph glyph-name="guilsinglright" unicode="&#x203a;" horiz-adv-x="393" 
d="M72 891l274 -404v-55l-274 -346v113l137 262l-137 305v125z" />
    <glyph glyph-name="franc" unicode="&#x20a3;" horiz-adv-x="1749" 
d="M98 373q25 51 64.5 79.5t85.5 28.5q70 0 117 -51t47 -129q0 -88 -87 -213.5t-87 -193.5q0 -98 94 -168t231 -70q133 0 214 79t81 212q0 157 -201 417q-36 47 -55 72q-12 17 -36 48q-163 214 -163 323q0 99 84 227.5t232 253.5q-96 41 -185.5 62.5t-164.5 21.5
q-144 0 -236 -84.5t-92 -212.5q0 -78 42.5 -133.5t127.5 -89.5l-16 -45q-101 41 -152 110.5t-51 165.5q0 176 140.5 297t348.5 121q190 0 401.5 -95t213.5 -95q11 0 26 10.5t37 34.5l29 -31l-166 -166q-13 -13 -18.5 -16.5t-10.5 -3.5q-11 0 -83.5 47.5t-145.5 81.5
q-109 -91 -168 -184t-59 -171q0 -51 29 -115t85 -134q78 53 118.5 91.5t61.5 78.5h39q19 -33 53 -51.5t85 -24.5v-47q-32 -12 -56 -37t-45 -66h-43q-23 31 -49 47.5t-51 16.5q-13 0 -31 -9.5t-51 -35.5l28 -36q289 -363 289 -540q0 -195 -121 -319.5t-311 -124.5
q-180 0 -298.5 99.5t-118.5 246.5q0 58 21 110t69 109q13 17 40 46q64 69 64 122q0 41 -27 67.5t-69 26.5q-31 0 -60 -21.5t-47 -58.5zM1299 719q0 46 -10 64.5t-39 39.5l-47 -41l-27 27l43 50q95 112 129 151l33 -21q-4 -9 -6 -17t-2 -14q0 -13 31.5 -48t31.5 -83v-59
q36 61 94.5 139t61.5 102l35 1q7 -39 29.5 -75.5t62.5 -74.5v-53q-24 -26 -43 -57t-35 -68h-39q-12 35 -31.5 68.5t-50.5 70.5l-43 -65q-23 -35 -32 -61.5t-9 -78.5v-409q0 -15 4 -24t12 -15l54 -39q9 -6 16.5 -9t13.5 -3q8 0 14 2.5t11 7.5l104 90l31 -31l-239 -233l-33 14
l8 15q-47 41 -99.5 72.5t-107.5 51.5v37q40 5 57 28t17 73v475z" />
    <glyph glyph-name="trademark" unicode="&#x2122;" horiz-adv-x="1683" 
d="M788 1438h183l141 -400l148 400h174v-25l-30 -2q-22 -2 -34 -15.5t-12 -37.5v-373q0 -24 12 -37.5t34 -15.5l30 -2v-27h-236v27l31 2q21 2 33 16t12 37v395l-178 -479h-15l-174 479v-395q0 -23 12.5 -37t34.5 -16l31 -2v-27h-197v27l34 2q21 2 32.5 16t11.5 37v371
q0 23 -12.5 37t-34.5 16l-31 2v27zM256 1438h440l11 -178h-25q-8 79 -40.5 115t-96.5 36h-21v-426q0 -23 12 -37t33 -16l31 -2v-27h-248v27l31 2q21 1 33 15.5t12 37.5v426h-20q-64 0 -97 -36t-41 -115h-26z" />
    <glyph glyph-name="partialdiff" unicode="&#x2202;" horiz-adv-x="1044" 
d="M754 604q13 81 19.5 161.5t6.5 158.5q0 140 -39.5 216.5t-111.5 76.5q-53 0 -117 -63.5t-109 -63.5q-29 0 -51 21.5t-22 51.5q0 59 68 105.5t163 46.5q171 0 273 -152.5t102 -412.5q0 -335 -139 -555t-344 -220q-147 0 -241.5 106.5t-94.5 272.5q0 189 108.5 316
t266.5 127q99 0 162.5 -47t99.5 -146zM709 483q0 117 -45 180.5t-127 63.5q-113 0 -184.5 -127.5t-71.5 -333.5q0 -117 44 -178t128 -61q111 0 183.5 128t72.5 328z" />
    <glyph glyph-name="Delta" unicode="&#x2206;" horiz-adv-x="1208" 
d="M555 1212l-389 -1042h768zM596 1497h29l555 -1497h-1151z" />
    <glyph glyph-name="product" unicode="&#x220f;" horiz-adv-x="1595" 
d="M57 1473h1479v-70h-186v-1727h186v-69h-555v69h197v1727h-762v-1727h196v-69h-555v69h187v1727h-187v70z" />
    <glyph glyph-name="summation" unicode="&#x2211;" horiz-adv-x="1434" 
d="M12 1473h1135l98 -340h-74l-67 219q-8 27 -32 39t-73 12h-741l864 -850v-37l-858 -756h893q60 0 77.5 13t29.5 51l71 229h74l-135 -446h-1260v28l959 838l-961 950v50z" />
    <glyph glyph-name="minus" unicode="&#x2212;" horiz-adv-x="1706" 
d="M254 670h1198v-119h-1198v119z" />
    <glyph glyph-name="fraction" unicode="&#x2215;" horiz-adv-x="342" 
d="M-342 -25l924 1438h100l-922 -1438h-102z" />
    <glyph glyph-name="periodcentered" unicode="&#x2219;" horiz-adv-x="530" 
d="M156 694q0 45 32 77t76 32q46 0 78.5 -32t32.5 -77q0 -44 -33 -76t-78 -32q-44 0 -76 32t-32 76z" />
    <glyph glyph-name="radical" unicode="&#x221a;" horiz-adv-x="1288" 
d="M1106 1647h182v-82h-119l-594 -1606h-53l-323 893l-119 -43l-23 68l262 92l265 -729z" />
    <glyph glyph-name="infinity" unicode="&#x221e;" horiz-adv-x="1706" 
d="M905 559q51 -95 119 -141.5t156 -46.5q102 0 168.5 71t66.5 181q0 108 -61 179.5t-152 71.5q-85 0 -153.5 -72.5t-143.5 -242.5zM803 666q-51 95 -119 142.5t-154 47.5q-105 0 -171 -71t-66 -183q0 -108 61 -179t152 -71q85 0 152 69t145 245zM866 494
q-71 -138 -148 -201.5t-173 -63.5q-134 0 -226 109t-92 272q0 172 82.5 277.5t214.5 105.5q97 0 172 -63t144 -203q67 138 146 204t175 66q134 0 226 -108.5t92 -272.5q0 -171 -82 -277t-213 -106q-96 0 -169 60t-149 201z" />
    <glyph glyph-name="integral" unicode="&#x222b;" horiz-adv-x="1020" 
d="M301 -268q103 0 116 664q3 141 5 216q12 503 102 719.5t281 216.5q76 0 122 -39t46 -104q0 -48 -31 -77.5t-82 -29.5q-53 0 -85 35t-32 92q0 8 -6 15.5t-14 7.5q-105 0 -119 -634q-3 -157 -6 -245q-10 -308 -31.5 -461t-62.5 -247q-49 -114 -123 -173t-168 -59
q-73 0 -119.5 38t-46.5 97q0 53 31.5 84t83.5 31q47 0 79.5 -29t32.5 -67q0 -24 7.5 -37.5t19.5 -13.5z" />
    <glyph glyph-name="approxequal" unicode="&#x2248;" horiz-adv-x="1706" 
d="M1530 584v-131q-107 -75 -202 -110.5t-187 -35.5q-98 0 -288 69.5t-290 69.5q-82 0 -169.5 -35.5t-215.5 -123.5v131q108 74 203.5 110.5t183.5 36.5q111 0 301.5 -69.5t276.5 -69.5q85 0 173.5 35.5t213.5 122.5zM1530 934v-131q-104 -73 -200 -108.5t-187 -35.5
q-100 0 -290 69t-290 69q-83 0 -171.5 -36t-213.5 -122v131q106 73 202 109t185 36q111 0 300.5 -68.5t277.5 -68.5q87 0 175 35t212 121z" />
    <glyph glyph-name="notequal" unicode="&#x2260;" horiz-adv-x="1706" 
d="M1210 1180l88 -70l-196 -250h350v-115h-424l-211 -270h635v-115h-709l-251 -319l-89 70l197 249h-346v115h420l211 270h-631v115h704z" />
    <glyph glyph-name="lessequal" unicode="&#x2264;" horiz-adv-x="1706" 
d="M262 150h1182v-117h-1182v117zM1444 1192v-125l-977 -324l977 -323v-125l-1182 399v101z" />
    <glyph glyph-name="greaterequal" unicode="&#x2265;" horiz-adv-x="1706" 
d="M262 150h1182v-117h-1182v117zM262 1192l1182 -397v-101l-1182 -399v125l979 323l-979 324v125z" />
    <glyph glyph-name="lozenge" unicode="&#x25ca;" horiz-adv-x="1012" 
d="M506 1409l-385 -817l385 -825l385 825zM506 1653l500 -1061l-500 -1069l-500 1069z" />
    <glyph glyph-name="apple" unicode="&#xf000;" horiz-adv-x="1618" 
d="M836 1216q-1 6 -1.5 14t-0.5 23q0 124 95 229.5t236 131.5q1 -10 1.5 -23t0.5 -39q0 -131 -103.5 -234.5t-203.5 -103.5h-8q-3 0 -7.5 1t-8.5 1zM1505 403q-114 -247 -205 -342.5t-204 -95.5q-50 0 -131.5 33t-122.5 33q-45 0 -131 -33t-127 -33q-64 0 -128.5 44
t-129.5 132q-102 140 -157.5 295.5t-55.5 300.5q0 219 125 356.5t323 137.5q68 0 155 -34t124 -34q34 0 121.5 35t152.5 35q110 0 198 -40t161 -124q-102 -65 -151.5 -145.5t-49.5 -182.5q0 -113 60 -200t173 -138z" />
    <glyph glyph-name="fi" unicode="&#xf001;" horiz-adv-x="891" 
d="M662 1204q2 12 6 33q42 225 120 225q28 0 46 -16.5t18 -42.5q0 -55 -135 -187l-12 -12h-43zM291 811l-2 -268q0 -125 -16.5 -380t-45.5 -560h-43q-23 307 -35 562t-12 462v184h-96v47q78 23 113 217q12 66 20 103q26 120 87 192t132 72q37 0 85 -11.5t57 -11.5q10 0 17 5
t13 16l37 -15l-84 -172q-42 31 -87.5 46.5t-92.5 15.5q-50 0 -78.5 -30.5t-28.5 -84.5q0 -46 27 -137t35 -133h229q53 0 79.5 16.5t60.5 63.5l28 -19q-7 -13 -11.5 -25t-4.5 -18q0 -19 42 -49.5t52 -30.5q1 0 6 -2l10 -4v-45q-34 -7 -46.5 -28t-12.5 -80v-490
q0 -33 14.5 -55.5t32.5 -22.5q10 0 25.5 11.5t40.5 37.5l30 -30q-47 -47 -92 -98.5t-86 -108.5l-33 16l9 19q-51 39 -66.5 64.5t-15.5 66.5q0 26 2 68t2 57v467q0 62 -15.5 81t-54.5 19h-31h-196z" />
    <glyph glyph-name="fl" unicode="&#xf002;" horiz-adv-x="891" 
d="M293 930h295v196q0 84 -72.5 136.5t-177.5 52.5q-50 0 -78.5 -30.5t-28.5 -84.5q0 -46 27 -137t35 -133zM291 811l-2 -268q0 -125 -16.5 -380t-45.5 -560h-43q-23 307 -35 562t-12 462v184h-96v47q79 24 113 214q16 88 28 138q28 110 89 171t141 61q57 0 141.5 -38
t112.5 -38q27 0 98.5 38t132.5 38h16v-43q-102 -6 -145 -64.5t-43 -197.5v-906q0 -40 5 -52.5t18 -20.5l47 -29q10 -5 15.5 -6.5t10.5 -1.5q7 0 15.5 3.5t19.5 10.5l72 51l28 -30l-251 -203l-27 16l10 15v2q0 16 -46.5 43t-117.5 49l1 37q33 4 48 23t15 59v55v559h-297z" />
    </font>
</defs>
</svg>
